<svg xmlns="http://www.w3.org/2000/svg" xmlns:xlink="http://www.w3.org/1999/xlink" width="600" height="400" viewBox="0 0 2400 1600">
<defs>
  <clipPath id="clip190">
    <rect x="0" y="0" width="2400" height="1600"></rect>
  </clipPath>
</defs>
<path clip-path="url(#clip190)" d="M0 1600 L2400 1600 L2400 8.88178e-14 L0 8.88178e-14  Z" fill="#ffffff" fill-rule="evenodd" fill-opacity="1"></path>
<defs>
  <clipPath id="clip191">
    <rect x="480" y="0" width="1681" height="1600"></rect>
  </clipPath>
</defs>
<path clip-path="url(#clip190)" d="M175.445 1423.18 L2352.76 1423.18 L2352.76 123.472 L175.445 123.472  Z" fill="#ffffff" fill-rule="evenodd" fill-opacity="1"></path>
<defs>
  <clipPath id="clip192">
    <rect x="175" y="123" width="2178" height="1301"></rect>
  </clipPath>
</defs>
<polyline clip-path="url(#clip192)" style="stroke:#000000; stroke-linecap:round; stroke-linejoin:round; stroke-width:2; stroke-opacity:0.1; fill:none" points="502.108,1423.18 502.108,123.472 "></polyline>
<polyline clip-path="url(#clip192)" style="stroke:#000000; stroke-linecap:round; stroke-linejoin:round; stroke-width:2; stroke-opacity:0.1; fill:none" points="833.409,1423.18 833.409,123.472 "></polyline>
<polyline clip-path="url(#clip192)" style="stroke:#000000; stroke-linecap:round; stroke-linejoin:round; stroke-width:2; stroke-opacity:0.1; fill:none" points="1164.71,1423.18 1164.71,123.472 "></polyline>
<polyline clip-path="url(#clip192)" style="stroke:#000000; stroke-linecap:round; stroke-linejoin:round; stroke-width:2; stroke-opacity:0.1; fill:none" points="1496.01,1423.18 1496.01,123.472 "></polyline>
<polyline clip-path="url(#clip192)" style="stroke:#000000; stroke-linecap:round; stroke-linejoin:round; stroke-width:2; stroke-opacity:0.1; fill:none" points="1827.31,1423.18 1827.31,123.472 "></polyline>
<polyline clip-path="url(#clip192)" style="stroke:#000000; stroke-linecap:round; stroke-linejoin:round; stroke-width:2; stroke-opacity:0.1; fill:none" points="2158.61,1423.18 2158.61,123.472 "></polyline>
<polyline clip-path="url(#clip192)" style="stroke:#000000; stroke-linecap:round; stroke-linejoin:round; stroke-width:2; stroke-opacity:0.1; fill:none" points="502.108,1423.18 502.108,123.472 "></polyline>
<polyline clip-path="url(#clip192)" style="stroke:#000000; stroke-linecap:round; stroke-linejoin:round; stroke-width:2; stroke-opacity:0.1; fill:none" points="833.409,1423.18 833.409,123.472 "></polyline>
<polyline clip-path="url(#clip192)" style="stroke:#000000; stroke-linecap:round; stroke-linejoin:round; stroke-width:2; stroke-opacity:0.1; fill:none" points="1164.71,1423.18 1164.71,123.472 "></polyline>
<polyline clip-path="url(#clip192)" style="stroke:#000000; stroke-linecap:round; stroke-linejoin:round; stroke-width:2; stroke-opacity:0.1; fill:none" points="1496.01,1423.18 1496.01,123.472 "></polyline>
<polyline clip-path="url(#clip192)" style="stroke:#000000; stroke-linecap:round; stroke-linejoin:round; stroke-width:2; stroke-opacity:0.1; fill:none" points="1827.31,1423.18 1827.31,123.472 "></polyline>
<polyline clip-path="url(#clip192)" style="stroke:#000000; stroke-linecap:round; stroke-linejoin:round; stroke-width:2; stroke-opacity:0.1; fill:none" points="2158.61,1423.18 2158.61,123.472 "></polyline>
<polyline clip-path="url(#clip192)" style="stroke:#000000; stroke-linecap:round; stroke-linejoin:round; stroke-width:2; stroke-opacity:0.1; fill:none" points="175.445,1137.02 2352.76,1137.02 "></polyline>
<polyline clip-path="url(#clip192)" style="stroke:#000000; stroke-linecap:round; stroke-linejoin:round; stroke-width:2; stroke-opacity:0.1; fill:none" points="175.445,801.917 2352.76,801.917 "></polyline>
<polyline clip-path="url(#clip192)" style="stroke:#000000; stroke-linecap:round; stroke-linejoin:round; stroke-width:2; stroke-opacity:0.1; fill:none" points="175.445,466.818 2352.76,466.818 "></polyline>
<polyline clip-path="url(#clip192)" style="stroke:#000000; stroke-linecap:round; stroke-linejoin:round; stroke-width:2; stroke-opacity:0.1; fill:none" points="175.445,131.72 2352.76,131.72 "></polyline>
<polyline clip-path="url(#clip192)" style="stroke:#000000; stroke-linecap:round; stroke-linejoin:round; stroke-width:2; stroke-opacity:0.1; fill:none" points="175.445,1137.02 2352.76,1137.02 "></polyline>
<polyline clip-path="url(#clip192)" style="stroke:#000000; stroke-linecap:round; stroke-linejoin:round; stroke-width:2; stroke-opacity:0.1; fill:none" points="175.445,801.917 2352.76,801.917 "></polyline>
<polyline clip-path="url(#clip192)" style="stroke:#000000; stroke-linecap:round; stroke-linejoin:round; stroke-width:2; stroke-opacity:0.1; fill:none" points="175.445,466.818 2352.76,466.818 "></polyline>
<polyline clip-path="url(#clip192)" style="stroke:#000000; stroke-linecap:round; stroke-linejoin:round; stroke-width:2; stroke-opacity:0.1; fill:none" points="175.445,131.72 2352.76,131.72 "></polyline>
<polyline clip-path="url(#clip190)" style="stroke:#000000; stroke-linecap:round; stroke-linejoin:round; stroke-width:4; stroke-opacity:1; fill:none" points="175.445,1423.18 2352.76,1423.18 "></polyline>
<polyline clip-path="url(#clip190)" style="stroke:#000000; stroke-linecap:round; stroke-linejoin:round; stroke-width:4; stroke-opacity:1; fill:none" points="175.445,123.472 2352.76,123.472 "></polyline>
<polyline clip-path="url(#clip190)" style="stroke:#000000; stroke-linecap:round; stroke-linejoin:round; stroke-width:4; stroke-opacity:1; fill:none" points="502.108,1423.18 502.108,1404.28 "></polyline>
<polyline clip-path="url(#clip190)" style="stroke:#000000; stroke-linecap:round; stroke-linejoin:round; stroke-width:4; stroke-opacity:1; fill:none" points="833.409,1423.18 833.409,1404.28 "></polyline>
<polyline clip-path="url(#clip190)" style="stroke:#000000; stroke-linecap:round; stroke-linejoin:round; stroke-width:4; stroke-opacity:1; fill:none" points="1164.71,1423.18 1164.71,1404.28 "></polyline>
<polyline clip-path="url(#clip190)" style="stroke:#000000; stroke-linecap:round; stroke-linejoin:round; stroke-width:4; stroke-opacity:1; fill:none" points="1496.01,1423.18 1496.01,1404.28 "></polyline>
<polyline clip-path="url(#clip190)" style="stroke:#000000; stroke-linecap:round; stroke-linejoin:round; stroke-width:4; stroke-opacity:1; fill:none" points="1827.31,1423.18 1827.31,1404.28 "></polyline>
<polyline clip-path="url(#clip190)" style="stroke:#000000; stroke-linecap:round; stroke-linejoin:round; stroke-width:4; stroke-opacity:1; fill:none" points="2158.61,1423.18 2158.61,1404.28 "></polyline>
<polyline clip-path="url(#clip190)" style="stroke:#000000; stroke-linecap:round; stroke-linejoin:round; stroke-width:4; stroke-opacity:1; fill:none" points="502.108,123.472 502.108,142.37 "></polyline>
<polyline clip-path="url(#clip190)" style="stroke:#000000; stroke-linecap:round; stroke-linejoin:round; stroke-width:4; stroke-opacity:1; fill:none" points="833.409,123.472 833.409,142.37 "></polyline>
<polyline clip-path="url(#clip190)" style="stroke:#000000; stroke-linecap:round; stroke-linejoin:round; stroke-width:4; stroke-opacity:1; fill:none" points="1164.71,123.472 1164.71,142.37 "></polyline>
<polyline clip-path="url(#clip190)" style="stroke:#000000; stroke-linecap:round; stroke-linejoin:round; stroke-width:4; stroke-opacity:1; fill:none" points="1496.01,123.472 1496.01,142.37 "></polyline>
<polyline clip-path="url(#clip190)" style="stroke:#000000; stroke-linecap:round; stroke-linejoin:round; stroke-width:4; stroke-opacity:1; fill:none" points="1827.31,123.472 1827.31,142.37 "></polyline>
<polyline clip-path="url(#clip190)" style="stroke:#000000; stroke-linecap:round; stroke-linejoin:round; stroke-width:4; stroke-opacity:1; fill:none" points="2158.61,123.472 2158.61,142.37 "></polyline>
<path clip-path="url(#clip190)" d="M492.386 1451.02 L510.742 1451.02 L510.742 1454.96 L496.668 1454.96 L496.668 1463.43 Q497.687 1463.08 498.705 1462.92 Q499.724 1462.73 500.742 1462.73 Q506.529 1462.73 509.909 1465.9 Q513.289 1469.08 513.289 1474.49 Q513.289 1480.07 509.816 1483.17 Q506.344 1486.25 500.025 1486.25 Q497.849 1486.25 495.58 1485.88 Q493.335 1485.51 490.928 1484.77 L490.928 1480.07 Q493.011 1481.2 495.233 1481.76 Q497.455 1482.32 499.932 1482.32 Q503.937 1482.32 506.275 1480.21 Q508.613 1478.1 508.613 1474.49 Q508.613 1470.88 506.275 1468.77 Q503.937 1466.67 499.932 1466.67 Q498.057 1466.67 496.182 1467.08 Q494.33 1467.5 492.386 1468.38 L492.386 1451.02 Z" fill="#000000" fill-rule="nonzero" fill-opacity="1"></path><path clip-path="url(#clip190)" d="M808.097 1481.64 L815.736 1481.64 L815.736 1455.28 L807.425 1456.95 L807.425 1452.69 L815.689 1451.02 L820.365 1451.02 L820.365 1481.64 L828.004 1481.64 L828.004 1485.58 L808.097 1485.58 L808.097 1481.64 Z" fill="#000000" fill-rule="nonzero" fill-opacity="1"></path><path clip-path="url(#clip190)" d="M847.448 1454.1 Q843.837 1454.1 842.009 1457.66 Q840.203 1461.2 840.203 1468.33 Q840.203 1475.44 842.009 1479.01 Q843.837 1482.55 847.448 1482.55 Q851.083 1482.55 852.888 1479.01 Q854.717 1475.44 854.717 1468.33 Q854.717 1461.2 852.888 1457.66 Q851.083 1454.1 847.448 1454.1 M847.448 1450.39 Q853.259 1450.39 856.314 1455 Q859.393 1459.58 859.393 1468.33 Q859.393 1477.06 856.314 1481.67 Q853.259 1486.25 847.448 1486.25 Q841.638 1486.25 838.56 1481.67 Q835.504 1477.06 835.504 1468.33 Q835.504 1459.58 838.56 1455 Q841.638 1450.39 847.448 1450.39 Z" fill="#000000" fill-rule="nonzero" fill-opacity="1"></path><path clip-path="url(#clip190)" d="M1139.9 1481.64 L1147.53 1481.64 L1147.53 1455.28 L1139.22 1456.95 L1139.22 1452.69 L1147.49 1451.02 L1152.16 1451.02 L1152.16 1481.64 L1159.8 1481.64 L1159.8 1485.58 L1139.9 1485.58 L1139.9 1481.64 Z" fill="#000000" fill-rule="nonzero" fill-opacity="1"></path><path clip-path="url(#clip190)" d="M1169.29 1451.02 L1187.65 1451.02 L1187.65 1454.96 L1173.58 1454.96 L1173.58 1463.43 Q1174.59 1463.08 1175.61 1462.92 Q1176.63 1462.73 1177.65 1462.73 Q1183.44 1462.73 1186.82 1465.9 Q1190.2 1469.08 1190.2 1474.49 Q1190.2 1480.07 1186.72 1483.17 Q1183.25 1486.25 1176.93 1486.25 Q1174.76 1486.25 1172.49 1485.88 Q1170.24 1485.51 1167.84 1484.77 L1167.84 1480.07 Q1169.92 1481.2 1172.14 1481.76 Q1174.36 1482.32 1176.84 1482.32 Q1180.84 1482.32 1183.18 1480.21 Q1185.52 1478.1 1185.52 1474.49 Q1185.52 1470.88 1183.18 1468.77 Q1180.84 1466.67 1176.84 1466.67 Q1174.96 1466.67 1173.09 1467.08 Q1171.24 1467.5 1169.29 1468.38 L1169.29 1451.02 Z" fill="#000000" fill-rule="nonzero" fill-opacity="1"></path><path clip-path="url(#clip190)" d="M1474.78 1481.64 L1491.1 1481.64 L1491.1 1485.58 L1469.16 1485.58 L1469.16 1481.64 Q1471.82 1478.89 1476.4 1474.26 Q1481.01 1469.61 1482.19 1468.27 Q1484.44 1465.74 1485.32 1464.01 Q1486.22 1462.25 1486.22 1460.56 Q1486.22 1457.8 1484.28 1456.07 Q1482.35 1454.33 1479.25 1454.33 Q1477.05 1454.33 1474.6 1455.09 Q1472.17 1455.86 1469.39 1457.41 L1469.39 1452.69 Q1472.22 1451.55 1474.67 1450.97 Q1477.12 1450.39 1479.16 1450.39 Q1484.53 1450.39 1487.72 1453.08 Q1490.92 1455.77 1490.92 1460.26 Q1490.92 1462.39 1490.11 1464.31 Q1489.32 1466.2 1487.22 1468.8 Q1486.64 1469.47 1483.53 1472.69 Q1480.43 1475.88 1474.78 1481.64 Z" fill="#000000" fill-rule="nonzero" fill-opacity="1"></path><path clip-path="url(#clip190)" d="M1510.92 1454.1 Q1507.31 1454.1 1505.48 1457.66 Q1503.67 1461.2 1503.67 1468.33 Q1503.67 1475.44 1505.48 1479.01 Q1507.31 1482.55 1510.92 1482.55 Q1514.55 1482.55 1516.36 1479.01 Q1518.19 1475.44 1518.19 1468.33 Q1518.19 1461.2 1516.36 1457.66 Q1514.55 1454.1 1510.92 1454.1 M1510.92 1450.39 Q1516.73 1450.39 1519.78 1455 Q1522.86 1459.58 1522.86 1468.33 Q1522.86 1477.06 1519.78 1481.67 Q1516.73 1486.25 1510.92 1486.25 Q1505.11 1486.25 1502.03 1481.67 Q1498.97 1477.06 1498.97 1468.33 Q1498.97 1459.58 1502.03 1455 Q1505.11 1450.39 1510.92 1450.39 Z" fill="#000000" fill-rule="nonzero" fill-opacity="1"></path><path clip-path="url(#clip190)" d="M1806.58 1481.64 L1822.9 1481.64 L1822.9 1485.58 L1800.96 1485.58 L1800.96 1481.64 Q1803.62 1478.89 1808.2 1474.26 Q1812.81 1469.61 1813.99 1468.27 Q1816.24 1465.74 1817.12 1464.01 Q1818.02 1462.25 1818.02 1460.56 Q1818.02 1457.8 1816.07 1456.07 Q1814.15 1454.33 1811.05 1454.33 Q1808.85 1454.33 1806.4 1455.09 Q1803.97 1455.86 1801.19 1457.41 L1801.19 1452.69 Q1804.01 1451.55 1806.47 1450.97 Q1808.92 1450.39 1810.96 1450.39 Q1816.33 1450.39 1819.52 1453.08 Q1822.72 1455.77 1822.72 1460.26 Q1822.72 1462.39 1821.91 1464.31 Q1821.12 1466.2 1819.01 1468.8 Q1818.44 1469.47 1815.33 1472.69 Q1812.23 1475.88 1806.58 1481.64 Z" fill="#000000" fill-rule="nonzero" fill-opacity="1"></path><path clip-path="url(#clip190)" d="M1832.76 1451.02 L1851.12 1451.02 L1851.12 1454.96 L1837.05 1454.96 L1837.05 1463.43 Q1838.06 1463.08 1839.08 1462.92 Q1840.1 1462.73 1841.12 1462.73 Q1846.91 1462.73 1850.29 1465.9 Q1853.67 1469.08 1853.67 1474.49 Q1853.67 1480.07 1850.19 1483.17 Q1846.72 1486.25 1840.4 1486.25 Q1838.23 1486.25 1835.96 1485.88 Q1833.71 1485.51 1831.31 1484.77 L1831.31 1480.07 Q1833.39 1481.2 1835.61 1481.76 Q1837.83 1482.32 1840.31 1482.32 Q1844.31 1482.32 1846.65 1480.21 Q1848.99 1478.1 1848.99 1474.49 Q1848.99 1470.88 1846.65 1468.77 Q1844.31 1466.67 1840.31 1466.67 Q1838.44 1466.67 1836.56 1467.08 Q1834.71 1467.5 1832.76 1468.38 L1832.76 1451.02 Z" fill="#000000" fill-rule="nonzero" fill-opacity="1"></path><path clip-path="url(#clip190)" d="M2147.46 1466.95 Q2150.81 1467.66 2152.69 1469.93 Q2154.59 1472.2 2154.59 1475.53 Q2154.59 1480.65 2151.07 1483.45 Q2147.55 1486.25 2141.07 1486.25 Q2138.89 1486.25 2136.58 1485.81 Q2134.28 1485.39 2131.83 1484.54 L2131.83 1480.02 Q2133.78 1481.16 2136.09 1481.74 Q2138.41 1482.32 2140.93 1482.32 Q2145.33 1482.32 2147.62 1480.58 Q2149.93 1478.84 2149.93 1475.53 Q2149.93 1472.48 2147.78 1470.77 Q2145.65 1469.03 2141.83 1469.03 L2137.8 1469.03 L2137.8 1465.19 L2142.02 1465.19 Q2145.47 1465.19 2147.29 1463.82 Q2149.12 1462.43 2149.12 1459.84 Q2149.12 1457.18 2147.22 1455.77 Q2145.35 1454.33 2141.83 1454.33 Q2139.91 1454.33 2137.71 1454.75 Q2135.51 1455.16 2132.87 1456.04 L2132.87 1451.88 Q2135.53 1451.14 2137.85 1450.77 Q2140.19 1450.39 2142.25 1450.39 Q2147.57 1450.39 2150.67 1452.83 Q2153.78 1455.23 2153.78 1459.35 Q2153.78 1462.22 2152.13 1464.21 Q2150.49 1466.18 2147.46 1466.95 Z" fill="#000000" fill-rule="nonzero" fill-opacity="1"></path><path clip-path="url(#clip190)" d="M2173.45 1454.1 Q2169.84 1454.1 2168.01 1457.66 Q2166.21 1461.2 2166.21 1468.33 Q2166.21 1475.44 2168.01 1479.01 Q2169.84 1482.55 2173.45 1482.55 Q2177.09 1482.55 2178.89 1479.01 Q2180.72 1475.44 2180.72 1468.33 Q2180.72 1461.2 2178.89 1457.66 Q2177.09 1454.1 2173.45 1454.1 M2173.45 1450.39 Q2179.26 1450.39 2182.32 1455 Q2185.4 1459.58 2185.4 1468.33 Q2185.4 1477.06 2182.32 1481.67 Q2179.26 1486.25 2173.45 1486.25 Q2167.64 1486.25 2164.56 1481.67 Q2161.51 1477.06 2161.51 1468.33 Q2161.51 1459.58 2164.56 1455 Q2167.64 1450.39 2173.45 1450.39 Z" fill="#000000" fill-rule="nonzero" fill-opacity="1"></path><path clip-path="url(#clip190)" d="M1131.82 1520.52 L1138.25 1520.52 L1138.25 1568.04 L1131.82 1568.04 L1131.82 1520.52 Z" fill="#000000" fill-rule="nonzero" fill-opacity="1"></path><path clip-path="url(#clip190)" d="M1156.58 1522.27 L1156.58 1532.4 L1168.65 1532.4 L1168.65 1536.95 L1156.58 1536.95 L1156.58 1556.3 Q1156.58 1560.66 1157.76 1561.9 Q1158.97 1563.14 1162.63 1563.14 L1168.65 1563.14 L1168.65 1568.04 L1162.63 1568.04 Q1155.85 1568.04 1153.27 1565.53 Q1150.7 1562.98 1150.7 1556.3 L1150.7 1536.95 L1146.4 1536.95 L1146.4 1532.4 L1150.7 1532.4 L1150.7 1522.27 L1156.58 1522.27 Z" fill="#000000" fill-rule="nonzero" fill-opacity="1"></path><path clip-path="url(#clip190)" d="M1206.84 1548.76 L1206.84 1551.62 L1179.91 1551.62 Q1180.3 1557.67 1183.54 1560.85 Q1186.82 1564 1192.65 1564 Q1196.02 1564 1199.17 1563.17 Q1202.35 1562.35 1205.47 1560.69 L1205.47 1566.23 Q1202.32 1567.57 1199.01 1568.27 Q1195.7 1568.97 1192.3 1568.97 Q1183.77 1568.97 1178.77 1564 Q1173.8 1559.04 1173.8 1550.57 Q1173.8 1541.82 1178.51 1536.69 Q1183.26 1531.54 1191.28 1531.54 Q1198.47 1531.54 1202.64 1536.18 Q1206.84 1540.8 1206.84 1548.76 M1200.98 1547.04 Q1200.92 1542.23 1198.28 1539.37 Q1195.67 1536.5 1191.34 1536.5 Q1186.44 1536.5 1183.48 1539.27 Q1180.55 1542.04 1180.11 1547.07 L1200.98 1547.04 Z" fill="#000000" fill-rule="nonzero" fill-opacity="1"></path><path clip-path="url(#clip190)" d="M1237.11 1537.87 Q1236.12 1537.3 1234.95 1537.04 Q1233.8 1536.76 1232.4 1536.76 Q1227.43 1536.76 1224.76 1540 Q1222.12 1543.22 1222.12 1549.27 L1222.12 1568.04 L1216.23 1568.04 L1216.23 1532.4 L1222.12 1532.4 L1222.12 1537.93 Q1223.96 1534.69 1226.92 1533.13 Q1229.88 1531.54 1234.12 1531.54 Q1234.72 1531.54 1235.45 1531.63 Q1236.19 1531.7 1237.08 1531.85 L1237.11 1537.87 Z" fill="#000000" fill-rule="nonzero" fill-opacity="1"></path><path clip-path="url(#clip190)" d="M1259.45 1550.12 Q1252.36 1550.12 1249.62 1551.75 Q1246.88 1553.37 1246.88 1557.29 Q1246.88 1560.4 1248.92 1562.25 Q1250.99 1564.07 1254.52 1564.07 Q1259.39 1564.07 1262.32 1560.63 Q1265.28 1557.16 1265.28 1551.43 L1265.28 1550.12 L1259.45 1550.12 M1271.13 1547.71 L1271.13 1568.04 L1265.28 1568.04 L1265.28 1562.63 Q1263.27 1565.88 1260.28 1567.44 Q1257.29 1568.97 1252.96 1568.97 Q1247.49 1568.97 1244.24 1565.91 Q1241.02 1562.82 1241.02 1557.67 Q1241.02 1551.65 1245.04 1548.6 Q1249.08 1545.54 1257.07 1545.54 L1265.28 1545.54 L1265.28 1544.97 Q1265.28 1540.93 1262.6 1538.73 Q1259.96 1536.5 1255.16 1536.5 Q1252.1 1536.5 1249.2 1537.23 Q1246.31 1537.97 1243.63 1539.43 L1243.63 1534.02 Q1246.85 1532.78 1249.87 1532.17 Q1252.9 1531.54 1255.76 1531.54 Q1263.5 1531.54 1267.32 1535.55 Q1271.13 1539.56 1271.13 1547.71 Z" fill="#000000" fill-rule="nonzero" fill-opacity="1"></path><path clip-path="url(#clip190)" d="M1288.99 1522.27 L1288.99 1532.4 L1301.05 1532.4 L1301.05 1536.95 L1288.99 1536.95 L1288.99 1556.3 Q1288.99 1560.66 1290.17 1561.9 Q1291.38 1563.14 1295.04 1563.14 L1301.05 1563.14 L1301.05 1568.04 L1295.04 1568.04 Q1288.26 1568.04 1285.68 1565.53 Q1283.1 1562.98 1283.1 1556.3 L1283.1 1536.95 L1278.81 1536.95 L1278.81 1532.4 L1283.1 1532.4 L1283.1 1522.27 L1288.99 1522.27 Z" fill="#000000" fill-rule="nonzero" fill-opacity="1"></path><path clip-path="url(#clip190)" d="M1308.76 1532.4 L1314.61 1532.4 L1314.61 1568.04 L1308.76 1568.04 L1308.76 1532.4 M1308.76 1518.52 L1314.61 1518.52 L1314.61 1525.93 L1308.76 1525.93 L1308.76 1518.52 Z" fill="#000000" fill-rule="nonzero" fill-opacity="1"></path><path clip-path="url(#clip190)" d="M1340.68 1536.5 Q1335.97 1536.5 1333.23 1540.19 Q1330.49 1543.85 1330.49 1550.25 Q1330.49 1556.65 1333.2 1560.34 Q1335.94 1564 1340.68 1564 Q1345.36 1564 1348.1 1560.31 Q1350.83 1556.62 1350.83 1550.25 Q1350.83 1543.92 1348.1 1540.23 Q1345.36 1536.5 1340.68 1536.5 M1340.68 1531.54 Q1348.32 1531.54 1352.68 1536.5 Q1357.04 1541.47 1357.04 1550.25 Q1357.04 1559 1352.68 1564 Q1348.32 1568.97 1340.68 1568.97 Q1333.01 1568.97 1328.65 1564 Q1324.32 1559 1324.32 1550.25 Q1324.32 1541.47 1328.65 1536.5 Q1333.01 1531.54 1340.68 1531.54 Z" fill="#000000" fill-rule="nonzero" fill-opacity="1"></path><path clip-path="url(#clip190)" d="M1396.38 1546.53 L1396.38 1568.04 L1390.52 1568.04 L1390.52 1546.72 Q1390.52 1541.66 1388.55 1539.14 Q1386.58 1536.63 1382.63 1536.63 Q1377.89 1536.63 1375.15 1539.65 Q1372.41 1542.68 1372.41 1547.9 L1372.41 1568.04 L1366.52 1568.04 L1366.52 1532.4 L1372.41 1532.4 L1372.41 1537.93 Q1374.51 1534.72 1377.35 1533.13 Q1380.21 1531.54 1383.93 1531.54 Q1390.08 1531.54 1393.23 1535.36 Q1396.38 1539.14 1396.38 1546.53 Z" fill="#000000" fill-rule="nonzero" fill-opacity="1"></path><polyline clip-path="url(#clip190)" style="stroke:#000000; stroke-linecap:round; stroke-linejoin:round; stroke-width:4; stroke-opacity:1; fill:none" points="175.445,1423.18 175.445,123.472 "></polyline>
<polyline clip-path="url(#clip190)" style="stroke:#000000; stroke-linecap:round; stroke-linejoin:round; stroke-width:4; stroke-opacity:1; fill:none" points="2352.76,1423.18 2352.76,123.472 "></polyline>
<polyline clip-path="url(#clip190)" style="stroke:#000000; stroke-linecap:round; stroke-linejoin:round; stroke-width:4; stroke-opacity:1; fill:none" points="175.445,1137.02 194.343,1137.02 "></polyline>
<polyline clip-path="url(#clip190)" style="stroke:#000000; stroke-linecap:round; stroke-linejoin:round; stroke-width:4; stroke-opacity:1; fill:none" points="175.445,801.917 194.343,801.917 "></polyline>
<polyline clip-path="url(#clip190)" style="stroke:#000000; stroke-linecap:round; stroke-linejoin:round; stroke-width:4; stroke-opacity:1; fill:none" points="175.445,466.818 194.343,466.818 "></polyline>
<polyline clip-path="url(#clip190)" style="stroke:#000000; stroke-linecap:round; stroke-linejoin:round; stroke-width:4; stroke-opacity:1; fill:none" points="175.445,131.72 194.343,131.72 "></polyline>
<polyline clip-path="url(#clip190)" style="stroke:#000000; stroke-linecap:round; stroke-linejoin:round; stroke-width:4; stroke-opacity:1; fill:none" points="2352.76,1137.02 2333.86,1137.02 "></polyline>
<polyline clip-path="url(#clip190)" style="stroke:#000000; stroke-linecap:round; stroke-linejoin:round; stroke-width:4; stroke-opacity:1; fill:none" points="2352.76,801.917 2333.86,801.917 "></polyline>
<polyline clip-path="url(#clip190)" style="stroke:#000000; stroke-linecap:round; stroke-linejoin:round; stroke-width:4; stroke-opacity:1; fill:none" points="2352.76,466.818 2333.86,466.818 "></polyline>
<polyline clip-path="url(#clip190)" style="stroke:#000000; stroke-linecap:round; stroke-linejoin:round; stroke-width:4; stroke-opacity:1; fill:none" points="2352.76,131.72 2333.86,131.72 "></polyline>
<path clip-path="url(#clip190)" d="M119.538 1150.36 L127.177 1150.36 L127.177 1123.99 L118.867 1125.66 L118.867 1121.4 L127.13 1119.74 L131.806 1119.74 L131.806 1150.36 L139.445 1150.36 L139.445 1154.3 L119.538 1154.3 L119.538 1150.36 Z" fill="#000000" fill-rule="nonzero" fill-opacity="1"></path><path clip-path="url(#clip190)" d="M123.126 815.262 L139.445 815.262 L139.445 819.197 L117.501 819.197 L117.501 815.262 Q120.163 812.507 124.746 807.877 Q129.353 803.225 130.533 801.882 Q132.779 799.359 133.658 797.623 Q134.561 795.863 134.561 794.174 Q134.561 791.419 132.617 789.683 Q130.695 787.947 127.593 787.947 Q125.394 787.947 122.941 788.711 Q120.51 789.475 117.732 791.026 L117.732 786.303 Q120.556 785.169 123.01 784.59 Q125.464 784.012 127.501 784.012 Q132.871 784.012 136.066 786.697 Q139.26 789.382 139.26 793.873 Q139.26 796.002 138.45 797.924 Q137.663 799.822 135.556 802.414 Q134.978 803.086 131.876 806.303 Q128.774 809.498 123.126 815.262 Z" fill="#000000" fill-rule="nonzero" fill-opacity="1"></path><path clip-path="url(#clip190)" d="M132.316 465.464 Q135.672 466.182 137.547 468.45 Q139.445 470.719 139.445 474.052 Q139.445 479.168 135.927 481.969 Q132.408 484.77 125.927 484.77 Q123.751 484.77 121.436 484.33 Q119.144 483.913 116.691 483.057 L116.691 478.543 Q118.635 479.677 120.95 480.256 Q123.265 480.834 125.788 480.834 Q130.186 480.834 132.478 479.098 Q134.792 477.362 134.792 474.052 Q134.792 470.997 132.64 469.284 Q130.51 467.547 126.691 467.547 L122.663 467.547 L122.663 463.705 L126.876 463.705 Q130.325 463.705 132.154 462.339 Q133.982 460.95 133.982 458.358 Q133.982 455.696 132.084 454.284 Q130.209 452.848 126.691 452.848 Q124.769 452.848 122.57 453.265 Q120.371 453.682 117.732 454.561 L117.732 450.395 Q120.394 449.654 122.709 449.284 Q125.047 448.913 127.107 448.913 Q132.431 448.913 135.533 451.344 Q138.635 453.751 138.635 457.872 Q138.635 460.742 136.992 462.733 Q135.348 464.7 132.316 465.464 Z" fill="#000000" fill-rule="nonzero" fill-opacity="1"></path><path clip-path="url(#clip190)" d="M129.862 118.514 L118.056 136.963 L129.862 136.963 L129.862 118.514 M128.635 114.44 L134.515 114.44 L134.515 136.963 L139.445 136.963 L139.445 140.852 L134.515 140.852 L134.515 149 L129.862 149 L129.862 140.852 L114.26 140.852 L114.26 136.338 L128.635 114.44 Z" fill="#000000" fill-rule="nonzero" fill-opacity="1"></path><path clip-path="url(#clip190)" d="M16.4842 1135.3 L16.4842 1105.25 L21.895 1105.25 L21.895 1128.87 L35.9632 1128.87 L35.9632 1106.24 L41.3741 1106.24 L41.3741 1128.87 L58.5933 1128.87 L58.5933 1104.68 L64.0042 1104.68 L64.0042 1135.3 L16.4842 1135.3 Z" fill="#000000" fill-rule="nonzero" fill-opacity="1"></path><path clip-path="url(#clip190)" d="M42.4881 1064.73 L64.0042 1064.73 L64.0042 1070.59 L42.679 1070.59 Q37.6183 1070.59 35.1038 1072.56 Q32.5894 1074.54 32.5894 1078.48 Q32.5894 1083.22 35.6131 1085.96 Q38.6368 1088.7 43.8567 1088.7 L64.0042 1088.7 L64.0042 1094.59 L28.3562 1094.59 L28.3562 1088.7 L33.8944 1088.7 Q30.6797 1086.6 29.0883 1083.77 Q27.4968 1080.9 27.4968 1077.18 Q27.4968 1071.03 31.3163 1067.88 Q35.1038 1064.73 42.4881 1064.73 Z" fill="#000000" fill-rule="nonzero" fill-opacity="1"></path><path clip-path="url(#clip190)" d="M18.2347 1047.26 L28.3562 1047.26 L28.3562 1035.2 L32.9077 1035.2 L32.9077 1047.26 L52.2594 1047.26 Q56.6199 1047.26 57.8613 1046.08 Q59.1026 1044.87 59.1026 1041.21 L59.1026 1035.2 L64.0042 1035.2 L64.0042 1041.21 Q64.0042 1047.99 61.4897 1050.57 Q58.9434 1053.15 52.2594 1053.15 L32.9077 1053.15 L32.9077 1057.44 L28.3562 1057.44 L28.3562 1053.15 L18.2347 1053.15 L18.2347 1047.26 Z" fill="#000000" fill-rule="nonzero" fill-opacity="1"></path><path clip-path="url(#clip190)" d="M46.0847 1011.29 Q46.0847 1018.39 47.7079 1021.13 Q49.3312 1023.86 53.2461 1023.86 Q56.3653 1023.86 58.2114 1021.83 Q60.0256 1019.76 60.0256 1016.23 Q60.0256 1011.36 56.5881 1008.43 Q53.1188 1005.47 47.3897 1005.47 L46.0847 1005.47 L46.0847 1011.29 M43.6657 999.611 L64.0042 999.611 L64.0042 1005.47 L58.5933 1005.47 Q61.8398 1007.47 63.3994 1010.46 Q64.9272 1013.46 64.9272 1017.79 Q64.9272 1023.26 61.8716 1026.51 Q58.7843 1029.72 53.6281 1029.72 Q47.6125 1029.72 44.5569 1025.71 Q41.5014 1021.67 41.5014 1013.68 L41.5014 1005.47 L40.9285 1005.47 Q36.8862 1005.47 34.6901 1008.14 Q32.4621 1010.78 32.4621 1015.59 Q32.4621 1018.64 33.1941 1021.54 Q33.9262 1024.44 35.3903 1027.11 L29.9795 1027.11 Q28.7381 1023.9 28.1334 1020.87 Q27.4968 1017.85 27.4968 1014.98 Q27.4968 1007.25 31.5072 1003.43 Q35.5176 999.611 43.6657 999.611 Z" fill="#000000" fill-rule="nonzero" fill-opacity="1"></path><path clip-path="url(#clip190)" d="M42.4881 957.916 L64.0042 957.916 L64.0042 963.772 L42.679 963.772 Q37.6183 963.772 35.1038 965.745 Q32.5894 967.719 32.5894 971.665 Q32.5894 976.408 35.6131 979.145 Q38.6368 981.882 43.8567 981.882 L64.0042 981.882 L64.0042 987.771 L28.3562 987.771 L28.3562 981.882 L33.8944 981.882 Q30.6797 979.782 29.0883 976.949 Q27.4968 974.084 27.4968 970.361 Q27.4968 964.218 31.3163 961.067 Q35.1038 957.916 42.4881 957.916 Z" fill="#000000" fill-rule="nonzero" fill-opacity="1"></path><path clip-path="url(#clip190)" d="M45.7664 922.777 Q39.4007 922.777 35.8996 925.419 Q32.3984 928.029 32.3984 932.771 Q32.3984 937.482 35.8996 940.123 Q39.4007 942.733 45.7664 942.733 Q52.1003 942.733 55.6014 940.123 Q59.1026 937.482 59.1026 932.771 Q59.1026 928.029 55.6014 925.419 Q52.1003 922.777 45.7664 922.777 M59.58 916.92 Q68.683 916.92 73.1071 920.963 Q77.5631 925.005 77.5631 933.344 Q77.5631 936.431 77.0857 939.169 Q76.6401 941.906 75.6852 944.484 L69.9879 944.484 Q71.3884 941.906 72.0568 939.391 Q72.7252 936.877 72.7252 934.267 Q72.7252 928.506 69.7015 925.641 Q66.7096 922.777 60.6303 922.777 L57.7339 922.777 Q60.885 924.591 62.4446 927.424 Q64.0042 930.257 64.0042 934.203 Q64.0042 940.76 59.0071 944.77 Q54.01 948.781 45.7664 948.781 Q37.491 948.781 32.4939 944.77 Q27.4968 940.76 27.4968 934.203 Q27.4968 930.257 29.0564 927.424 Q30.616 924.591 33.7671 922.777 L28.3562 922.777 L28.3562 916.92 L59.58 916.92 Z" fill="#000000" fill-rule="nonzero" fill-opacity="1"></path><path clip-path="url(#clip190)" d="M14.479 904.857 L14.479 899.001 L64.0042 899.001 L64.0042 904.857 L14.479 904.857 Z" fill="#000000" fill-rule="nonzero" fill-opacity="1"></path><path clip-path="url(#clip190)" d="M44.7161 856.255 L47.5806 856.255 L47.5806 883.182 Q53.6281 882.8 56.8109 879.554 Q59.9619 876.275 59.9619 870.451 Q59.9619 867.077 59.1344 863.926 Q58.3069 860.743 56.6518 857.624 L62.1899 857.624 Q63.5267 860.775 64.227 864.085 Q64.9272 867.395 64.9272 870.801 Q64.9272 879.331 59.9619 884.328 Q54.9967 889.293 46.5303 889.293 Q37.7774 889.293 32.6531 884.583 Q27.4968 879.84 27.4968 871.819 Q27.4968 864.626 32.1438 860.457 Q36.7589 856.255 44.7161 856.255 M42.9973 862.112 Q38.1912 862.175 35.3266 864.817 Q32.4621 867.427 32.4621 871.756 Q32.4621 876.657 35.2312 879.617 Q38.0002 882.546 43.0292 882.991 L42.9973 862.112 Z" fill="#000000" fill-rule="nonzero" fill-opacity="1"></path><path clip-path="url(#clip190)" d="M35.1993 818.889 Q31.2526 816.692 29.3747 813.637 Q27.4968 810.581 27.4968 806.444 Q27.4968 800.874 31.4117 797.85 Q35.2948 794.826 42.4881 794.826 L64.0042 794.826 L64.0042 800.714 L42.679 800.714 Q37.5546 800.714 35.072 802.529 Q32.5894 804.343 32.5894 808.067 Q32.5894 812.618 35.6131 815.26 Q38.6368 817.902 43.8567 817.902 L64.0042 817.902 L64.0042 823.79 L42.679 823.79 Q37.5228 823.79 35.072 825.604 Q32.5894 827.419 32.5894 831.206 Q32.5894 835.694 35.6449 838.336 Q38.6686 840.978 43.8567 840.978 L64.0042 840.978 L64.0042 846.866 L28.3562 846.866 L28.3562 840.978 L33.8944 840.978 Q30.616 838.972 29.0564 836.171 Q27.4968 833.371 27.4968 829.519 Q27.4968 825.636 29.4702 822.931 Q31.4436 820.193 35.1993 818.889 Z" fill="#000000" fill-rule="nonzero" fill-opacity="1"></path><path clip-path="url(#clip190)" d="M44.7161 752.653 L47.5806 752.653 L47.5806 779.58 Q53.6281 779.198 56.8109 775.952 Q59.9619 772.673 59.9619 766.849 Q59.9619 763.475 59.1344 760.324 Q58.3069 757.141 56.6518 754.022 L62.1899 754.022 Q63.5267 757.173 64.227 760.483 Q64.9272 763.793 64.9272 767.199 Q64.9272 775.729 59.9619 780.726 Q54.9967 785.691 46.5303 785.691 Q37.7774 785.691 32.6531 780.981 Q27.4968 776.238 27.4968 768.218 Q27.4968 761.024 32.1438 756.855 Q36.7589 752.653 44.7161 752.653 M42.9973 758.51 Q38.1912 758.573 35.3266 761.215 Q32.4621 763.825 32.4621 768.154 Q32.4621 773.055 35.2312 776.015 Q38.0002 778.944 43.0292 779.389 L42.9973 758.51 Z" fill="#000000" fill-rule="nonzero" fill-opacity="1"></path><path clip-path="url(#clip190)" d="M42.4881 713.409 L64.0042 713.409 L64.0042 719.265 L42.679 719.265 Q37.6183 719.265 35.1038 721.239 Q32.5894 723.212 32.5894 727.159 Q32.5894 731.901 35.6131 734.638 Q38.6368 737.376 43.8567 737.376 L64.0042 737.376 L64.0042 743.264 L28.3562 743.264 L28.3562 737.376 L33.8944 737.376 Q30.6797 735.275 29.0883 732.442 Q27.4968 729.578 27.4968 725.854 Q27.4968 719.711 31.3163 716.56 Q35.1038 713.409 42.4881 713.409 Z" fill="#000000" fill-rule="nonzero" fill-opacity="1"></path><path clip-path="url(#clip190)" d="M18.2347 695.935 L28.3562 695.935 L28.3562 683.872 L32.9077 683.872 L32.9077 695.935 L52.2594 695.935 Q56.6199 695.935 57.8613 694.757 Q59.1026 693.548 59.1026 689.887 L59.1026 683.872 L64.0042 683.872 L64.0042 689.887 Q64.0042 696.667 61.4897 699.245 Q58.9434 701.823 52.2594 701.823 L32.9077 701.823 L32.9077 706.12 L28.3562 706.12 L28.3562 701.823 L18.2347 701.823 L18.2347 695.935 Z" fill="#000000" fill-rule="nonzero" fill-opacity="1"></path><path clip-path="url(#clip190)" d="M44.7161 624.957 L47.5806 624.957 L47.5806 651.884 Q53.6281 651.502 56.8109 648.256 Q59.9619 644.977 59.9619 639.153 Q59.9619 635.779 59.1344 632.628 Q58.3069 629.445 56.6518 626.326 L62.1899 626.326 Q63.5267 629.477 64.227 632.787 Q64.9272 636.097 64.9272 639.503 Q64.9272 648.033 59.9619 653.03 Q54.9967 657.995 46.5303 657.995 Q37.7774 657.995 32.6531 653.285 Q27.4968 648.542 27.4968 640.521 Q27.4968 633.328 32.1438 629.159 Q36.7589 624.957 44.7161 624.957 M42.9973 630.814 Q38.1912 630.877 35.3266 633.519 Q32.4621 636.129 32.4621 640.458 Q32.4621 645.359 35.2312 648.319 Q38.0002 651.248 43.0292 651.693 L42.9973 630.814 Z" fill="#000000" fill-rule="nonzero" fill-opacity="1"></path><path clip-path="url(#clip190)" d="M42.4881 585.713 L64.0042 585.713 L64.0042 591.569 L42.679 591.569 Q37.6183 591.569 35.1038 593.543 Q32.5894 595.516 32.5894 599.463 Q32.5894 604.205 35.6131 606.942 Q38.6368 609.68 43.8567 609.68 L64.0042 609.68 L64.0042 615.568 L28.3562 615.568 L28.3562 609.68 L33.8944 609.68 Q30.6797 607.579 29.0883 604.746 Q27.4968 601.882 27.4968 598.158 Q27.4968 592.015 31.3163 588.864 Q35.1038 585.713 42.4881 585.713 Z" fill="#000000" fill-rule="nonzero" fill-opacity="1"></path><path clip-path="url(#clip190)" d="M18.2347 568.239 L28.3562 568.239 L28.3562 556.176 L32.9077 556.176 L32.9077 568.239 L52.2594 568.239 Q56.6199 568.239 57.8613 567.061 Q59.1026 565.852 59.1026 562.191 L59.1026 556.176 L64.0042 556.176 L64.0042 562.191 Q64.0042 568.971 61.4897 571.549 Q58.9434 574.127 52.2594 574.127 L32.9077 574.127 L32.9077 578.424 L28.3562 578.424 L28.3562 574.127 L18.2347 574.127 L18.2347 568.239 Z" fill="#000000" fill-rule="nonzero" fill-opacity="1"></path><path clip-path="url(#clip190)" d="M33.8307 527.817 Q33.2578 528.803 33.0032 529.981 Q32.7167 531.127 32.7167 532.527 Q32.7167 537.492 35.9632 540.166 Q39.1779 542.808 45.2253 542.808 L64.0042 542.808 L64.0042 548.696 L28.3562 548.696 L28.3562 542.808 L33.8944 542.808 Q30.6479 540.962 29.0883 538.002 Q27.4968 535.042 27.4968 530.808 Q27.4968 530.204 27.5923 529.472 Q27.656 528.74 27.8151 527.848 L33.8307 527.817 Z" fill="#000000" fill-rule="nonzero" fill-opacity="1"></path><path clip-path="url(#clip190)" d="M32.4621 509.292 Q32.4621 514.003 36.1542 516.74 Q39.8145 519.478 46.212 519.478 Q52.6095 519.478 56.3017 516.772 Q59.9619 514.035 59.9619 509.292 Q59.9619 504.614 56.2698 501.876 Q52.5777 499.139 46.212 499.139 Q39.8781 499.139 36.186 501.876 Q32.4621 504.614 32.4621 509.292 M27.4968 509.292 Q27.4968 501.654 32.4621 497.293 Q37.4273 492.933 46.212 492.933 Q54.9649 492.933 59.9619 497.293 Q64.9272 501.654 64.9272 509.292 Q64.9272 516.963 59.9619 521.324 Q54.9649 525.652 46.212 525.652 Q37.4273 525.652 32.4621 521.324 Q27.4968 516.963 27.4968 509.292 Z" fill="#000000" fill-rule="nonzero" fill-opacity="1"></path><path clip-path="url(#clip190)" d="M58.657 477.559 L77.5631 477.559 L77.5631 483.448 L28.3562 483.448 L28.3562 477.559 L33.7671 477.559 Q30.5842 475.713 29.0564 472.912 Q27.4968 470.08 27.4968 466.165 Q27.4968 459.672 32.6531 455.629 Q37.8093 451.555 46.212 451.555 Q54.6147 451.555 59.771 455.629 Q64.9272 459.672 64.9272 466.165 Q64.9272 470.08 63.3994 472.912 Q61.8398 475.713 58.657 477.559 M46.212 457.635 Q39.7508 457.635 36.0905 460.308 Q32.3984 462.95 32.3984 467.597 Q32.3984 472.244 36.0905 474.918 Q39.7508 477.559 46.212 477.559 Q52.6732 477.559 56.3653 474.918 Q60.0256 472.244 60.0256 467.597 Q60.0256 462.95 56.3653 460.308 Q52.6732 457.635 46.212 457.635 Z" fill="#000000" fill-rule="nonzero" fill-opacity="1"></path><path clip-path="url(#clip190)" d="M67.3143 427.016 Q73.68 429.498 75.6216 431.854 Q77.5631 434.209 77.5631 438.156 L77.5631 442.834 L72.6615 442.834 L72.6615 439.397 Q72.6615 436.978 71.5157 435.641 Q70.3699 434.304 66.1048 432.681 L63.4312 431.631 L28.3562 446.049 L28.3562 439.843 L56.238 428.703 L28.3562 417.563 L28.3562 411.356 L67.3143 427.016 Z" fill="#000000" fill-rule="nonzero" fill-opacity="1"></path><path clip-path="url(#clip190)" d="M550.311 12.096 L588.552 12.096 L588.552 18.9825 L558.494 18.9825 L558.494 36.8875 L587.296 36.8875 L587.296 43.7741 L558.494 43.7741 L558.494 65.6895 L589.281 65.6895 L589.281 72.576 L550.311 72.576 L550.311 12.096 Z" fill="#000000" fill-rule="nonzero" fill-opacity="1"></path><path clip-path="url(#clip190)" d="M640.12 45.1919 L640.12 72.576 L632.666 72.576 L632.666 45.4349 Q632.666 38.994 630.154 35.7938 Q627.643 32.5936 622.62 32.5936 Q616.584 32.5936 613.1 36.4419 Q609.616 40.2903 609.616 46.9338 L609.616 72.576 L602.122 72.576 L602.122 27.2059 L609.616 27.2059 L609.616 34.2544 Q612.29 30.163 615.895 28.1376 Q619.541 26.1121 624.28 26.1121 Q632.099 26.1121 636.109 30.9732 Q640.12 35.7938 640.12 45.1919 Z" fill="#000000" fill-rule="nonzero" fill-opacity="1"></path><path clip-path="url(#clip190)" d="M662.359 14.324 L662.359 27.2059 L677.712 27.2059 L677.712 32.9987 L662.359 32.9987 L662.359 57.6282 Q662.359 63.1779 663.858 64.7578 Q665.397 66.3376 670.056 66.3376 L677.712 66.3376 L677.712 72.576 L670.056 72.576 Q661.427 72.576 658.146 69.3758 Q654.865 66.1351 654.865 57.6282 L654.865 32.9987 L649.396 32.9987 L649.396 27.2059 L654.865 27.2059 L654.865 14.324 L662.359 14.324 Z" fill="#000000" fill-rule="nonzero" fill-opacity="1"></path><path clip-path="url(#clip190)" d="M708.134 49.7694 Q699.101 49.7694 695.617 51.8354 Q692.133 53.9013 692.133 58.8839 Q692.133 62.8538 694.726 65.2034 Q697.359 67.5124 701.855 67.5124 Q708.053 67.5124 711.78 63.1374 Q715.547 58.7219 715.547 51.4303 L715.547 49.7694 L708.134 49.7694 M723.001 46.6907 L723.001 72.576 L715.547 72.576 L715.547 65.6895 Q712.995 69.8214 709.187 71.8063 Q705.38 73.7508 699.87 73.7508 Q692.903 73.7508 688.771 69.8619 Q684.679 65.9325 684.679 59.3701 Q684.679 51.7138 689.784 47.825 Q694.928 43.9361 705.096 43.9361 L715.547 43.9361 L715.547 43.2069 Q715.547 38.0623 712.145 35.2672 Q708.782 32.4315 702.665 32.4315 Q698.777 32.4315 695.09 33.3632 Q691.404 34.295 688.001 36.1584 L688.001 29.2718 Q692.093 27.692 695.941 26.9223 Q699.789 26.1121 703.435 26.1121 Q713.279 26.1121 718.14 31.2163 Q723.001 36.3204 723.001 46.6907 Z" fill="#000000" fill-rule="nonzero" fill-opacity="1"></path><path clip-path="url(#clip190)" d="M776.068 45.1919 L776.068 72.576 L768.614 72.576 L768.614 45.4349 Q768.614 38.994 766.103 35.7938 Q763.591 32.5936 758.568 32.5936 Q752.532 32.5936 749.048 36.4419 Q745.565 40.2903 745.565 46.9338 L745.565 72.576 L738.07 72.576 L738.07 27.2059 L745.565 27.2059 L745.565 34.2544 Q748.238 30.163 751.843 28.1376 Q755.489 26.1121 760.229 26.1121 Q768.047 26.1121 772.057 30.9732 Q776.068 35.7938 776.068 45.1919 Z" fill="#000000" fill-rule="nonzero" fill-opacity="1"></path><path clip-path="url(#clip190)" d="M820.79 49.3643 Q820.79 41.2625 817.428 36.8065 Q814.106 32.3505 808.07 32.3505 Q802.075 32.3505 798.712 36.8065 Q795.391 41.2625 795.391 49.3643 Q795.391 57.4256 798.712 61.8816 Q802.075 66.3376 808.07 66.3376 Q814.106 66.3376 817.428 61.8816 Q820.79 57.4256 820.79 49.3643 M828.244 66.9452 Q828.244 78.5308 823.099 84.1616 Q817.954 89.8329 807.341 89.8329 Q803.411 89.8329 799.928 89.2252 Q796.444 88.6581 793.163 87.4428 L793.163 80.1917 Q796.444 81.9741 799.644 82.8248 Q802.844 83.6755 806.166 83.6755 Q813.498 83.6755 817.144 79.8271 Q820.79 76.0193 820.79 68.282 L820.79 64.5957 Q818.481 68.6061 814.876 70.5911 Q811.27 72.576 806.247 72.576 Q797.902 72.576 792.798 66.2161 Q787.694 59.8562 787.694 49.3643 Q787.694 38.832 792.798 32.472 Q797.902 26.1121 806.247 26.1121 Q811.27 26.1121 814.876 28.0971 Q818.481 30.082 820.79 34.0924 L820.79 27.2059 L828.244 27.2059 L828.244 66.9452 Z" fill="#000000" fill-rule="nonzero" fill-opacity="1"></path><path clip-path="url(#clip190)" d="M843.596 9.54393 L851.05 9.54393 L851.05 72.576 L843.596 72.576 L843.596 9.54393 Z" fill="#000000" fill-rule="nonzero" fill-opacity="1"></path><path clip-path="url(#clip190)" d="M905.454 48.0275 L905.454 51.6733 L871.183 51.6733 Q871.669 59.3701 875.801 63.421 Q879.974 67.4314 887.387 67.4314 Q891.681 67.4314 895.691 66.3781 Q899.742 65.3249 903.712 63.2184 L903.712 70.267 Q899.701 71.9684 895.489 72.8596 Q891.276 73.7508 886.941 73.7508 Q876.085 73.7508 869.725 67.4314 Q863.405 61.1119 863.405 50.3365 Q863.405 39.1965 869.401 32.6746 Q875.437 26.1121 885.645 26.1121 Q894.8 26.1121 900.107 32.0264 Q905.454 37.9003 905.454 48.0275 M898 45.84 Q897.919 39.7232 894.557 36.0774 Q891.235 32.4315 885.726 32.4315 Q879.487 32.4315 875.72 35.9558 Q871.993 39.4801 871.426 45.8805 L898 45.84 Z" fill="#000000" fill-rule="nonzero" fill-opacity="1"></path><path clip-path="url(#clip190)" d="M953.011 35.9153 Q955.806 30.8922 959.695 28.5022 Q963.584 26.1121 968.85 26.1121 Q975.939 26.1121 979.788 31.0947 Q983.636 36.0368 983.636 45.1919 L983.636 72.576 L976.142 72.576 L976.142 45.4349 Q976.142 38.913 973.833 35.7533 Q971.524 32.5936 966.784 32.5936 Q960.992 32.5936 957.629 36.4419 Q954.267 40.2903 954.267 46.9338 L954.267 72.576 L946.773 72.576 L946.773 45.4349 Q946.773 38.8725 944.464 35.7533 Q942.155 32.5936 937.334 32.5936 Q931.623 32.5936 928.26 36.4824 Q924.898 40.3308 924.898 46.9338 L924.898 72.576 L917.404 72.576 L917.404 27.2059 L924.898 27.2059 L924.898 34.2544 Q927.45 30.082 931.015 28.0971 Q934.58 26.1121 939.481 26.1121 Q944.423 26.1121 947.867 28.6237 Q951.35 31.1352 953.011 35.9153 Z" fill="#000000" fill-rule="nonzero" fill-opacity="1"></path><path clip-path="url(#clip190)" d="M1037.31 48.0275 L1037.31 51.6733 L1003.04 51.6733 Q1003.53 59.3701 1007.66 63.421 Q1011.83 67.4314 1019.24 67.4314 Q1023.54 67.4314 1027.55 66.3781 Q1031.6 65.3249 1035.57 63.2184 L1035.57 70.267 Q1031.56 71.9684 1027.35 72.8596 Q1023.13 73.7508 1018.8 73.7508 Q1007.94 73.7508 1001.58 67.4314 Q995.262 61.1119 995.262 50.3365 Q995.262 39.1965 1001.26 32.6746 Q1007.29 26.1121 1017.5 26.1121 Q1026.66 26.1121 1031.96 32.0264 Q1037.31 37.9003 1037.31 48.0275 M1029.86 45.84 Q1029.78 39.7232 1026.41 36.0774 Q1023.09 32.4315 1017.58 32.4315 Q1011.34 32.4315 1007.58 35.9558 Q1003.85 39.4801 1003.28 45.8805 L1029.86 45.84 Z" fill="#000000" fill-rule="nonzero" fill-opacity="1"></path><path clip-path="url(#clip190)" d="M1087.26 45.1919 L1087.26 72.576 L1079.8 72.576 L1079.8 45.4349 Q1079.8 38.994 1077.29 35.7938 Q1074.78 32.5936 1069.76 32.5936 Q1063.72 32.5936 1060.24 36.4419 Q1056.76 40.2903 1056.76 46.9338 L1056.76 72.576 L1049.26 72.576 L1049.26 27.2059 L1056.76 27.2059 L1056.76 34.2544 Q1059.43 30.163 1063.03 28.1376 Q1066.68 26.1121 1071.42 26.1121 Q1079.24 26.1121 1083.25 30.9732 Q1087.26 35.7938 1087.26 45.1919 Z" fill="#000000" fill-rule="nonzero" fill-opacity="1"></path><path clip-path="url(#clip190)" d="M1109.5 14.324 L1109.5 27.2059 L1124.85 27.2059 L1124.85 32.9987 L1109.5 32.9987 L1109.5 57.6282 Q1109.5 63.1779 1111 64.7578 Q1112.54 66.3376 1117.19 66.3376 L1124.85 66.3376 L1124.85 72.576 L1117.19 72.576 Q1108.57 72.576 1105.28 69.3758 Q1102 66.1351 1102 57.6282 L1102 32.9987 L1096.53 32.9987 L1096.53 27.2059 L1102 27.2059 L1102 14.324 L1109.5 14.324 Z" fill="#000000" fill-rule="nonzero" fill-opacity="1"></path><path clip-path="url(#clip190)" d="M1199.83 48.0275 L1199.83 51.6733 L1165.56 51.6733 Q1166.05 59.3701 1170.18 63.421 Q1174.35 67.4314 1181.77 67.4314 Q1186.06 67.4314 1190.07 66.3781 Q1194.12 65.3249 1198.09 63.2184 L1198.09 70.267 Q1194.08 71.9684 1189.87 72.8596 Q1185.65 73.7508 1181.32 73.7508 Q1170.46 73.7508 1164.1 67.4314 Q1157.78 61.1119 1157.78 50.3365 Q1157.78 39.1965 1163.78 32.6746 Q1169.82 26.1121 1180.02 26.1121 Q1189.18 26.1121 1194.49 32.0264 Q1199.83 37.9003 1199.83 48.0275 M1192.38 45.84 Q1192.3 39.7232 1188.94 36.0774 Q1185.61 32.4315 1180.11 32.4315 Q1173.87 32.4315 1170.1 35.9558 Q1166.37 39.4801 1165.81 45.8805 L1192.38 45.84 Z" fill="#000000" fill-rule="nonzero" fill-opacity="1"></path><path clip-path="url(#clip190)" d="M1249.78 45.1919 L1249.78 72.576 L1242.33 72.576 L1242.33 45.4349 Q1242.33 38.994 1239.82 35.7938 Q1237.3 32.5936 1232.28 32.5936 Q1226.24 32.5936 1222.76 36.4419 Q1219.28 40.2903 1219.28 46.9338 L1219.28 72.576 L1211.78 72.576 L1211.78 27.2059 L1219.28 27.2059 L1219.28 34.2544 Q1221.95 30.163 1225.56 28.1376 Q1229.2 26.1121 1233.94 26.1121 Q1241.76 26.1121 1245.77 30.9732 Q1249.78 35.7938 1249.78 45.1919 Z" fill="#000000" fill-rule="nonzero" fill-opacity="1"></path><path clip-path="url(#clip190)" d="M1272.02 14.324 L1272.02 27.2059 L1287.37 27.2059 L1287.37 32.9987 L1272.02 32.9987 L1272.02 57.6282 Q1272.02 63.1779 1273.52 64.7578 Q1275.06 66.3376 1279.72 66.3376 L1287.37 66.3376 L1287.37 72.576 L1279.72 72.576 Q1271.09 72.576 1267.81 69.3758 Q1264.53 66.1351 1264.53 57.6282 L1264.53 32.9987 L1259.06 32.9987 L1259.06 27.2059 L1264.53 27.2059 L1264.53 14.324 L1272.02 14.324 Z" fill="#000000" fill-rule="nonzero" fill-opacity="1"></path><path clip-path="url(#clip190)" d="M1323.47 34.1734 Q1322.21 33.4443 1320.71 33.1202 Q1319.25 32.7556 1317.47 32.7556 Q1311.15 32.7556 1307.75 36.8875 Q1304.39 40.9789 1304.39 48.6757 L1304.39 72.576 L1296.89 72.576 L1296.89 27.2059 L1304.39 27.2059 L1304.39 34.2544 Q1306.74 30.1225 1310.5 28.1376 Q1314.27 26.1121 1319.66 26.1121 Q1320.43 26.1121 1321.36 26.2337 Q1322.29 26.3147 1323.43 26.5172 L1323.47 34.1734 Z" fill="#000000" fill-rule="nonzero" fill-opacity="1"></path><path clip-path="url(#clip190)" d="M1347.04 32.4315 Q1341.05 32.4315 1337.56 37.1306 Q1334.08 41.7891 1334.08 49.9314 Q1334.08 58.0738 1337.52 62.7728 Q1341.01 67.4314 1347.04 67.4314 Q1353 67.4314 1356.48 62.7323 Q1359.97 58.0333 1359.97 49.9314 Q1359.97 41.8701 1356.48 37.1711 Q1353 32.4315 1347.04 32.4315 M1347.04 26.1121 Q1356.76 26.1121 1362.31 32.4315 Q1367.86 38.7509 1367.86 49.9314 Q1367.86 61.0714 1362.31 67.4314 Q1356.76 73.7508 1347.04 73.7508 Q1337.28 73.7508 1331.73 67.4314 Q1326.22 61.0714 1326.22 49.9314 Q1326.22 38.7509 1331.73 32.4315 Q1337.28 26.1121 1347.04 26.1121 Z" fill="#000000" fill-rule="nonzero" fill-opacity="1"></path><path clip-path="url(#clip190)" d="M1387.43 65.7705 L1387.43 89.8329 L1379.94 89.8329 L1379.94 27.2059 L1387.43 27.2059 L1387.43 34.0924 Q1389.78 30.0415 1393.34 28.0971 Q1396.95 26.1121 1401.93 26.1121 Q1410.2 26.1121 1415.34 32.6746 Q1420.53 39.2371 1420.53 49.9314 Q1420.53 60.6258 1415.34 67.1883 Q1410.2 73.7508 1401.93 73.7508 Q1396.95 73.7508 1393.34 71.8063 Q1389.78 69.8214 1387.43 65.7705 M1412.79 49.9314 Q1412.79 41.7081 1409.39 37.0496 Q1406.02 32.3505 1400.11 32.3505 Q1394.2 32.3505 1390.79 37.0496 Q1387.43 41.7081 1387.43 49.9314 Q1387.43 58.1548 1390.79 62.8538 Q1394.2 67.5124 1400.11 67.5124 Q1406.02 67.5124 1409.39 62.8538 Q1412.79 58.1548 1412.79 49.9314 Z" fill="#000000" fill-rule="nonzero" fill-opacity="1"></path><path clip-path="url(#clip190)" d="M1451.76 76.7889 Q1448.6 84.8907 1445.6 87.3618 Q1442.6 89.8329 1437.58 89.8329 L1431.63 89.8329 L1431.63 83.5945 L1436 83.5945 Q1439.08 83.5945 1440.78 82.1361 Q1442.48 80.6778 1444.55 75.2496 L1445.88 71.8468 L1427.53 27.2059 L1435.43 27.2059 L1449.61 62.6918 L1463.79 27.2059 L1471.69 27.2059 L1451.76 76.7889 Z" fill="#000000" fill-rule="nonzero" fill-opacity="1"></path><path clip-path="url(#clip190)" d="M1541 28.9478 L1541 35.9153 Q1537.84 34.1734 1534.64 33.3227 Q1531.48 32.4315 1528.24 32.4315 Q1520.99 32.4315 1516.98 37.0496 Q1512.97 41.6271 1512.97 49.9314 Q1512.97 58.2358 1516.98 62.8538 Q1520.99 67.4314 1528.24 67.4314 Q1531.48 67.4314 1534.64 66.5807 Q1537.84 65.6895 1541 63.9476 L1541 70.8341 Q1537.88 72.2924 1534.52 73.0216 Q1531.2 73.7508 1527.43 73.7508 Q1517.18 73.7508 1511.14 67.3098 Q1505.11 60.8689 1505.11 49.9314 Q1505.11 38.832 1511.19 32.472 Q1517.3 26.1121 1527.92 26.1121 Q1531.36 26.1121 1534.64 26.8413 Q1537.92 27.5299 1541 28.9478 Z" fill="#000000" fill-rule="nonzero" fill-opacity="1"></path><path clip-path="url(#clip190)" d="M1571.54 32.4315 Q1565.55 32.4315 1562.06 37.1306 Q1558.58 41.7891 1558.58 49.9314 Q1558.58 58.0738 1562.02 62.7728 Q1565.51 67.4314 1571.54 67.4314 Q1577.5 67.4314 1580.98 62.7323 Q1584.47 58.0333 1584.47 49.9314 Q1584.47 41.8701 1580.98 37.1711 Q1577.5 32.4315 1571.54 32.4315 M1571.54 26.1121 Q1581.27 26.1121 1586.82 32.4315 Q1592.37 38.7509 1592.37 49.9314 Q1592.37 61.0714 1586.82 67.4314 Q1581.27 73.7508 1571.54 73.7508 Q1561.78 73.7508 1556.23 67.4314 Q1550.72 61.0714 1550.72 49.9314 Q1550.72 38.7509 1556.23 32.4315 Q1561.78 26.1121 1571.54 26.1121 Z" fill="#000000" fill-rule="nonzero" fill-opacity="1"></path><path clip-path="url(#clip190)" d="M1640.04 35.9153 Q1642.84 30.8922 1646.73 28.5022 Q1650.62 26.1121 1655.88 26.1121 Q1662.97 26.1121 1666.82 31.0947 Q1670.67 36.0368 1670.67 45.1919 L1670.67 72.576 L1663.18 72.576 L1663.18 45.4349 Q1663.18 38.913 1660.87 35.7533 Q1658.56 32.5936 1653.82 32.5936 Q1648.03 32.5936 1644.66 36.4419 Q1641.3 40.2903 1641.3 46.9338 L1641.3 72.576 L1633.81 72.576 L1633.81 45.4349 Q1633.81 38.8725 1631.5 35.7533 Q1629.19 32.5936 1624.37 32.5936 Q1618.66 32.5936 1615.29 36.4824 Q1611.93 40.3308 1611.93 46.9338 L1611.93 72.576 L1604.44 72.576 L1604.44 27.2059 L1611.93 27.2059 L1611.93 34.2544 Q1614.48 30.082 1618.05 28.0971 Q1621.61 26.1121 1626.51 26.1121 Q1631.46 26.1121 1634.9 28.6237 Q1638.38 31.1352 1640.04 35.9153 Z" fill="#000000" fill-rule="nonzero" fill-opacity="1"></path><path clip-path="url(#clip190)" d="M1692.75 65.7705 L1692.75 89.8329 L1685.25 89.8329 L1685.25 27.2059 L1692.75 27.2059 L1692.75 34.0924 Q1695.1 30.0415 1698.66 28.0971 Q1702.27 26.1121 1707.25 26.1121 Q1715.51 26.1121 1720.66 32.6746 Q1725.84 39.2371 1725.84 49.9314 Q1725.84 60.6258 1720.66 67.1883 Q1715.51 73.7508 1707.25 73.7508 Q1702.27 73.7508 1698.66 71.8063 Q1695.1 69.8214 1692.75 65.7705 M1718.11 49.9314 Q1718.11 41.7081 1714.7 37.0496 Q1711.34 32.3505 1705.43 32.3505 Q1699.51 32.3505 1696.11 37.0496 Q1692.75 41.7081 1692.75 49.9314 Q1692.75 58.1548 1696.11 62.8538 Q1699.51 67.5124 1705.43 67.5124 Q1711.34 67.5124 1714.7 62.8538 Q1718.11 58.1548 1718.11 49.9314 Z" fill="#000000" fill-rule="nonzero" fill-opacity="1"></path><path clip-path="url(#clip190)" d="M1758.82 49.7694 Q1749.78 49.7694 1746.3 51.8354 Q1742.82 53.9013 1742.82 58.8839 Q1742.82 62.8538 1745.41 65.2034 Q1748.04 67.5124 1752.54 67.5124 Q1758.74 67.5124 1762.46 63.1374 Q1766.23 58.7219 1766.23 51.4303 L1766.23 49.7694 L1758.82 49.7694 M1773.68 46.6907 L1773.68 72.576 L1766.23 72.576 L1766.23 65.6895 Q1763.68 69.8214 1759.87 71.8063 Q1756.06 73.7508 1750.55 73.7508 Q1743.59 73.7508 1739.45 69.8619 Q1735.36 65.9325 1735.36 59.3701 Q1735.36 51.7138 1740.47 47.825 Q1745.61 43.9361 1755.78 43.9361 L1766.23 43.9361 L1766.23 43.2069 Q1766.23 38.0623 1762.83 35.2672 Q1759.47 32.4315 1753.35 32.4315 Q1749.46 32.4315 1745.77 33.3632 Q1742.09 34.295 1738.68 36.1584 L1738.68 29.2718 Q1742.78 27.692 1746.62 26.9223 Q1750.47 26.1121 1754.12 26.1121 Q1763.96 26.1121 1768.82 31.2163 Q1773.68 36.3204 1773.68 46.6907 Z" fill="#000000" fill-rule="nonzero" fill-opacity="1"></path><path clip-path="url(#clip190)" d="M1815.33 34.1734 Q1814.07 33.4443 1812.57 33.1202 Q1811.11 32.7556 1809.33 32.7556 Q1803.01 32.7556 1799.61 36.8875 Q1796.25 40.9789 1796.25 48.6757 L1796.25 72.576 L1788.75 72.576 L1788.75 27.2059 L1796.25 27.2059 L1796.25 34.2544 Q1798.6 30.1225 1802.36 28.1376 Q1806.13 26.1121 1811.52 26.1121 Q1812.29 26.1121 1813.22 26.2337 Q1814.15 26.3147 1815.29 26.5172 L1815.33 34.1734 Z" fill="#000000" fill-rule="nonzero" fill-opacity="1"></path><path clip-path="url(#clip190)" d="M1823.15 27.2059 L1830.6 27.2059 L1830.6 72.576 L1823.15 72.576 L1823.15 27.2059 M1823.15 9.54393 L1830.6 9.54393 L1830.6 18.9825 L1823.15 18.9825 L1823.15 9.54393 Z" fill="#000000" fill-rule="nonzero" fill-opacity="1"></path><path clip-path="url(#clip190)" d="M1875.12 28.5427 L1875.12 35.5912 Q1871.96 33.9709 1868.56 33.1607 Q1865.15 32.3505 1861.51 32.3505 Q1855.96 32.3505 1853.16 34.0519 Q1850.41 35.7533 1850.41 39.156 Q1850.41 41.7486 1852.39 43.2475 Q1854.38 44.7058 1860.37 46.0426 L1862.93 46.6097 Q1870.87 48.3111 1874.19 51.4303 Q1877.55 54.509 1877.55 60.0587 Q1877.55 66.3781 1872.53 70.0644 Q1867.54 73.7508 1858.79 73.7508 Q1855.15 73.7508 1851.18 73.0216 Q1847.25 72.3329 1842.87 70.9151 L1842.87 63.2184 Q1847.01 65.3654 1851.02 66.4591 Q1855.03 67.5124 1858.96 67.5124 Q1864.22 67.5124 1867.06 65.73 Q1869.89 63.9071 1869.89 60.6258 Q1869.89 57.5877 1867.83 55.9673 Q1865.8 54.3469 1858.87 52.8481 L1856.28 52.2405 Q1849.35 50.7821 1846.28 47.7845 Q1843.2 44.7463 1843.2 39.4801 Q1843.2 33.0797 1847.73 29.5959 Q1852.27 26.1121 1860.62 26.1121 Q1864.75 26.1121 1868.39 26.7198 Q1872.04 27.3274 1875.12 28.5427 Z" fill="#000000" fill-rule="nonzero" fill-opacity="1"></path><path clip-path="url(#clip190)" d="M1907 32.4315 Q1901 32.4315 1897.52 37.1306 Q1894.04 41.7891 1894.04 49.9314 Q1894.04 58.0738 1897.48 62.7728 Q1900.96 67.4314 1907 67.4314 Q1912.95 67.4314 1916.44 62.7323 Q1919.92 58.0333 1919.92 49.9314 Q1919.92 41.8701 1916.44 37.1711 Q1912.95 32.4315 1907 32.4315 M1907 26.1121 Q1916.72 26.1121 1922.27 32.4315 Q1927.82 38.7509 1927.82 49.9314 Q1927.82 61.0714 1922.27 67.4314 Q1916.72 73.7508 1907 73.7508 Q1897.24 73.7508 1891.69 67.4314 Q1886.18 61.0714 1886.18 49.9314 Q1886.18 38.7509 1891.69 32.4315 Q1897.24 26.1121 1907 26.1121 Z" fill="#000000" fill-rule="nonzero" fill-opacity="1"></path><path clip-path="url(#clip190)" d="M1977.89 45.1919 L1977.89 72.576 L1970.44 72.576 L1970.44 45.4349 Q1970.44 38.994 1967.92 35.7938 Q1965.41 32.5936 1960.39 32.5936 Q1954.35 32.5936 1950.87 36.4419 Q1947.39 40.2903 1947.39 46.9338 L1947.39 72.576 L1939.89 72.576 L1939.89 27.2059 L1947.39 27.2059 L1947.39 34.2544 Q1950.06 30.163 1953.67 28.1376 Q1957.31 26.1121 1962.05 26.1121 Q1969.87 26.1121 1973.88 30.9732 Q1977.89 35.7938 1977.89 45.1919 Z" fill="#000000" fill-rule="nonzero" fill-opacity="1"></path><polyline clip-path="url(#clip192)" style="stroke:#009af9; stroke-linecap:round; stroke-linejoin:round; stroke-width:10; stroke-opacity:1; fill:none" points="237.067,1239.84 303.327,1007.57 369.588,819.761 435.848,631.954 502.108,498.623 568.368,365.292 634.629,284.615 700.889,247.528 767.149,232.143 833.409,223.165 899.669,212.106 965.93,201.182 1032.19,199.9 1098.45,196.69 1164.71,194.053 1230.97,190.95 1297.23,191.874 1363.49,193.067 1429.75,192.328 1496.01,191.887 1562.27,194.16 1628.53,196.435 1694.79,196.59 1761.05,196.047 1827.31,199.246 1893.57,203.218 1959.83,204.731 2026.09,204.661 2092.35,207.762 2158.61,212.172 2224.87,213.509 2291.13,214.045 "></polyline>
<polyline clip-path="url(#clip192)" style="stroke:#e26f46; stroke-linecap:round; stroke-linejoin:round; stroke-width:10; stroke-opacity:1; fill:none" points="237.067,1386.4 303.327,1300.68 369.588,1244.96 435.848,1189.24 502.108,1146.5 568.368,1103.76 634.629,1064.29 700.889,1025.49 767.149,986.415 833.409,948.914 899.669,904.566 965.93,862.822 1032.19,798.556 1098.45,738.354 1164.71,575.413 1230.97,423.12 1297.23,330.494 1363.49,261.234 1429.75,242.233 1496.01,228.465 1562.27,219.577 1628.53,212.57 1694.79,204.948 1761.05,201.454 1827.31,194.587 1893.57,192.626 1959.83,185.739 2026.09,180.86 2092.35,174.605 2158.61,167.538 2224.87,166.222 2291.13,160.256 "></polyline>
<polyline clip-path="url(#clip192)" style="stroke:#3da44d; stroke-linecap:round; stroke-linejoin:round; stroke-width:10; stroke-opacity:1; fill:none" points="237.067,1386.4 303.327,1179.82 369.588,1097.9 435.848,895.113 502.108,840.886 568.368,773.279 634.629,721.047 700.889,663.319 767.149,634.562 833.409,601.913 899.669,590.023 965.93,561.46 1032.19,541.595 1098.45,520.607 1164.71,511.55 1230.97,493.668 1297.23,476.307 1363.49,458.819 1429.75,450.57 1496.01,438.756 1562.27,416.208 1628.53,406.454 1694.79,392.212 1761.05,382.646 1827.31,349.767 1893.57,340.199 1959.83,313.806 2026.09,306.072 2092.35,219.762 2158.61,205.601 2224.87,160.694 2291.13,169.278 "></polyline>
<path clip-path="url(#clip190)" d="M1670.88 1379.86 L2280.18 1379.86 L2280.18 1172.5 L1670.88 1172.5  Z" fill="#ffffff" fill-rule="evenodd" fill-opacity="1"></path>
<polyline clip-path="url(#clip190)" style="stroke:#000000; stroke-linecap:round; stroke-linejoin:round; stroke-width:4; stroke-opacity:1; fill:none" points="1670.88,1379.86 2280.18,1379.86 2280.18,1172.5 1670.88,1172.5 1670.88,1379.86 "></polyline>
<polyline clip-path="url(#clip190)" style="stroke:#009af9; stroke-linecap:round; stroke-linejoin:round; stroke-width:10; stroke-opacity:1; fill:none" points="1695.07,1224.34 1840.22,1224.34 "></polyline>
<path clip-path="url(#clip190)" d="M1886.66 1208.19 L1886.66 1212.75 Q1884 1211.48 1881.64 1210.85 Q1879.28 1210.23 1877.08 1210.23 Q1873.26 1210.23 1871.17 1211.71 Q1869.11 1213.19 1869.11 1215.92 Q1869.11 1218.21 1870.48 1219.39 Q1871.87 1220.55 1875.71 1221.27 L1878.53 1221.85 Q1883.77 1222.84 1886.24 1225.37 Q1888.74 1227.87 1888.74 1232.08 Q1888.74 1237.1 1885.36 1239.69 Q1882.01 1242.29 1875.5 1242.29 Q1873.05 1242.29 1870.27 1241.73 Q1867.52 1241.18 1864.55 1240.09 L1864.55 1235.27 Q1867.4 1236.87 1870.13 1237.68 Q1872.86 1238.49 1875.5 1238.49 Q1879.51 1238.49 1881.68 1236.92 Q1883.86 1235.34 1883.86 1232.43 Q1883.86 1229.88 1882.28 1228.45 Q1880.73 1227.01 1877.17 1226.29 L1874.32 1225.74 Q1869.09 1224.7 1866.75 1222.47 Q1864.41 1220.25 1864.41 1216.29 Q1864.41 1211.71 1867.63 1209.07 Q1870.87 1206.43 1876.54 1206.43 Q1878.97 1206.43 1881.5 1206.87 Q1884.02 1207.31 1886.66 1208.19 Z" fill="#000000" fill-rule="nonzero" fill-opacity="1"></path><path clip-path="url(#clip190)" d="M1900.06 1208.33 L1900.06 1215.69 L1908.84 1215.69 L1908.84 1219 L1900.06 1219 L1900.06 1233.07 Q1900.06 1236.25 1900.92 1237.15 Q1901.8 1238.05 1904.46 1238.05 L1908.84 1238.05 L1908.84 1241.62 L1904.46 1241.62 Q1899.53 1241.62 1897.66 1239.79 Q1895.78 1237.94 1895.78 1233.07 L1895.78 1219 L1892.66 1219 L1892.66 1215.69 L1895.78 1215.69 L1895.78 1208.33 L1900.06 1208.33 Z" fill="#000000" fill-rule="nonzero" fill-opacity="1"></path><path clip-path="url(#clip190)" d="M1926.22 1228.58 Q1921.06 1228.58 1919.07 1229.76 Q1917.08 1230.95 1917.08 1233.79 Q1917.08 1236.06 1918.56 1237.4 Q1920.06 1238.72 1922.63 1238.72 Q1926.17 1238.72 1928.3 1236.22 Q1930.46 1233.7 1930.46 1229.53 L1930.46 1228.58 L1926.22 1228.58 M1934.72 1226.82 L1934.72 1241.62 L1930.46 1241.62 L1930.46 1237.68 Q1929 1240.04 1926.82 1241.18 Q1924.65 1242.29 1921.5 1242.29 Q1917.52 1242.29 1915.16 1240.07 Q1912.82 1237.82 1912.82 1234.07 Q1912.82 1229.7 1915.73 1227.47 Q1918.67 1225.25 1924.48 1225.25 L1930.46 1225.25 L1930.46 1224.83 Q1930.46 1221.89 1928.51 1220.3 Q1926.59 1218.68 1923.09 1218.68 Q1920.87 1218.68 1918.77 1219.21 Q1916.66 1219.74 1914.72 1220.81 L1914.72 1216.87 Q1917.05 1215.97 1919.25 1215.53 Q1921.45 1215.07 1923.53 1215.07 Q1929.16 1215.07 1931.94 1217.98 Q1934.72 1220.9 1934.72 1226.82 Z" fill="#000000" fill-rule="nonzero" fill-opacity="1"></path><path clip-path="url(#clip190)" d="M1965.04 1225.97 L1965.04 1241.62 L1960.78 1241.62 L1960.78 1226.11 Q1960.78 1222.43 1959.34 1220.6 Q1957.91 1218.77 1955.04 1218.77 Q1951.59 1218.77 1949.6 1220.97 Q1947.61 1223.17 1947.61 1226.96 L1947.61 1241.62 L1943.33 1241.62 L1943.33 1215.69 L1947.61 1215.69 L1947.61 1219.72 Q1949.14 1217.38 1951.2 1216.22 Q1953.28 1215.07 1955.99 1215.07 Q1960.46 1215.07 1962.75 1217.84 Q1965.04 1220.6 1965.04 1225.97 Z" fill="#000000" fill-rule="nonzero" fill-opacity="1"></path><path clip-path="url(#clip190)" d="M1990.59 1219.63 L1990.59 1205.6 L1994.85 1205.6 L1994.85 1241.62 L1990.59 1241.62 L1990.59 1237.73 Q1989.25 1240.04 1987.19 1241.18 Q1985.15 1242.29 1982.28 1242.29 Q1977.59 1242.29 1974.62 1238.54 Q1971.68 1234.79 1971.68 1228.68 Q1971.68 1222.57 1974.62 1218.82 Q1977.59 1215.07 1982.28 1215.07 Q1985.15 1215.07 1987.19 1216.2 Q1989.25 1217.31 1990.59 1219.63 M1976.08 1228.68 Q1976.08 1233.38 1978 1236.06 Q1979.95 1238.72 1983.33 1238.72 Q1986.71 1238.72 1988.65 1236.06 Q1990.59 1233.38 1990.59 1228.68 Q1990.59 1223.98 1988.65 1221.32 Q1986.71 1218.63 1983.33 1218.63 Q1979.95 1218.63 1978 1221.32 Q1976.08 1223.98 1976.08 1228.68 Z" fill="#000000" fill-rule="nonzero" fill-opacity="1"></path><path clip-path="url(#clip190)" d="M2015.41 1228.58 Q2010.25 1228.58 2008.26 1229.76 Q2006.27 1230.95 2006.27 1233.79 Q2006.27 1236.06 2007.75 1237.4 Q2009.25 1238.72 2011.82 1238.72 Q2015.36 1238.72 2017.49 1236.22 Q2019.65 1233.7 2019.65 1229.53 L2019.65 1228.58 L2015.41 1228.58 M2023.9 1226.82 L2023.9 1241.62 L2019.65 1241.62 L2019.65 1237.68 Q2018.19 1240.04 2016.01 1241.18 Q2013.84 1242.29 2010.69 1242.29 Q2006.71 1242.29 2004.34 1240.07 Q2002.01 1237.82 2002.01 1234.07 Q2002.01 1229.7 2004.92 1227.47 Q2007.86 1225.25 2013.67 1225.25 L2019.65 1225.25 L2019.65 1224.83 Q2019.65 1221.89 2017.7 1220.3 Q2015.78 1218.68 2012.28 1218.68 Q2010.06 1218.68 2007.96 1219.21 Q2005.85 1219.74 2003.9 1220.81 L2003.9 1216.87 Q2006.24 1215.97 2008.44 1215.53 Q2010.64 1215.07 2012.72 1215.07 Q2018.35 1215.07 2021.13 1217.98 Q2023.9 1220.9 2023.9 1226.82 Z" fill="#000000" fill-rule="nonzero" fill-opacity="1"></path><path clip-path="url(#clip190)" d="M2047.7 1219.67 Q2046.98 1219.26 2046.13 1219.07 Q2045.29 1218.86 2044.27 1218.86 Q2040.66 1218.86 2038.72 1221.22 Q2036.8 1223.56 2036.8 1227.96 L2036.8 1241.62 L2032.52 1241.62 L2032.52 1215.69 L2036.8 1215.69 L2036.8 1219.72 Q2038.14 1217.36 2040.29 1216.22 Q2042.45 1215.07 2045.52 1215.07 Q2045.96 1215.07 2046.5 1215.13 Q2047.03 1215.18 2047.68 1215.3 L2047.7 1219.67 Z" fill="#000000" fill-rule="nonzero" fill-opacity="1"></path><path clip-path="url(#clip190)" d="M2068.39 1219.63 L2068.39 1205.6 L2072.65 1205.6 L2072.65 1241.62 L2068.39 1241.62 L2068.39 1237.73 Q2067.05 1240.04 2064.99 1241.18 Q2062.96 1242.29 2060.08 1242.29 Q2055.39 1242.29 2052.42 1238.54 Q2049.48 1234.79 2049.48 1228.68 Q2049.48 1222.57 2052.42 1218.82 Q2055.39 1215.07 2060.08 1215.07 Q2062.96 1215.07 2064.99 1216.2 Q2067.05 1217.31 2068.39 1219.63 M2053.88 1228.68 Q2053.88 1233.38 2055.8 1236.06 Q2057.75 1238.72 2061.13 1238.72 Q2064.51 1238.72 2066.45 1236.06 Q2068.39 1233.38 2068.39 1228.68 Q2068.39 1223.98 2066.45 1221.32 Q2064.51 1218.63 2061.13 1218.63 Q2057.75 1218.63 2055.8 1221.32 Q2053.88 1223.98 2053.88 1228.68 Z" fill="#000000" fill-rule="nonzero" fill-opacity="1"></path><polyline clip-path="url(#clip190)" style="stroke:#e26f46; stroke-linecap:round; stroke-linejoin:round; stroke-width:10; stroke-opacity:1; fill:none" points="1695.07,1276.18 1840.22,1276.18 "></polyline>
<path clip-path="url(#clip190)" d="M1864.41 1258.9 L1869.14 1258.9 L1876.41 1288.11 L1883.65 1258.9 L1888.91 1258.9 L1896.17 1288.11 L1903.42 1258.9 L1908.16 1258.9 L1899.48 1293.46 L1893.6 1293.46 L1886.31 1263.46 L1878.95 1293.46 L1873.07 1293.46 L1864.41 1258.9 Z" fill="#000000" fill-rule="nonzero" fill-opacity="1"></path><path clip-path="url(#clip190)" d="M1922.93 1280.42 Q1917.77 1280.42 1915.78 1281.6 Q1913.79 1282.79 1913.79 1285.63 Q1913.79 1287.9 1915.27 1289.24 Q1916.78 1290.56 1919.34 1290.56 Q1922.89 1290.56 1925.02 1288.06 Q1927.17 1285.54 1927.17 1281.37 L1927.17 1280.42 L1922.93 1280.42 M1931.43 1278.66 L1931.43 1293.46 L1927.17 1293.46 L1927.17 1289.52 Q1925.71 1291.88 1923.53 1293.02 Q1921.36 1294.13 1918.21 1294.13 Q1914.23 1294.13 1911.87 1291.91 Q1909.53 1289.66 1909.53 1285.91 Q1909.53 1281.54 1912.45 1279.31 Q1915.39 1277.09 1921.2 1277.09 L1927.17 1277.09 L1927.17 1276.67 Q1927.17 1273.73 1925.22 1272.14 Q1923.3 1270.52 1919.81 1270.52 Q1917.59 1270.52 1915.48 1271.05 Q1913.37 1271.58 1911.43 1272.65 L1911.43 1268.71 Q1913.77 1267.81 1915.97 1267.37 Q1918.16 1266.91 1920.25 1266.91 Q1925.87 1266.91 1928.65 1269.82 Q1931.43 1272.74 1931.43 1278.66 Z" fill="#000000" fill-rule="nonzero" fill-opacity="1"></path><path clip-path="url(#clip190)" d="M1961.75 1277.81 L1961.75 1293.46 L1957.49 1293.46 L1957.49 1277.95 Q1957.49 1274.27 1956.06 1272.44 Q1954.62 1270.61 1951.75 1270.61 Q1948.3 1270.61 1946.31 1272.81 Q1944.32 1275.01 1944.32 1278.8 L1944.32 1293.46 L1940.04 1293.46 L1940.04 1267.53 L1944.32 1267.53 L1944.32 1271.56 Q1945.85 1269.22 1947.91 1268.06 Q1949.99 1266.91 1952.7 1266.91 Q1957.17 1266.91 1959.46 1269.68 Q1961.75 1272.44 1961.75 1277.81 Z" fill="#000000" fill-rule="nonzero" fill-opacity="1"></path><path clip-path="url(#clip190)" d="M1991.8 1277.81 L1991.8 1293.46 L1987.54 1293.46 L1987.54 1277.95 Q1987.54 1274.27 1986.1 1272.44 Q1984.67 1270.61 1981.8 1270.61 Q1978.35 1270.61 1976.36 1272.81 Q1974.37 1275.01 1974.37 1278.8 L1974.37 1293.46 L1970.09 1293.46 L1970.09 1267.53 L1974.37 1267.53 L1974.37 1271.56 Q1975.9 1269.22 1977.96 1268.06 Q1980.04 1266.91 1982.75 1266.91 Q1987.21 1266.91 1989.51 1269.68 Q1991.8 1272.44 1991.8 1277.81 Z" fill="#000000" fill-rule="nonzero" fill-opacity="1"></path><path clip-path="url(#clip190)" d="M2000.29 1267.53 L2004.55 1267.53 L2004.55 1293.46 L2000.29 1293.46 L2000.29 1267.53 M2000.29 1257.44 L2004.55 1257.44 L2004.55 1262.83 L2000.29 1262.83 L2000.29 1257.44 Z" fill="#000000" fill-rule="nonzero" fill-opacity="1"></path><path clip-path="url(#clip190)" d="M2035.64 1279.43 L2035.64 1281.51 L2016.06 1281.51 Q2016.34 1285.91 2018.7 1288.22 Q2021.08 1290.52 2025.32 1290.52 Q2027.77 1290.52 2030.06 1289.91 Q2032.38 1289.31 2034.65 1288.11 L2034.65 1292.14 Q2032.35 1293.11 2029.95 1293.62 Q2027.54 1294.13 2025.06 1294.13 Q2018.86 1294.13 2015.22 1290.52 Q2011.61 1286.91 2011.61 1280.75 Q2011.61 1274.38 2015.04 1270.66 Q2018.49 1266.91 2024.32 1266.91 Q2029.55 1266.91 2032.58 1270.29 Q2035.64 1273.64 2035.64 1279.43 M2031.38 1278.18 Q2031.33 1274.68 2029.41 1272.6 Q2027.52 1270.52 2024.37 1270.52 Q2020.8 1270.52 2018.65 1272.53 Q2016.52 1274.54 2016.2 1278.2 L2031.38 1278.18 Z" fill="#000000" fill-rule="nonzero" fill-opacity="1"></path><path clip-path="url(#clip190)" d="M2057.65 1271.51 Q2056.94 1271.1 2056.08 1270.91 Q2055.25 1270.7 2054.23 1270.7 Q2050.62 1270.7 2048.67 1273.06 Q2046.75 1275.4 2046.75 1279.8 L2046.75 1293.46 L2042.47 1293.46 L2042.47 1267.53 L2046.75 1267.53 L2046.75 1271.56 Q2048.09 1269.2 2050.25 1268.06 Q2052.4 1266.91 2055.48 1266.91 Q2055.92 1266.91 2056.45 1266.97 Q2056.98 1267.02 2057.63 1267.14 L2057.65 1271.51 Z" fill="#000000" fill-rule="nonzero" fill-opacity="1"></path><path clip-path="url(#clip190)" d="M2091.4 1262.07 Q2086.31 1262.07 2083.3 1265.86 Q2080.32 1269.66 2080.32 1276.21 Q2080.32 1282.74 2083.3 1286.53 Q2086.31 1290.33 2091.4 1290.33 Q2096.5 1290.33 2099.46 1286.53 Q2102.45 1282.74 2102.45 1276.21 Q2102.45 1269.66 2099.46 1265.86 Q2096.5 1262.07 2091.4 1262.07 M2091.4 1258.27 Q2098.67 1258.27 2103.02 1263.16 Q2107.38 1268.02 2107.38 1276.21 Q2107.38 1284.38 2103.02 1289.27 Q2098.67 1294.13 2091.4 1294.13 Q2084.11 1294.13 2079.74 1289.27 Q2075.39 1284.41 2075.39 1276.21 Q2075.39 1268.02 2079.74 1263.16 Q2084.11 1258.27 2091.4 1258.27 Z" fill="#000000" fill-rule="nonzero" fill-opacity="1"></path><path clip-path="url(#clip190)" d="M2129.53 1271.51 Q2128.81 1271.1 2127.95 1270.91 Q2127.12 1270.7 2126.1 1270.7 Q2122.49 1270.7 2120.55 1273.06 Q2118.63 1275.4 2118.63 1279.8 L2118.63 1293.46 L2114.34 1293.46 L2114.34 1267.53 L2118.63 1267.53 L2118.63 1271.56 Q2119.97 1269.2 2122.12 1268.06 Q2124.27 1266.91 2127.35 1266.91 Q2127.79 1266.91 2128.33 1266.97 Q2128.86 1267.02 2129.51 1267.14 L2129.53 1271.51 Z" fill="#000000" fill-rule="nonzero" fill-opacity="1"></path><path clip-path="url(#clip190)" d="M2152.61 1280.52 Q2152.61 1275.82 2150.66 1273.16 Q2148.74 1270.47 2145.36 1270.47 Q2141.98 1270.47 2140.04 1273.16 Q2138.12 1275.82 2138.12 1280.52 Q2138.12 1285.22 2140.04 1287.9 Q2141.98 1290.56 2145.36 1290.56 Q2148.74 1290.56 2150.66 1287.9 Q2152.61 1285.22 2152.61 1280.52 M2138.12 1271.47 Q2139.46 1269.15 2141.5 1268.04 Q2143.56 1266.91 2146.4 1266.91 Q2151.13 1266.91 2154.07 1270.66 Q2157.03 1274.41 2157.03 1280.52 Q2157.03 1286.63 2154.07 1290.38 Q2151.13 1294.13 2146.4 1294.13 Q2143.56 1294.13 2141.5 1293.02 Q2139.46 1291.88 2138.12 1289.57 L2138.12 1293.46 L2133.83 1293.46 L2133.83 1257.44 L2138.12 1257.44 L2138.12 1271.47 Z" fill="#000000" fill-rule="nonzero" fill-opacity="1"></path><path clip-path="url(#clip190)" d="M2164.09 1267.53 L2168.35 1267.53 L2168.35 1293.46 L2164.09 1293.46 L2164.09 1267.53 M2164.09 1257.44 L2168.35 1257.44 L2168.35 1262.83 L2164.09 1262.83 L2164.09 1257.44 Z" fill="#000000" fill-rule="nonzero" fill-opacity="1"></path><path clip-path="url(#clip190)" d="M2181.47 1260.17 L2181.47 1267.53 L2190.25 1267.53 L2190.25 1270.84 L2181.47 1270.84 L2181.47 1284.91 Q2181.47 1288.09 2182.33 1288.99 Q2183.21 1289.89 2185.87 1289.89 L2190.25 1289.89 L2190.25 1293.46 L2185.87 1293.46 Q2180.94 1293.46 2179.07 1291.63 Q2177.19 1289.78 2177.19 1284.91 L2177.19 1270.84 L2174.07 1270.84 L2174.07 1267.53 L2177.19 1267.53 L2177.19 1260.17 L2181.47 1260.17 Z" fill="#000000" fill-rule="nonzero" fill-opacity="1"></path><path clip-path="url(#clip190)" d="M2207.63 1280.42 Q2202.47 1280.42 2200.48 1281.6 Q2198.49 1282.79 2198.49 1285.63 Q2198.49 1287.9 2199.97 1289.24 Q2201.47 1290.56 2204.04 1290.56 Q2207.58 1290.56 2209.71 1288.06 Q2211.87 1285.54 2211.87 1281.37 L2211.87 1280.42 L2207.63 1280.42 M2216.13 1278.66 L2216.13 1293.46 L2211.87 1293.46 L2211.87 1289.52 Q2210.41 1291.88 2208.23 1293.02 Q2206.06 1294.13 2202.91 1294.13 Q2198.93 1294.13 2196.57 1291.91 Q2194.23 1289.66 2194.23 1285.91 Q2194.23 1281.54 2197.14 1279.31 Q2200.08 1277.09 2205.89 1277.09 L2211.87 1277.09 L2211.87 1276.67 Q2211.87 1273.73 2209.92 1272.14 Q2208 1270.52 2204.51 1270.52 Q2202.28 1270.52 2200.18 1271.05 Q2198.07 1271.58 2196.13 1272.65 L2196.13 1268.71 Q2198.46 1267.81 2200.66 1267.37 Q2202.86 1266.91 2204.95 1266.91 Q2210.57 1266.91 2213.35 1269.82 Q2216.13 1272.74 2216.13 1278.66 Z" fill="#000000" fill-rule="nonzero" fill-opacity="1"></path><path clip-path="url(#clip190)" d="M2224.9 1257.44 L2229.16 1257.44 L2229.16 1293.46 L2224.9 1293.46 L2224.9 1257.44 Z" fill="#000000" fill-rule="nonzero" fill-opacity="1"></path><path clip-path="url(#clip190)" d="M2254.6 1268.29 L2254.6 1272.32 Q2252.79 1271.4 2250.85 1270.93 Q2248.9 1270.47 2246.82 1270.47 Q2243.65 1270.47 2242.05 1271.44 Q2240.48 1272.41 2240.48 1274.36 Q2240.48 1275.84 2241.61 1276.7 Q2242.75 1277.53 2246.17 1278.29 L2247.63 1278.62 Q2252.17 1279.59 2254.07 1281.37 Q2255.99 1283.13 2255.99 1286.3 Q2255.99 1289.91 2253.12 1292.02 Q2250.27 1294.13 2245.27 1294.13 Q2243.19 1294.13 2240.92 1293.71 Q2238.67 1293.32 2236.17 1292.51 L2236.17 1288.11 Q2238.53 1289.34 2240.82 1289.96 Q2243.12 1290.56 2245.36 1290.56 Q2248.37 1290.56 2249.99 1289.54 Q2251.61 1288.5 2251.61 1286.63 Q2251.61 1284.89 2250.43 1283.97 Q2249.27 1283.04 2245.32 1282.18 L2243.83 1281.84 Q2239.88 1281 2238.12 1279.29 Q2236.36 1277.55 2236.36 1274.54 Q2236.36 1270.89 2238.95 1268.9 Q2241.54 1266.91 2246.31 1266.91 Q2248.67 1266.91 2250.76 1267.25 Q2252.84 1267.6 2254.6 1268.29 Z" fill="#000000" fill-rule="nonzero" fill-opacity="1"></path><polyline clip-path="url(#clip190)" style="stroke:#3da44d; stroke-linecap:round; stroke-linejoin:round; stroke-width:10; stroke-opacity:1; fill:none" points="1695.07,1328.02 1840.22,1328.02 "></polyline>
<path clip-path="url(#clip190)" d="M1864.41 1310.74 L1869.09 1310.74 L1869.09 1341.36 L1885.92 1341.36 L1885.92 1345.3 L1864.41 1345.3 L1864.41 1310.74 Z" fill="#000000" fill-rule="nonzero" fill-opacity="1"></path><path clip-path="url(#clip190)" d="M1911.98 1331.27 L1911.98 1333.35 L1892.4 1333.35 Q1892.68 1337.75 1895.04 1340.06 Q1897.42 1342.36 1901.66 1342.36 Q1904.11 1342.36 1906.41 1341.75 Q1908.72 1341.15 1910.99 1339.95 L1910.99 1343.98 Q1908.7 1344.95 1906.29 1345.46 Q1903.88 1345.97 1901.41 1345.97 Q1895.2 1345.97 1891.57 1342.36 Q1887.96 1338.75 1887.96 1332.59 Q1887.96 1326.22 1891.38 1322.5 Q1894.83 1318.75 1900.66 1318.75 Q1905.9 1318.75 1908.93 1322.13 Q1911.98 1325.48 1911.98 1331.27 M1907.72 1330.02 Q1907.68 1326.52 1905.76 1324.44 Q1903.86 1322.36 1900.71 1322.36 Q1897.15 1322.36 1894.99 1324.37 Q1892.86 1326.38 1892.54 1330.04 L1907.72 1330.02 Z" fill="#000000" fill-rule="nonzero" fill-opacity="1"></path><path clip-path="url(#clip190)" d="M1932.1 1309.28 L1932.1 1312.82 L1928.03 1312.82 Q1925.73 1312.82 1924.83 1313.75 Q1923.95 1314.67 1923.95 1317.08 L1923.95 1319.37 L1930.97 1319.37 L1930.97 1322.68 L1923.95 1322.68 L1923.95 1345.3 L1919.67 1345.3 L1919.67 1322.68 L1915.59 1322.68 L1915.59 1319.37 L1919.67 1319.37 L1919.67 1317.56 Q1919.67 1313.24 1921.68 1311.27 Q1923.7 1309.28 1928.07 1309.28 L1932.1 1309.28 Z" fill="#000000" fill-rule="nonzero" fill-opacity="1"></path><path clip-path="url(#clip190)" d="M1939.04 1312.01 L1939.04 1319.37 L1947.82 1319.37 L1947.82 1322.68 L1939.04 1322.68 L1939.04 1336.75 Q1939.04 1339.93 1939.9 1340.83 Q1940.78 1341.73 1943.44 1341.73 L1947.82 1341.73 L1947.82 1345.3 L1943.44 1345.3 Q1938.51 1345.3 1936.64 1343.47 Q1934.76 1341.62 1934.76 1336.75 L1934.76 1322.68 L1931.64 1322.68 L1931.64 1319.37 L1934.76 1319.37 L1934.76 1312.01 L1939.04 1312.01 Z" fill="#000000" fill-rule="nonzero" fill-opacity="1"></path><path clip-path="url(#clip190)" d="M1988.67 1324.35 Q1990.27 1321.48 1992.49 1320.11 Q1994.71 1318.75 1997.72 1318.75 Q2001.77 1318.75 2003.97 1321.59 Q2006.17 1324.42 2006.17 1329.65 L2006.17 1345.3 L2001.89 1345.3 L2001.89 1329.79 Q2001.89 1326.06 2000.57 1324.25 Q1999.25 1322.45 1996.54 1322.45 Q1993.23 1322.45 1991.31 1324.65 Q1989.39 1326.85 1989.39 1330.64 L1989.39 1345.3 L1985.11 1345.3 L1985.11 1329.79 Q1985.11 1326.04 1983.79 1324.25 Q1982.47 1322.45 1979.71 1322.45 Q1976.45 1322.45 1974.53 1324.67 Q1972.61 1326.87 1972.61 1330.64 L1972.61 1345.3 L1968.33 1345.3 L1968.33 1319.37 L1972.61 1319.37 L1972.61 1323.4 Q1974.07 1321.01 1976.1 1319.88 Q1978.14 1318.75 1980.94 1318.75 Q1983.77 1318.75 1985.73 1320.18 Q1987.72 1321.62 1988.67 1324.35 Z" fill="#000000" fill-rule="nonzero" fill-opacity="1"></path><path clip-path="url(#clip190)" d="M2036.84 1331.27 L2036.84 1333.35 L2017.26 1333.35 Q2017.54 1337.75 2019.9 1340.06 Q2022.28 1342.36 2026.52 1342.36 Q2028.97 1342.36 2031.27 1341.75 Q2033.58 1341.15 2035.85 1339.95 L2035.85 1343.98 Q2033.56 1344.95 2031.15 1345.46 Q2028.74 1345.97 2026.27 1345.97 Q2020.06 1345.97 2016.43 1342.36 Q2012.82 1338.75 2012.82 1332.59 Q2012.82 1326.22 2016.24 1322.5 Q2019.69 1318.75 2025.52 1318.75 Q2030.76 1318.75 2033.79 1322.13 Q2036.84 1325.48 2036.84 1331.27 M2032.58 1330.02 Q2032.54 1326.52 2030.62 1324.44 Q2028.72 1322.36 2025.57 1322.36 Q2022.01 1322.36 2019.85 1324.37 Q2017.72 1326.38 2017.4 1330.04 L2032.58 1330.02 Z" fill="#000000" fill-rule="nonzero" fill-opacity="1"></path><path clip-path="url(#clip190)" d="M2066.01 1331.27 L2066.01 1333.35 L2046.43 1333.35 Q2046.71 1337.75 2049.07 1340.06 Q2051.45 1342.36 2055.69 1342.36 Q2058.14 1342.36 2060.43 1341.75 Q2062.75 1341.15 2065.02 1339.95 L2065.02 1343.98 Q2062.72 1344.95 2060.32 1345.46 Q2057.91 1345.97 2055.43 1345.97 Q2049.23 1345.97 2045.59 1342.36 Q2041.98 1338.75 2041.98 1332.59 Q2041.98 1326.22 2045.41 1322.5 Q2048.86 1318.75 2054.69 1318.75 Q2059.92 1318.75 2062.96 1322.13 Q2066.01 1325.48 2066.01 1331.27 M2061.75 1330.02 Q2061.71 1326.52 2059.78 1324.44 Q2057.89 1322.36 2054.74 1322.36 Q2051.17 1322.36 2049.02 1324.37 Q2046.89 1326.38 2046.57 1330.04 L2061.75 1330.02 Z" fill="#000000" fill-rule="nonzero" fill-opacity="1"></path><path clip-path="url(#clip190)" d="M2077.21 1312.01 L2077.21 1319.37 L2085.99 1319.37 L2085.99 1322.68 L2077.21 1322.68 L2077.21 1336.75 Q2077.21 1339.93 2078.07 1340.83 Q2078.95 1341.73 2081.61 1341.73 L2085.99 1341.73 L2085.99 1345.3 L2081.61 1345.3 Q2076.68 1345.3 2074.81 1343.47 Q2072.93 1341.62 2072.93 1336.75 L2072.93 1322.68 L2069.81 1322.68 L2069.81 1319.37 L2072.93 1319.37 L2072.93 1312.01 L2077.21 1312.01 Z" fill="#000000" fill-rule="nonzero" fill-opacity="1"></path><path clip-path="url(#clip190)" d="M2108.12 1320.13 L2108.12 1324.16 Q2106.31 1323.24 2104.37 1322.77 Q2102.42 1322.31 2100.34 1322.31 Q2097.17 1322.31 2095.57 1323.28 Q2094 1324.25 2094 1326.2 Q2094 1327.68 2095.13 1328.54 Q2096.27 1329.37 2099.69 1330.13 L2101.15 1330.46 Q2105.69 1331.43 2107.58 1333.21 Q2109.51 1334.97 2109.51 1338.14 Q2109.51 1341.75 2106.64 1343.86 Q2103.79 1345.97 2098.79 1345.97 Q2096.7 1345.97 2094.44 1345.55 Q2092.19 1345.16 2089.69 1344.35 L2089.69 1339.95 Q2092.05 1341.18 2094.34 1341.8 Q2096.64 1342.4 2098.88 1342.4 Q2101.89 1342.4 2103.51 1341.38 Q2105.13 1340.34 2105.13 1338.47 Q2105.13 1336.73 2103.95 1335.81 Q2102.79 1334.88 2098.83 1334.02 L2097.35 1333.68 Q2093.39 1332.84 2091.64 1331.13 Q2089.88 1329.39 2089.88 1326.38 Q2089.88 1322.73 2092.47 1320.74 Q2095.06 1318.75 2099.83 1318.75 Q2102.19 1318.75 2104.27 1319.09 Q2106.36 1319.44 2108.12 1320.13 Z" fill="#000000" fill-rule="nonzero" fill-opacity="1"></path><path clip-path="url(#clip190)" d="M2146.38 1323.35 Q2145.66 1322.94 2144.81 1322.75 Q2143.97 1322.54 2142.95 1322.54 Q2139.34 1322.54 2137.4 1324.9 Q2135.48 1327.24 2135.48 1331.64 L2135.48 1345.3 L2131.2 1345.3 L2131.2 1319.37 L2135.48 1319.37 L2135.48 1323.4 Q2136.82 1321.04 2138.97 1319.9 Q2141.13 1318.75 2144.2 1318.75 Q2144.64 1318.75 2145.18 1318.81 Q2145.71 1318.86 2146.36 1318.98 L2146.38 1323.35 Z" fill="#000000" fill-rule="nonzero" fill-opacity="1"></path><path clip-path="url(#clip190)" d="M2150.85 1319.37 L2155.11 1319.37 L2155.11 1345.3 L2150.85 1345.3 L2150.85 1319.37 M2150.85 1309.28 L2155.11 1309.28 L2155.11 1314.67 L2150.85 1314.67 L2150.85 1309.28 Z" fill="#000000" fill-rule="nonzero" fill-opacity="1"></path><path clip-path="url(#clip190)" d="M2181.08 1332.03 Q2181.08 1327.4 2179.16 1324.86 Q2177.26 1322.31 2173.81 1322.31 Q2170.39 1322.31 2168.46 1324.86 Q2166.57 1327.4 2166.57 1332.03 Q2166.57 1336.64 2168.46 1339.19 Q2170.39 1341.73 2173.81 1341.73 Q2177.26 1341.73 2179.16 1339.19 Q2181.08 1336.64 2181.08 1332.03 M2185.34 1342.08 Q2185.34 1348.7 2182.4 1351.92 Q2179.46 1355.16 2173.39 1355.16 Q2171.15 1355.16 2169.16 1354.81 Q2167.17 1354.49 2165.29 1353.79 L2165.29 1349.65 Q2167.17 1350.67 2169 1351.15 Q2170.82 1351.64 2172.72 1351.64 Q2176.91 1351.64 2179 1349.44 Q2181.08 1347.26 2181.08 1342.84 L2181.08 1340.74 Q2179.76 1343.03 2177.7 1344.16 Q2175.64 1345.3 2172.77 1345.3 Q2168 1345.3 2165.08 1341.66 Q2162.17 1338.03 2162.17 1332.03 Q2162.17 1326.01 2165.08 1322.38 Q2168 1318.75 2172.77 1318.75 Q2175.64 1318.75 2177.7 1319.88 Q2179.76 1321.01 2181.08 1323.31 L2181.08 1319.37 L2185.34 1319.37 L2185.34 1342.08 Z" fill="#000000" fill-rule="nonzero" fill-opacity="1"></path><path clip-path="url(#clip190)" d="M2215.66 1329.65 L2215.66 1345.3 L2211.4 1345.3 L2211.4 1329.79 Q2211.4 1326.11 2209.97 1324.28 Q2208.53 1322.45 2205.66 1322.45 Q2202.21 1322.45 2200.22 1324.65 Q2198.23 1326.85 2198.23 1330.64 L2198.23 1345.3 L2193.95 1345.3 L2193.95 1309.28 L2198.23 1309.28 L2198.23 1323.4 Q2199.76 1321.06 2201.82 1319.9 Q2203.9 1318.75 2206.61 1318.75 Q2211.08 1318.75 2213.37 1321.52 Q2215.66 1324.28 2215.66 1329.65 Z" fill="#000000" fill-rule="nonzero" fill-opacity="1"></path><path clip-path="url(#clip190)" d="M2228.37 1312.01 L2228.37 1319.37 L2237.14 1319.37 L2237.14 1322.68 L2228.37 1322.68 L2228.37 1336.75 Q2228.37 1339.93 2229.23 1340.83 Q2230.11 1341.73 2232.77 1341.73 L2237.14 1341.73 L2237.14 1345.3 L2232.77 1345.3 Q2227.84 1345.3 2225.96 1343.47 Q2224.09 1341.62 2224.09 1336.75 L2224.09 1322.68 L2220.96 1322.68 L2220.96 1319.37 L2224.09 1319.37 L2224.09 1312.01 L2228.37 1312.01 Z" fill="#000000" fill-rule="nonzero" fill-opacity="1"></path></svg>