<svg xmlns="http://www.w3.org/2000/svg" xmlns:xlink="http://www.w3.org/1999/xlink" width="600" height="400" viewBox="0 0 2400 1600">
<defs>
  <clipPath id="clip630">
    <rect x="0" y="0" width="2400" height="1600"></rect>
  </clipPath>
</defs>
<path clip-path="url(#clip630)" d="M0 1600 L2400 1600 L2400 8.88178e-14 L0 8.88178e-14  Z" fill="#ffffff" fill-rule="evenodd" fill-opacity="1"></path>
<defs>
  <clipPath id="clip631">
    <rect x="480" y="0" width="1681" height="1600"></rect>
  </clipPath>
</defs>
<path clip-path="url(#clip630)" d="M205.121 1423.18 L2352.76 1423.18 L2352.76 123.472 L205.121 123.472  Z" fill="#ffffff" fill-rule="evenodd" fill-opacity="1"></path>
<defs>
  <clipPath id="clip632">
    <rect x="205" y="123" width="2149" height="1301"></rect>
  </clipPath>
</defs>
<polyline clip-path="url(#clip632)" style="stroke:#000000; stroke-linecap:round; stroke-linejoin:round; stroke-width:2; stroke-opacity:0.1; fill:none" points="527.332,1423.18 527.332,123.472 "></polyline>
<polyline clip-path="url(#clip632)" style="stroke:#000000; stroke-linecap:round; stroke-linejoin:round; stroke-width:2; stroke-opacity:0.1; fill:none" points="854.117,1423.18 854.117,123.472 "></polyline>
<polyline clip-path="url(#clip632)" style="stroke:#000000; stroke-linecap:round; stroke-linejoin:round; stroke-width:2; stroke-opacity:0.1; fill:none" points="1180.9,1423.18 1180.9,123.472 "></polyline>
<polyline clip-path="url(#clip632)" style="stroke:#000000; stroke-linecap:round; stroke-linejoin:round; stroke-width:2; stroke-opacity:0.1; fill:none" points="1507.69,1423.18 1507.69,123.472 "></polyline>
<polyline clip-path="url(#clip632)" style="stroke:#000000; stroke-linecap:round; stroke-linejoin:round; stroke-width:2; stroke-opacity:0.1; fill:none" points="1834.47,1423.18 1834.47,123.472 "></polyline>
<polyline clip-path="url(#clip632)" style="stroke:#000000; stroke-linecap:round; stroke-linejoin:round; stroke-width:2; stroke-opacity:0.1; fill:none" points="2161.26,1423.18 2161.26,123.472 "></polyline>
<polyline clip-path="url(#clip632)" style="stroke:#000000; stroke-linecap:round; stroke-linejoin:round; stroke-width:2; stroke-opacity:0.1; fill:none" points="205.121,1260.93 2352.76,1260.93 "></polyline>
<polyline clip-path="url(#clip632)" style="stroke:#000000; stroke-linecap:round; stroke-linejoin:round; stroke-width:2; stroke-opacity:0.1; fill:none" points="205.121,1044.22 2352.76,1044.22 "></polyline>
<polyline clip-path="url(#clip632)" style="stroke:#000000; stroke-linecap:round; stroke-linejoin:round; stroke-width:2; stroke-opacity:0.1; fill:none" points="205.121,827.504 2352.76,827.504 "></polyline>
<polyline clip-path="url(#clip632)" style="stroke:#000000; stroke-linecap:round; stroke-linejoin:round; stroke-width:2; stroke-opacity:0.1; fill:none" points="205.121,610.792 2352.76,610.792 "></polyline>
<polyline clip-path="url(#clip632)" style="stroke:#000000; stroke-linecap:round; stroke-linejoin:round; stroke-width:2; stroke-opacity:0.1; fill:none" points="205.121,394.081 2352.76,394.081 "></polyline>
<polyline clip-path="url(#clip632)" style="stroke:#000000; stroke-linecap:round; stroke-linejoin:round; stroke-width:2; stroke-opacity:0.1; fill:none" points="205.121,177.37 2352.76,177.37 "></polyline>
<polyline clip-path="url(#clip630)" style="stroke:#000000; stroke-linecap:round; stroke-linejoin:round; stroke-width:4; stroke-opacity:1; fill:none" points="205.121,1423.18 2352.76,1423.18 "></polyline>
<polyline clip-path="url(#clip630)" style="stroke:#000000; stroke-linecap:round; stroke-linejoin:round; stroke-width:4; stroke-opacity:1; fill:none" points="527.332,1423.18 527.332,1404.28 "></polyline>
<polyline clip-path="url(#clip630)" style="stroke:#000000; stroke-linecap:round; stroke-linejoin:round; stroke-width:4; stroke-opacity:1; fill:none" points="854.117,1423.18 854.117,1404.28 "></polyline>
<polyline clip-path="url(#clip630)" style="stroke:#000000; stroke-linecap:round; stroke-linejoin:round; stroke-width:4; stroke-opacity:1; fill:none" points="1180.9,1423.18 1180.9,1404.28 "></polyline>
<polyline clip-path="url(#clip630)" style="stroke:#000000; stroke-linecap:round; stroke-linejoin:round; stroke-width:4; stroke-opacity:1; fill:none" points="1507.69,1423.18 1507.69,1404.28 "></polyline>
<polyline clip-path="url(#clip630)" style="stroke:#000000; stroke-linecap:round; stroke-linejoin:round; stroke-width:4; stroke-opacity:1; fill:none" points="1834.47,1423.18 1834.47,1404.28 "></polyline>
<polyline clip-path="url(#clip630)" style="stroke:#000000; stroke-linecap:round; stroke-linejoin:round; stroke-width:4; stroke-opacity:1; fill:none" points="2161.26,1423.18 2161.26,1404.28 "></polyline>
<path clip-path="url(#clip630)" d="M517.609 1451.02 L535.966 1451.02 L535.966 1454.96 L521.892 1454.96 L521.892 1463.43 Q522.91 1463.08 523.929 1462.92 Q524.947 1462.73 525.966 1462.73 Q531.753 1462.73 535.132 1465.9 Q538.512 1469.08 538.512 1474.49 Q538.512 1480.07 535.04 1483.17 Q531.568 1486.25 525.248 1486.25 Q523.072 1486.25 520.804 1485.88 Q518.558 1485.51 516.151 1484.77 L516.151 1480.07 Q518.234 1481.2 520.457 1481.76 Q522.679 1482.32 525.156 1482.32 Q529.16 1482.32 531.498 1480.21 Q533.836 1478.1 533.836 1474.49 Q533.836 1470.88 531.498 1468.77 Q529.16 1466.67 525.156 1466.67 Q523.281 1466.67 521.406 1467.08 Q519.554 1467.5 517.609 1468.38 L517.609 1451.02 Z" fill="#000000" fill-rule="nonzero" fill-opacity="1"></path><path clip-path="url(#clip630)" d="M828.805 1481.64 L836.444 1481.64 L836.444 1455.28 L828.134 1456.95 L828.134 1452.69 L836.397 1451.02 L841.073 1451.02 L841.073 1481.64 L848.712 1481.64 L848.712 1485.58 L828.805 1485.58 L828.805 1481.64 Z" fill="#000000" fill-rule="nonzero" fill-opacity="1"></path><path clip-path="url(#clip630)" d="M868.156 1454.1 Q864.545 1454.1 862.717 1457.66 Q860.911 1461.2 860.911 1468.33 Q860.911 1475.44 862.717 1479.01 Q864.545 1482.55 868.156 1482.55 Q871.791 1482.55 873.596 1479.01 Q875.425 1475.44 875.425 1468.33 Q875.425 1461.2 873.596 1457.66 Q871.791 1454.1 868.156 1454.1 M868.156 1450.39 Q873.967 1450.39 877.022 1455 Q880.101 1459.58 880.101 1468.33 Q880.101 1477.06 877.022 1481.67 Q873.967 1486.25 868.156 1486.25 Q862.346 1486.25 859.268 1481.67 Q856.212 1477.06 856.212 1468.33 Q856.212 1459.58 859.268 1455 Q862.346 1450.39 868.156 1450.39 Z" fill="#000000" fill-rule="nonzero" fill-opacity="1"></path><path clip-path="url(#clip630)" d="M1156.09 1481.64 L1163.73 1481.64 L1163.73 1455.28 L1155.42 1456.95 L1155.42 1452.69 L1163.68 1451.02 L1168.36 1451.02 L1168.36 1481.64 L1176 1481.64 L1176 1485.58 L1156.09 1485.58 L1156.09 1481.64 Z" fill="#000000" fill-rule="nonzero" fill-opacity="1"></path><path clip-path="url(#clip630)" d="M1185.49 1451.02 L1203.84 1451.02 L1203.84 1454.96 L1189.77 1454.96 L1189.77 1463.43 Q1190.79 1463.08 1191.81 1462.92 Q1192.82 1462.73 1193.84 1462.73 Q1199.63 1462.73 1203.01 1465.9 Q1206.39 1469.08 1206.39 1474.49 Q1206.39 1480.07 1202.92 1483.17 Q1199.44 1486.25 1193.12 1486.25 Q1190.95 1486.25 1188.68 1485.88 Q1186.44 1485.51 1184.03 1484.77 L1184.03 1480.07 Q1186.11 1481.2 1188.33 1481.76 Q1190.56 1482.32 1193.03 1482.32 Q1197.04 1482.32 1199.37 1480.21 Q1201.71 1478.1 1201.71 1474.49 Q1201.71 1470.88 1199.37 1468.77 Q1197.04 1466.67 1193.03 1466.67 Q1191.16 1466.67 1189.28 1467.08 Q1187.43 1467.5 1185.49 1468.38 L1185.49 1451.02 Z" fill="#000000" fill-rule="nonzero" fill-opacity="1"></path><path clip-path="url(#clip630)" d="M1486.46 1481.64 L1502.78 1481.64 L1502.78 1485.58 L1480.84 1485.58 L1480.84 1481.64 Q1483.5 1478.89 1488.08 1474.26 Q1492.69 1469.61 1493.87 1468.27 Q1496.11 1465.74 1496.99 1464.01 Q1497.9 1462.25 1497.9 1460.56 Q1497.9 1457.8 1495.95 1456.07 Q1494.03 1454.33 1490.93 1454.33 Q1488.73 1454.33 1486.28 1455.09 Q1483.85 1455.86 1481.07 1457.41 L1481.07 1452.69 Q1483.89 1451.55 1486.35 1450.97 Q1488.8 1450.39 1490.84 1450.39 Q1496.21 1450.39 1499.4 1453.08 Q1502.6 1455.77 1502.6 1460.26 Q1502.6 1462.39 1501.79 1464.31 Q1501 1466.2 1498.89 1468.8 Q1498.31 1469.47 1495.21 1472.69 Q1492.11 1475.88 1486.46 1481.64 Z" fill="#000000" fill-rule="nonzero" fill-opacity="1"></path><path clip-path="url(#clip630)" d="M1522.6 1454.1 Q1518.98 1454.1 1517.16 1457.66 Q1515.35 1461.2 1515.35 1468.33 Q1515.35 1475.44 1517.16 1479.01 Q1518.98 1482.55 1522.6 1482.55 Q1526.23 1482.55 1528.04 1479.01 Q1529.86 1475.44 1529.86 1468.33 Q1529.86 1461.2 1528.04 1457.66 Q1526.23 1454.1 1522.6 1454.1 M1522.6 1450.39 Q1528.41 1450.39 1531.46 1455 Q1534.54 1459.58 1534.54 1468.33 Q1534.54 1477.06 1531.46 1481.67 Q1528.41 1486.25 1522.6 1486.25 Q1516.79 1486.25 1513.71 1481.67 Q1510.65 1477.06 1510.65 1468.33 Q1510.65 1459.58 1513.71 1455 Q1516.79 1450.39 1522.6 1450.39 Z" fill="#000000" fill-rule="nonzero" fill-opacity="1"></path><path clip-path="url(#clip630)" d="M1813.74 1481.64 L1830.06 1481.64 L1830.06 1485.58 L1808.12 1485.58 L1808.12 1481.64 Q1810.78 1478.89 1815.37 1474.26 Q1819.97 1469.61 1821.15 1468.27 Q1823.4 1465.74 1824.28 1464.01 Q1825.18 1462.25 1825.18 1460.56 Q1825.18 1457.8 1823.24 1456.07 Q1821.31 1454.33 1818.21 1454.33 Q1816.01 1454.33 1813.56 1455.09 Q1811.13 1455.86 1808.35 1457.41 L1808.35 1452.69 Q1811.18 1451.55 1813.63 1450.97 Q1816.08 1450.39 1818.12 1450.39 Q1823.49 1450.39 1826.68 1453.08 Q1829.88 1455.77 1829.88 1460.26 Q1829.88 1462.39 1829.07 1464.31 Q1828.28 1466.2 1826.18 1468.8 Q1825.6 1469.47 1822.49 1472.69 Q1819.39 1475.88 1813.74 1481.64 Z" fill="#000000" fill-rule="nonzero" fill-opacity="1"></path><path clip-path="url(#clip630)" d="M1839.93 1451.02 L1858.28 1451.02 L1858.28 1454.96 L1844.21 1454.96 L1844.21 1463.43 Q1845.23 1463.08 1846.24 1462.92 Q1847.26 1462.73 1848.28 1462.73 Q1854.07 1462.73 1857.45 1465.9 Q1860.83 1469.08 1860.83 1474.49 Q1860.83 1480.07 1857.36 1483.17 Q1853.88 1486.25 1847.56 1486.25 Q1845.39 1486.25 1843.12 1485.88 Q1840.87 1485.51 1838.47 1484.77 L1838.47 1480.07 Q1840.55 1481.2 1842.77 1481.76 Q1844.99 1482.32 1847.47 1482.32 Q1851.48 1482.32 1853.81 1480.21 Q1856.15 1478.1 1856.15 1474.49 Q1856.15 1470.88 1853.81 1468.77 Q1851.48 1466.67 1847.47 1466.67 Q1845.6 1466.67 1843.72 1467.08 Q1841.87 1467.5 1839.93 1468.38 L1839.93 1451.02 Z" fill="#000000" fill-rule="nonzero" fill-opacity="1"></path><path clip-path="url(#clip630)" d="M2150.1 1466.95 Q2153.46 1467.66 2155.33 1469.93 Q2157.23 1472.2 2157.23 1475.53 Q2157.23 1480.65 2153.71 1483.45 Q2150.19 1486.25 2143.71 1486.25 Q2141.54 1486.25 2139.22 1485.81 Q2136.93 1485.39 2134.48 1484.54 L2134.48 1480.02 Q2136.42 1481.16 2138.74 1481.74 Q2141.05 1482.32 2143.57 1482.32 Q2147.97 1482.32 2150.26 1480.58 Q2152.58 1478.84 2152.58 1475.53 Q2152.58 1472.48 2150.43 1470.77 Q2148.3 1469.03 2144.48 1469.03 L2140.45 1469.03 L2140.45 1465.19 L2144.66 1465.19 Q2148.11 1465.19 2149.94 1463.82 Q2151.77 1462.43 2151.77 1459.84 Q2151.77 1457.18 2149.87 1455.77 Q2148 1454.33 2144.48 1454.33 Q2142.56 1454.33 2140.36 1454.75 Q2138.16 1455.16 2135.52 1456.04 L2135.52 1451.88 Q2138.18 1451.14 2140.5 1450.77 Q2142.83 1450.39 2144.89 1450.39 Q2150.22 1450.39 2153.32 1452.83 Q2156.42 1455.23 2156.42 1459.35 Q2156.42 1462.22 2154.78 1464.21 Q2153.13 1466.18 2150.1 1466.95 Z" fill="#000000" fill-rule="nonzero" fill-opacity="1"></path><path clip-path="url(#clip630)" d="M2176.1 1454.1 Q2172.49 1454.1 2170.66 1457.66 Q2168.85 1461.2 2168.85 1468.33 Q2168.85 1475.44 2170.66 1479.01 Q2172.49 1482.55 2176.1 1482.55 Q2179.73 1482.55 2181.54 1479.01 Q2183.37 1475.44 2183.37 1468.33 Q2183.37 1461.2 2181.54 1457.66 Q2179.73 1454.1 2176.1 1454.1 M2176.1 1450.39 Q2181.91 1450.39 2184.96 1455 Q2188.04 1459.58 2188.04 1468.33 Q2188.04 1477.06 2184.96 1481.67 Q2181.91 1486.25 2176.1 1486.25 Q2170.29 1486.25 2167.21 1481.67 Q2164.15 1477.06 2164.15 1468.33 Q2164.15 1459.58 2167.21 1455 Q2170.29 1450.39 2176.1 1450.39 Z" fill="#000000" fill-rule="nonzero" fill-opacity="1"></path><path clip-path="url(#clip630)" d="M1193.48 1520.52 L1199.91 1520.52 L1199.91 1568.04 L1193.48 1568.04 L1193.48 1520.52 Z" fill="#000000" fill-rule="nonzero" fill-opacity="1"></path><path clip-path="url(#clip630)" d="M1242.08 1546.53 L1242.08 1568.04 L1236.22 1568.04 L1236.22 1546.72 Q1236.22 1541.66 1234.25 1539.14 Q1232.28 1536.63 1228.33 1536.63 Q1223.59 1536.63 1220.85 1539.65 Q1218.11 1542.68 1218.11 1547.9 L1218.11 1568.04 L1212.23 1568.04 L1212.23 1532.4 L1218.11 1532.4 L1218.11 1537.93 Q1220.21 1534.72 1223.05 1533.13 Q1225.91 1531.54 1229.64 1531.54 Q1235.78 1531.54 1238.93 1535.36 Q1242.08 1539.14 1242.08 1546.53 Z" fill="#000000" fill-rule="nonzero" fill-opacity="1"></path><path clip-path="url(#clip630)" d="M1277.22 1537.81 L1277.22 1518.52 L1283.08 1518.52 L1283.08 1568.04 L1277.22 1568.04 L1277.22 1562.7 Q1275.37 1565.88 1272.54 1567.44 Q1269.74 1568.97 1265.79 1568.97 Q1259.33 1568.97 1255.26 1563.81 Q1251.22 1558.65 1251.22 1550.25 Q1251.22 1541.85 1255.26 1536.69 Q1259.33 1531.54 1265.79 1531.54 Q1269.74 1531.54 1272.54 1533.1 Q1275.37 1534.62 1277.22 1537.81 M1257.26 1550.25 Q1257.26 1556.71 1259.9 1560.4 Q1262.58 1564.07 1267.23 1564.07 Q1271.87 1564.07 1274.55 1560.4 Q1277.22 1556.71 1277.22 1550.25 Q1277.22 1543.79 1274.55 1540.13 Q1271.87 1536.44 1267.23 1536.44 Q1262.58 1536.44 1259.9 1540.13 Q1257.26 1543.79 1257.26 1550.25 Z" fill="#000000" fill-rule="nonzero" fill-opacity="1"></path><path clip-path="url(#clip630)" d="M1325.63 1548.76 L1325.63 1551.62 L1298.7 1551.62 Q1299.09 1557.67 1302.33 1560.85 Q1305.61 1564 1311.44 1564 Q1314.81 1564 1317.96 1563.17 Q1321.14 1562.35 1324.26 1560.69 L1324.26 1566.23 Q1321.11 1567.57 1317.8 1568.27 Q1314.49 1568.97 1311.09 1568.97 Q1302.56 1568.97 1297.56 1564 Q1292.59 1559.04 1292.59 1550.57 Q1292.59 1541.82 1297.3 1536.69 Q1302.05 1531.54 1310.07 1531.54 Q1317.26 1531.54 1321.43 1536.18 Q1325.63 1540.8 1325.63 1548.76 M1319.77 1547.04 Q1319.71 1542.23 1317.07 1539.37 Q1314.46 1536.5 1310.13 1536.5 Q1305.23 1536.5 1302.27 1539.27 Q1299.34 1542.04 1298.89 1547.07 L1319.77 1547.04 Z" fill="#000000" fill-rule="nonzero" fill-opacity="1"></path><path clip-path="url(#clip630)" d="M1363.73 1532.4 L1350.84 1549.74 L1364.4 1568.04 L1357.49 1568.04 L1347.12 1554.04 L1336.74 1568.04 L1329.83 1568.04 L1343.68 1549.39 L1331.01 1532.4 L1337.92 1532.4 L1347.37 1545.1 L1356.82 1532.4 L1363.73 1532.4 Z" fill="#000000" fill-rule="nonzero" fill-opacity="1"></path><polyline clip-path="url(#clip630)" style="stroke:#000000; stroke-linecap:round; stroke-linejoin:round; stroke-width:4; stroke-opacity:1; fill:none" points="205.121,1423.18 205.121,123.472 "></polyline>
<polyline clip-path="url(#clip630)" style="stroke:#000000; stroke-linecap:round; stroke-linejoin:round; stroke-width:4; stroke-opacity:1; fill:none" points="205.121,1260.93 224.019,1260.93 "></polyline>
<polyline clip-path="url(#clip630)" style="stroke:#000000; stroke-linecap:round; stroke-linejoin:round; stroke-width:4; stroke-opacity:1; fill:none" points="205.121,1044.22 224.019,1044.22 "></polyline>
<polyline clip-path="url(#clip630)" style="stroke:#000000; stroke-linecap:round; stroke-linejoin:round; stroke-width:4; stroke-opacity:1; fill:none" points="205.121,827.504 224.019,827.504 "></polyline>
<polyline clip-path="url(#clip630)" style="stroke:#000000; stroke-linecap:round; stroke-linejoin:round; stroke-width:4; stroke-opacity:1; fill:none" points="205.121,610.792 224.019,610.792 "></polyline>
<polyline clip-path="url(#clip630)" style="stroke:#000000; stroke-linecap:round; stroke-linejoin:round; stroke-width:4; stroke-opacity:1; fill:none" points="205.121,394.081 224.019,394.081 "></polyline>
<polyline clip-path="url(#clip630)" style="stroke:#000000; stroke-linecap:round; stroke-linejoin:round; stroke-width:4; stroke-opacity:1; fill:none" points="205.121,177.37 224.019,177.37 "></polyline>
<path clip-path="url(#clip630)" d="M117.825 1274.27 L125.464 1274.27 L125.464 1247.91 L117.154 1249.57 L117.154 1245.31 L125.418 1243.65 L130.093 1243.65 L130.093 1274.27 L137.732 1274.27 L137.732 1278.21 L117.825 1278.21 L117.825 1274.27 Z" fill="#000000" fill-rule="nonzero" fill-opacity="1"></path><path clip-path="url(#clip630)" d="M157.177 1246.73 Q153.566 1246.73 151.737 1250.29 Q149.931 1253.83 149.931 1260.96 Q149.931 1268.07 151.737 1271.63 Q153.566 1275.17 157.177 1275.17 Q160.811 1275.17 162.616 1271.63 Q164.445 1268.07 164.445 1260.96 Q164.445 1253.83 162.616 1250.29 Q160.811 1246.73 157.177 1246.73 M157.177 1243.02 Q162.987 1243.02 166.042 1247.63 Q169.121 1252.21 169.121 1260.96 Q169.121 1269.69 166.042 1274.29 Q162.987 1278.88 157.177 1278.88 Q151.366 1278.88 148.288 1274.29 Q145.232 1269.69 145.232 1260.96 Q145.232 1252.21 148.288 1247.63 Q151.366 1243.02 157.177 1243.02 Z" fill="#000000" fill-rule="nonzero" fill-opacity="1"></path><path clip-path="url(#clip630)" d="M121.043 1057.56 L137.362 1057.56 L137.362 1061.5 L115.418 1061.5 L115.418 1057.56 Q118.08 1054.81 122.663 1050.18 Q127.269 1045.52 128.45 1044.18 Q130.695 1041.66 131.575 1039.92 Q132.478 1038.16 132.478 1036.47 Q132.478 1033.72 130.533 1031.98 Q128.612 1030.25 125.51 1030.25 Q123.311 1030.25 120.857 1031.01 Q118.427 1031.77 115.649 1033.32 L115.649 1028.6 Q118.473 1027.47 120.927 1026.89 Q123.38 1026.31 125.418 1026.31 Q130.788 1026.31 133.982 1029 Q137.177 1031.68 137.177 1036.17 Q137.177 1038.3 136.367 1040.22 Q135.579 1042.12 133.473 1044.71 Q132.894 1045.38 129.792 1048.6 Q126.691 1051.8 121.043 1057.56 Z" fill="#000000" fill-rule="nonzero" fill-opacity="1"></path><path clip-path="url(#clip630)" d="M157.177 1030.01 Q153.566 1030.01 151.737 1033.58 Q149.931 1037.12 149.931 1044.25 Q149.931 1051.36 151.737 1054.92 Q153.566 1058.46 157.177 1058.46 Q160.811 1058.46 162.616 1054.92 Q164.445 1051.36 164.445 1044.25 Q164.445 1037.12 162.616 1033.58 Q160.811 1030.01 157.177 1030.01 M157.177 1026.31 Q162.987 1026.31 166.042 1030.92 Q169.121 1035.5 169.121 1044.25 Q169.121 1052.98 166.042 1057.58 Q162.987 1062.17 157.177 1062.17 Q151.366 1062.17 148.288 1057.58 Q145.232 1052.98 145.232 1044.25 Q145.232 1035.5 148.288 1030.92 Q151.366 1026.31 157.177 1026.31 Z" fill="#000000" fill-rule="nonzero" fill-opacity="1"></path><path clip-path="url(#clip630)" d="M131.181 826.15 Q134.538 826.867 136.413 829.136 Q138.311 831.404 138.311 834.738 Q138.311 839.853 134.792 842.654 Q131.274 845.455 124.793 845.455 Q122.617 845.455 120.302 845.015 Q118.01 844.599 115.556 843.742 L115.556 839.228 Q117.501 840.363 119.816 840.941 Q122.13 841.52 124.654 841.52 Q129.052 841.52 131.343 839.784 Q133.658 838.048 133.658 834.738 Q133.658 831.682 131.505 829.969 Q129.376 828.233 125.556 828.233 L121.529 828.233 L121.529 824.39 L125.742 824.39 Q129.191 824.39 131.019 823.025 Q132.848 821.636 132.848 819.043 Q132.848 816.381 130.95 814.969 Q129.075 813.534 125.556 813.534 Q123.635 813.534 121.436 813.951 Q119.237 814.367 116.598 815.247 L116.598 811.08 Q119.26 810.34 121.575 809.969 Q123.913 809.599 125.973 809.599 Q131.297 809.599 134.399 812.029 Q137.501 814.437 137.501 818.557 Q137.501 821.427 135.857 823.418 Q134.214 825.386 131.181 826.15 Z" fill="#000000" fill-rule="nonzero" fill-opacity="1"></path><path clip-path="url(#clip630)" d="M157.177 813.303 Q153.566 813.303 151.737 816.867 Q149.931 820.409 149.931 827.539 Q149.931 834.645 151.737 838.21 Q153.566 841.751 157.177 841.751 Q160.811 841.751 162.616 838.21 Q164.445 834.645 164.445 827.539 Q164.445 820.409 162.616 816.867 Q160.811 813.303 157.177 813.303 M157.177 809.599 Q162.987 809.599 166.042 814.205 Q169.121 818.789 169.121 827.539 Q169.121 836.265 166.042 840.872 Q162.987 845.455 157.177 845.455 Q151.366 845.455 148.288 840.872 Q145.232 836.265 145.232 827.539 Q145.232 818.789 148.288 814.205 Q151.366 809.599 157.177 809.599 Z" fill="#000000" fill-rule="nonzero" fill-opacity="1"></path><path clip-path="url(#clip630)" d="M129.862 597.587 L118.056 616.035 L129.862 616.035 L129.862 597.587 M128.635 593.512 L134.515 593.512 L134.515 616.035 L139.445 616.035 L139.445 619.924 L134.515 619.924 L134.515 628.072 L129.862 628.072 L129.862 619.924 L114.26 619.924 L114.26 615.41 L128.635 593.512 Z" fill="#000000" fill-rule="nonzero" fill-opacity="1"></path><path clip-path="url(#clip630)" d="M157.177 596.591 Q153.566 596.591 151.737 600.156 Q149.931 603.698 149.931 610.827 Q149.931 617.934 151.737 621.498 Q153.566 625.04 157.177 625.04 Q160.811 625.04 162.616 621.498 Q164.445 617.934 164.445 610.827 Q164.445 603.698 162.616 600.156 Q160.811 596.591 157.177 596.591 M157.177 592.887 Q162.987 592.887 166.042 597.494 Q169.121 602.077 169.121 610.827 Q169.121 619.554 166.042 624.16 Q162.987 628.744 157.177 628.744 Q151.366 628.744 148.288 624.16 Q145.232 619.554 145.232 610.827 Q145.232 602.077 148.288 597.494 Q151.366 592.887 157.177 592.887 Z" fill="#000000" fill-rule="nonzero" fill-opacity="1"></path><path clip-path="url(#clip630)" d="M117.061 376.801 L135.417 376.801 L135.417 380.736 L121.343 380.736 L121.343 389.208 Q122.362 388.861 123.38 388.699 Q124.399 388.514 125.418 388.514 Q131.205 388.514 134.584 391.685 Q137.964 394.857 137.964 400.273 Q137.964 405.852 134.492 408.954 Q131.019 412.032 124.7 412.032 Q122.524 412.032 120.255 411.662 Q118.01 411.292 115.603 410.551 L115.603 405.852 Q117.686 406.986 119.908 407.542 Q122.13 408.097 124.607 408.097 Q128.612 408.097 130.95 405.991 Q133.288 403.884 133.288 400.273 Q133.288 396.662 130.95 394.556 Q128.612 392.449 124.607 392.449 Q122.732 392.449 120.857 392.866 Q119.006 393.282 117.061 394.162 L117.061 376.801 Z" fill="#000000" fill-rule="nonzero" fill-opacity="1"></path><path clip-path="url(#clip630)" d="M157.177 379.88 Q153.566 379.88 151.737 383.445 Q149.931 386.986 149.931 394.116 Q149.931 401.222 151.737 404.787 Q153.566 408.329 157.177 408.329 Q160.811 408.329 162.616 404.787 Q164.445 401.222 164.445 394.116 Q164.445 386.986 162.616 383.445 Q160.811 379.88 157.177 379.88 M157.177 376.176 Q162.987 376.176 166.042 380.783 Q169.121 385.366 169.121 394.116 Q169.121 402.843 166.042 407.449 Q162.987 412.032 157.177 412.032 Q151.366 412.032 148.288 407.449 Q145.232 402.843 145.232 394.116 Q145.232 385.366 148.288 380.783 Q151.366 376.176 157.177 376.176 Z" fill="#000000" fill-rule="nonzero" fill-opacity="1"></path><path clip-path="url(#clip630)" d="M127.593 175.506 Q124.445 175.506 122.593 177.659 Q120.765 179.812 120.765 183.562 Q120.765 187.289 122.593 189.465 Q124.445 191.617 127.593 191.617 Q130.742 191.617 132.57 189.465 Q134.422 187.289 134.422 183.562 Q134.422 179.812 132.57 177.659 Q130.742 175.506 127.593 175.506 M136.876 160.854 L136.876 165.113 Q135.117 164.28 133.311 163.84 Q131.529 163.4 129.769 163.4 Q125.14 163.4 122.686 166.525 Q120.255 169.65 119.908 175.969 Q121.274 173.955 123.334 172.891 Q125.394 171.803 127.871 171.803 Q133.08 171.803 136.089 174.974 Q139.121 178.122 139.121 183.562 Q139.121 188.886 135.973 192.103 Q132.825 195.321 127.593 195.321 Q121.598 195.321 118.427 190.738 Q115.256 186.131 115.256 177.404 Q115.256 169.21 119.144 164.349 Q123.033 159.465 129.584 159.465 Q131.343 159.465 133.126 159.812 Q134.931 160.159 136.876 160.854 Z" fill="#000000" fill-rule="nonzero" fill-opacity="1"></path><path clip-path="url(#clip630)" d="M157.177 163.168 Q153.566 163.168 151.737 166.733 Q149.931 170.275 149.931 177.404 Q149.931 184.511 151.737 188.076 Q153.566 191.617 157.177 191.617 Q160.811 191.617 162.616 188.076 Q164.445 184.511 164.445 177.404 Q164.445 170.275 162.616 166.733 Q160.811 163.168 157.177 163.168 M157.177 159.465 Q162.987 159.465 166.042 164.071 Q169.121 168.655 169.121 177.404 Q169.121 186.131 166.042 190.738 Q162.987 195.321 157.177 195.321 Q151.366 195.321 148.288 190.738 Q145.232 186.131 145.232 177.404 Q145.232 168.655 148.288 164.071 Q151.366 159.465 157.177 159.465 Z" fill="#000000" fill-rule="nonzero" fill-opacity="1"></path><path clip-path="url(#clip630)" d="M16.4842 948.462 L16.4842 918.416 L21.895 918.416 L21.895 942.033 L35.9632 942.033 L35.9632 919.403 L41.3741 919.403 L41.3741 942.033 L58.5933 942.033 L58.5933 917.843 L64.0042 917.843 L64.0042 948.462 L16.4842 948.462 Z" fill="#000000" fill-rule="nonzero" fill-opacity="1"></path><path clip-path="url(#clip630)" d="M28.3562 907.531 L28.3562 901.675 L64.0042 901.675 L64.0042 907.531 L28.3562 907.531 M14.479 907.531 L14.479 901.675 L21.895 901.675 L21.895 907.531 L14.479 907.531 Z" fill="#000000" fill-rule="nonzero" fill-opacity="1"></path><path clip-path="url(#clip630)" d="M45.7664 865.963 Q39.4007 865.963 35.8996 868.605 Q32.3984 871.215 32.3984 875.957 Q32.3984 880.668 35.8996 883.309 Q39.4007 885.919 45.7664 885.919 Q52.1003 885.919 55.6014 883.309 Q59.1026 880.668 59.1026 875.957 Q59.1026 871.215 55.6014 868.605 Q52.1003 865.963 45.7664 865.963 M59.58 860.106 Q68.683 860.106 73.1071 864.149 Q77.5631 868.191 77.5631 876.53 Q77.5631 879.617 77.0857 882.355 Q76.6401 885.092 75.6852 887.67 L69.9879 887.67 Q71.3884 885.092 72.0568 882.577 Q72.7252 880.063 72.7252 877.453 Q72.7252 871.692 69.7015 868.827 Q66.7096 865.963 60.6303 865.963 L57.7339 865.963 Q60.885 867.777 62.4446 870.61 Q64.0042 873.443 64.0042 877.389 Q64.0042 883.946 59.0071 887.956 Q54.01 891.967 45.7664 891.967 Q37.491 891.967 32.4939 887.956 Q27.4968 883.946 27.4968 877.389 Q27.4968 873.443 29.0564 870.61 Q30.616 867.777 33.7671 865.963 L28.3562 865.963 L28.3562 860.106 L59.58 860.106 Z" fill="#000000" fill-rule="nonzero" fill-opacity="1"></path><path clip-path="url(#clip630)" d="M44.7161 817.552 L47.5806 817.552 L47.5806 844.479 Q53.6281 844.097 56.8109 840.85 Q59.9619 837.572 59.9619 831.747 Q59.9619 828.373 59.1344 825.222 Q58.3069 822.04 56.6518 818.92 L62.1899 818.92 Q63.5267 822.071 64.227 825.382 Q64.9272 828.692 64.9272 832.097 Q64.9272 840.627 59.9619 845.624 Q54.9967 850.59 46.5303 850.59 Q37.7774 850.59 32.6531 845.879 Q27.4968 841.137 27.4968 833.116 Q27.4968 825.923 32.1438 821.753 Q36.7589 817.552 44.7161 817.552 M42.9973 823.408 Q38.1912 823.472 35.3266 826.114 Q32.4621 828.724 32.4621 833.052 Q32.4621 837.954 35.2312 840.914 Q38.0002 843.842 43.0292 844.288 L42.9973 823.408 Z" fill="#000000" fill-rule="nonzero" fill-opacity="1"></path><path clip-path="url(#clip630)" d="M42.4881 778.307 L64.0042 778.307 L64.0042 784.164 L42.679 784.164 Q37.6183 784.164 35.1038 786.137 Q32.5894 788.11 32.5894 792.057 Q32.5894 796.8 35.6131 799.537 Q38.6368 802.274 43.8567 802.274 L64.0042 802.274 L64.0042 808.162 L28.3562 808.162 L28.3562 802.274 L33.8944 802.274 Q30.6797 800.173 29.0883 797.341 Q27.4968 794.476 27.4968 790.752 Q27.4968 784.609 31.3163 781.458 Q35.1038 778.307 42.4881 778.307 Z" fill="#000000" fill-rule="nonzero" fill-opacity="1"></path><path clip-path="url(#clip630)" d="M28.3562 770.827 L28.3562 764.621 L58.275 753.481 L28.3562 742.341 L28.3562 736.134 L64.0042 749.502 L64.0042 757.459 L28.3562 770.827 Z" fill="#000000" fill-rule="nonzero" fill-opacity="1"></path><path clip-path="url(#clip630)" d="M46.0847 711.849 Q46.0847 718.947 47.7079 721.684 Q49.3312 724.421 53.2461 724.421 Q56.3653 724.421 58.2114 722.384 Q60.0256 720.316 60.0256 716.783 Q60.0256 711.913 56.5881 708.985 Q53.1188 706.025 47.3897 706.025 L46.0847 706.025 L46.0847 711.849 M43.6657 700.168 L64.0042 700.168 L64.0042 706.025 L58.5933 706.025 Q61.8398 708.03 63.3994 711.022 Q64.9272 714.014 64.9272 718.342 Q64.9272 723.817 61.8716 727.063 Q58.7843 730.278 53.6281 730.278 Q47.6125 730.278 44.5569 726.267 Q41.5014 722.225 41.5014 714.236 L41.5014 706.025 L40.9285 706.025 Q36.8862 706.025 34.6901 708.698 Q32.4621 711.34 32.4621 716.146 Q32.4621 719.202 33.1941 722.098 Q33.9262 724.994 35.3903 727.668 L29.9795 727.668 Q28.7381 724.453 28.1334 721.43 Q27.4968 718.406 27.4968 715.541 Q27.4968 707.807 31.5072 703.988 Q35.5176 700.168 43.6657 700.168 Z" fill="#000000" fill-rule="nonzero" fill-opacity="1"></path><path clip-path="url(#clip630)" d="M14.479 688.105 L14.479 682.249 L64.0042 682.249 L64.0042 688.105 L14.479 688.105 Z" fill="#000000" fill-rule="nonzero" fill-opacity="1"></path><path clip-path="url(#clip630)" d="M49.9359 670.599 L28.3562 670.599 L28.3562 664.743 L49.7131 664.743 Q54.7739 664.743 57.3202 662.77 Q59.8346 660.796 59.8346 656.849 Q59.8346 652.107 56.8109 649.37 Q53.7872 646.601 48.5673 646.601 L28.3562 646.601 L28.3562 640.744 L64.0042 640.744 L64.0042 646.601 L58.5296 646.601 Q61.7762 648.733 63.3676 651.566 Q64.9272 654.367 64.9272 658.091 Q64.9272 664.234 61.1078 667.417 Q57.2883 670.599 49.9359 670.599 M27.4968 655.863 L27.4968 655.863 Z" fill="#000000" fill-rule="nonzero" fill-opacity="1"></path><path clip-path="url(#clip630)" d="M44.7161 598.189 L47.5806 598.189 L47.5806 625.116 Q53.6281 624.734 56.8109 621.488 Q59.9619 618.21 59.9619 612.385 Q59.9619 609.011 59.1344 605.86 Q58.3069 602.677 56.6518 599.558 L62.1899 599.558 Q63.5267 602.709 64.227 606.019 Q64.9272 609.329 64.9272 612.735 Q64.9272 621.265 59.9619 626.262 Q54.9967 631.227 46.5303 631.227 Q37.7774 631.227 32.6531 626.517 Q27.4968 621.774 27.4968 613.754 Q27.4968 606.56 32.1438 602.391 Q36.7589 598.189 44.7161 598.189 M42.9973 604.046 Q38.1912 604.11 35.3266 606.751 Q32.4621 609.361 32.4621 613.69 Q32.4621 618.592 35.2312 621.552 Q38.0002 624.48 43.0292 624.925 L42.9973 604.046 Z" fill="#000000" fill-rule="nonzero" fill-opacity="1"></path><path clip-path="url(#clip630)" d="M605.496 12.096 L643.736 12.096 L643.736 18.9825 L613.679 18.9825 L613.679 36.8875 L642.481 36.8875 L642.481 43.7741 L613.679 43.7741 L613.679 65.6895 L644.466 65.6895 L644.466 72.576 L605.496 72.576 L605.496 12.096 Z" fill="#000000" fill-rule="nonzero" fill-opacity="1"></path><path clip-path="url(#clip630)" d="M657.59 27.2059 L665.044 27.2059 L665.044 72.576 L657.59 72.576 L657.59 27.2059 M657.59 9.54393 L665.044 9.54393 L665.044 18.9825 L657.59 18.9825 L657.59 9.54393 Z" fill="#000000" fill-rule="nonzero" fill-opacity="1"></path><path clip-path="url(#clip630)" d="M710.495 49.3643 Q710.495 41.2625 707.133 36.8065 Q703.811 32.3505 697.775 32.3505 Q691.78 32.3505 688.418 36.8065 Q685.096 41.2625 685.096 49.3643 Q685.096 57.4256 688.418 61.8816 Q691.78 66.3376 697.775 66.3376 Q703.811 66.3376 707.133 61.8816 Q710.495 57.4256 710.495 49.3643 M717.949 66.9452 Q717.949 78.5308 712.804 84.1616 Q707.66 89.8329 697.046 89.8329 Q693.117 89.8329 689.633 89.2252 Q686.149 88.6581 682.868 87.4428 L682.868 80.1917 Q686.149 81.9741 689.35 82.8248 Q692.55 83.6755 695.872 83.6755 Q703.204 83.6755 706.849 79.8271 Q710.495 76.0193 710.495 68.282 L710.495 64.5957 Q708.186 68.6061 704.581 70.5911 Q700.976 72.576 695.953 72.576 Q687.608 72.576 682.504 66.2161 Q677.399 59.8562 677.399 49.3643 Q677.399 38.832 682.504 32.472 Q687.608 26.1121 695.953 26.1121 Q700.976 26.1121 704.581 28.0971 Q708.186 30.082 710.495 34.0924 L710.495 27.2059 L717.949 27.2059 L717.949 66.9452 Z" fill="#000000" fill-rule="nonzero" fill-opacity="1"></path><path clip-path="url(#clip630)" d="M772.11 48.0275 L772.11 51.6733 L737.839 51.6733 Q738.325 59.3701 742.457 63.421 Q746.629 67.4314 754.043 67.4314 Q758.336 67.4314 762.347 66.3781 Q766.398 65.3249 770.368 63.2184 L770.368 70.267 Q766.357 71.9684 762.144 72.8596 Q757.931 73.7508 753.597 73.7508 Q742.741 73.7508 736.381 67.4314 Q730.061 61.1119 730.061 50.3365 Q730.061 39.1965 736.057 32.6746 Q742.092 26.1121 752.301 26.1121 Q761.456 26.1121 766.762 32.0264 Q772.11 37.9003 772.11 48.0275 M764.656 45.84 Q764.575 39.7232 761.213 36.0774 Q757.891 32.4315 752.382 32.4315 Q746.143 32.4315 742.376 35.9558 Q738.649 39.4801 738.082 45.8805 L764.656 45.84 Z" fill="#000000" fill-rule="nonzero" fill-opacity="1"></path><path clip-path="url(#clip630)" d="M822.057 45.1919 L822.057 72.576 L814.604 72.576 L814.604 45.4349 Q814.604 38.994 812.092 35.7938 Q809.58 32.5936 804.557 32.5936 Q798.521 32.5936 795.038 36.4419 Q791.554 40.2903 791.554 46.9338 L791.554 72.576 L784.06 72.576 L784.06 27.2059 L791.554 27.2059 L791.554 34.2544 Q794.227 30.163 797.833 28.1376 Q801.479 26.1121 806.218 26.1121 Q814.036 26.1121 818.047 30.9732 Q822.057 35.7938 822.057 45.1919 Z" fill="#000000" fill-rule="nonzero" fill-opacity="1"></path><path clip-path="url(#clip630)" d="M831.577 27.2059 L839.476 27.2059 L853.654 65.2844 L867.832 27.2059 L875.732 27.2059 L858.718 72.576 L848.591 72.576 L831.577 27.2059 Z" fill="#000000" fill-rule="nonzero" fill-opacity="1"></path><path clip-path="url(#clip630)" d="M906.64 49.7694 Q897.607 49.7694 894.123 51.8354 Q890.639 53.9013 890.639 58.8839 Q890.639 62.8538 893.232 65.2034 Q895.865 67.5124 900.361 67.5124 Q906.559 67.5124 910.286 63.1374 Q914.053 58.7219 914.053 51.4303 L914.053 49.7694 L906.64 49.7694 M921.507 46.6907 L921.507 72.576 L914.053 72.576 L914.053 65.6895 Q911.501 69.8214 907.693 71.8063 Q903.885 73.7508 898.376 73.7508 Q891.409 73.7508 887.277 69.8619 Q883.185 65.9325 883.185 59.3701 Q883.185 51.7138 888.289 47.825 Q893.434 43.9361 903.602 43.9361 L914.053 43.9361 L914.053 43.2069 Q914.053 38.0623 910.65 35.2672 Q907.288 32.4315 901.171 32.4315 Q897.282 32.4315 893.596 33.3632 Q889.91 34.295 886.507 36.1584 L886.507 29.2718 Q890.599 27.692 894.447 26.9223 Q898.295 26.1121 901.941 26.1121 Q911.785 26.1121 916.646 31.2163 Q921.507 36.3204 921.507 46.6907 Z" fill="#000000" fill-rule="nonzero" fill-opacity="1"></path><path clip-path="url(#clip630)" d="M936.86 9.54393 L944.313 9.54393 L944.313 72.576 L936.86 72.576 L936.86 9.54393 Z" fill="#000000" fill-rule="nonzero" fill-opacity="1"></path><path clip-path="url(#clip630)" d="M959.14 54.671 L959.14 27.2059 L966.593 27.2059 L966.593 54.3874 Q966.593 60.8284 969.105 64.0691 Q971.617 67.2693 976.64 67.2693 Q982.676 67.2693 986.159 63.421 Q989.684 59.5726 989.684 52.9291 L989.684 27.2059 L997.137 27.2059 L997.137 72.576 L989.684 72.576 L989.684 65.6084 Q986.97 69.7404 983.364 71.7658 Q979.799 73.7508 975.06 73.7508 Q967.242 73.7508 963.191 68.8897 Q959.14 64.0286 959.14 54.671 M977.895 26.1121 L977.895 26.1121 Z" fill="#000000" fill-rule="nonzero" fill-opacity="1"></path><path clip-path="url(#clip630)" d="M1051.3 48.0275 L1051.3 51.6733 L1017.03 51.6733 Q1017.51 59.3701 1021.65 63.421 Q1025.82 67.4314 1033.23 67.4314 Q1037.52 67.4314 1041.54 66.3781 Q1045.59 65.3249 1049.56 63.2184 L1049.56 70.267 Q1045.55 71.9684 1041.33 72.8596 Q1037.12 73.7508 1032.79 73.7508 Q1021.93 73.7508 1015.57 67.4314 Q1009.25 61.1119 1009.25 50.3365 Q1009.25 39.1965 1015.24 32.6746 Q1021.28 26.1121 1031.49 26.1121 Q1040.64 26.1121 1045.95 32.0264 Q1051.3 37.9003 1051.3 48.0275 M1043.84 45.84 Q1043.76 39.7232 1040.4 36.0774 Q1037.08 32.4315 1031.57 32.4315 Q1025.33 32.4315 1021.56 35.9558 Q1017.84 39.4801 1017.27 45.8805 L1043.84 45.84 Z" fill="#000000" fill-rule="nonzero" fill-opacity="1"></path><path clip-path="url(#clip630)" d="M1092.46 28.5427 L1092.46 35.5912 Q1089.3 33.9709 1085.89 33.1607 Q1082.49 32.3505 1078.84 32.3505 Q1073.29 32.3505 1070.5 34.0519 Q1067.74 35.7533 1067.74 39.156 Q1067.74 41.7486 1069.73 43.2475 Q1071.71 44.7058 1077.71 46.0426 L1080.26 46.6097 Q1088.2 48.3111 1091.52 51.4303 Q1094.89 54.509 1094.89 60.0587 Q1094.89 66.3781 1089.86 70.0644 Q1084.88 73.7508 1076.13 73.7508 Q1072.48 73.7508 1068.51 73.0216 Q1064.58 72.3329 1060.21 70.9151 L1060.21 63.2184 Q1064.34 65.3654 1068.35 66.4591 Q1072.36 67.5124 1076.29 67.5124 Q1081.56 67.5124 1084.39 65.73 Q1087.23 63.9071 1087.23 60.6258 Q1087.23 57.5877 1085.16 55.9673 Q1083.14 54.3469 1076.21 52.8481 L1073.62 52.2405 Q1066.69 50.7821 1063.61 47.7845 Q1060.53 44.7463 1060.53 39.4801 Q1060.53 33.0797 1065.07 29.5959 Q1069.61 26.1121 1077.95 26.1121 Q1082.08 26.1121 1085.73 26.7198 Q1089.38 27.3274 1092.46 28.5427 Z" fill="#000000" fill-rule="nonzero" fill-opacity="1"></path><path clip-path="url(#clip630)" d="M1150.71 32.4315 Q1144.71 32.4315 1141.23 37.1306 Q1137.74 41.7891 1137.74 49.9314 Q1137.74 58.0738 1141.19 62.7728 Q1144.67 67.4314 1150.71 67.4314 Q1156.66 67.4314 1160.15 62.7323 Q1163.63 58.0333 1163.63 49.9314 Q1163.63 41.8701 1160.15 37.1711 Q1156.66 32.4315 1150.71 32.4315 M1150.71 26.1121 Q1160.43 26.1121 1165.98 32.4315 Q1171.53 38.7509 1171.53 49.9314 Q1171.53 61.0714 1165.98 67.4314 Q1160.43 73.7508 1150.71 73.7508 Q1140.94 73.7508 1135.39 67.4314 Q1129.89 61.0714 1129.89 49.9314 Q1129.89 38.7509 1135.39 32.4315 Q1140.94 26.1121 1150.71 26.1121 Z" fill="#000000" fill-rule="nonzero" fill-opacity="1"></path><path clip-path="url(#clip630)" d="M1206.85 9.54393 L1206.85 15.7418 L1199.72 15.7418 Q1195.71 15.7418 1194.13 17.3622 Q1192.59 18.9825 1192.59 23.1955 L1192.59 27.2059 L1204.87 27.2059 L1204.87 32.9987 L1192.59 32.9987 L1192.59 72.576 L1185.1 72.576 L1185.1 32.9987 L1177.97 32.9987 L1177.97 27.2059 L1185.1 27.2059 L1185.1 24.0462 Q1185.1 16.471 1188.62 13.0277 Q1192.15 9.54393 1199.8 9.54393 L1206.85 9.54393 Z" fill="#000000" fill-rule="nonzero" fill-opacity="1"></path><path clip-path="url(#clip630)" d="M1247.97 18.8205 L1247.97 41.5461 L1258.26 41.5461 Q1263.97 41.5461 1267.09 38.5889 Q1270.21 35.6318 1270.21 30.163 Q1270.21 24.7348 1267.09 21.7777 Q1263.97 18.8205 1258.26 18.8205 L1247.97 18.8205 M1239.79 12.096 L1258.26 12.096 Q1268.43 12.096 1273.61 16.714 Q1278.84 21.2916 1278.84 30.163 Q1278.84 39.1155 1273.61 43.6931 Q1268.43 48.2706 1258.26 48.2706 L1247.97 48.2706 L1247.97 72.576 L1239.79 72.576 L1239.79 12.096 Z" fill="#000000" fill-rule="nonzero" fill-opacity="1"></path><path clip-path="url(#clip630)" d="M1304.11 32.4315 Q1298.12 32.4315 1294.64 37.1306 Q1291.15 41.7891 1291.15 49.9314 Q1291.15 58.0738 1294.6 62.7728 Q1298.08 67.4314 1304.11 67.4314 Q1310.07 67.4314 1313.55 62.7323 Q1317.04 58.0333 1317.04 49.9314 Q1317.04 41.8701 1313.55 37.1711 Q1310.07 32.4315 1304.11 32.4315 M1304.11 26.1121 Q1313.84 26.1121 1319.39 32.4315 Q1324.94 38.7509 1324.94 49.9314 Q1324.94 61.0714 1319.39 67.4314 Q1313.84 73.7508 1304.11 73.7508 Q1294.35 73.7508 1288.8 67.4314 Q1283.29 61.0714 1283.29 49.9314 Q1283.29 38.7509 1288.8 32.4315 Q1294.35 26.1121 1304.11 26.1121 Z" fill="#000000" fill-rule="nonzero" fill-opacity="1"></path><path clip-path="url(#clip630)" d="M1366.22 28.5427 L1366.22 35.5912 Q1363.06 33.9709 1359.65 33.1607 Q1356.25 32.3505 1352.6 32.3505 Q1347.05 32.3505 1344.26 34.0519 Q1341.5 35.7533 1341.5 39.156 Q1341.5 41.7486 1343.49 43.2475 Q1345.47 44.7058 1351.47 46.0426 L1354.02 46.6097 Q1361.96 48.3111 1365.28 51.4303 Q1368.65 54.509 1368.65 60.0587 Q1368.65 66.3781 1363.62 70.0644 Q1358.64 73.7508 1349.89 73.7508 Q1346.24 73.7508 1342.27 73.0216 Q1338.34 72.3329 1333.97 70.9151 L1333.97 63.2184 Q1338.1 65.3654 1342.11 66.4591 Q1346.12 67.5124 1350.05 67.5124 Q1355.32 67.5124 1358.15 65.73 Q1360.99 63.9071 1360.99 60.6258 Q1360.99 57.5877 1358.92 55.9673 Q1356.9 54.3469 1349.97 52.8481 L1347.38 52.2405 Q1340.45 50.7821 1337.37 47.7845 Q1334.29 44.7463 1334.29 39.4801 Q1334.29 33.0797 1338.83 29.5959 Q1343.37 26.1121 1351.71 26.1121 Q1355.84 26.1121 1359.49 26.7198 Q1363.14 27.3274 1366.22 28.5427 Z" fill="#000000" fill-rule="nonzero" fill-opacity="1"></path><path clip-path="url(#clip630)" d="M1380.51 27.2059 L1387.97 27.2059 L1387.97 72.576 L1380.51 72.576 L1380.51 27.2059 M1380.51 9.54393 L1387.97 9.54393 L1387.97 18.9825 L1380.51 18.9825 L1380.51 9.54393 Z" fill="#000000" fill-rule="nonzero" fill-opacity="1"></path><path clip-path="url(#clip630)" d="M1410.94 14.324 L1410.94 27.2059 L1426.29 27.2059 L1426.29 32.9987 L1410.94 32.9987 L1410.94 57.6282 Q1410.94 63.1779 1412.44 64.7578 Q1413.98 66.3376 1418.63 66.3376 L1426.29 66.3376 L1426.29 72.576 L1418.63 72.576 Q1410.01 72.576 1406.72 69.3758 Q1403.44 66.1351 1403.44 57.6282 L1403.44 32.9987 L1397.97 32.9987 L1397.97 27.2059 L1403.44 27.2059 L1403.44 14.324 L1410.94 14.324 Z" fill="#000000" fill-rule="nonzero" fill-opacity="1"></path><path clip-path="url(#clip630)" d="M1436.09 27.2059 L1443.55 27.2059 L1443.55 72.576 L1436.09 72.576 L1436.09 27.2059 M1436.09 9.54393 L1443.55 9.54393 L1443.55 18.9825 L1436.09 18.9825 L1436.09 9.54393 Z" fill="#000000" fill-rule="nonzero" fill-opacity="1"></path><path clip-path="url(#clip630)" d="M1476.72 32.4315 Q1470.73 32.4315 1467.24 37.1306 Q1463.76 41.7891 1463.76 49.9314 Q1463.76 58.0738 1467.2 62.7728 Q1470.69 67.4314 1476.72 67.4314 Q1482.68 67.4314 1486.16 62.7323 Q1489.65 58.0333 1489.65 49.9314 Q1489.65 41.8701 1486.16 37.1711 Q1482.68 32.4315 1476.72 32.4315 M1476.72 26.1121 Q1486.45 26.1121 1492 32.4315 Q1497.55 38.7509 1497.55 49.9314 Q1497.55 61.0714 1492 67.4314 Q1486.45 73.7508 1476.72 73.7508 Q1466.96 73.7508 1461.41 67.4314 Q1455.9 61.0714 1455.9 49.9314 Q1455.9 38.7509 1461.41 32.4315 Q1466.96 26.1121 1476.72 26.1121 Z" fill="#000000" fill-rule="nonzero" fill-opacity="1"></path><path clip-path="url(#clip630)" d="M1547.61 45.1919 L1547.61 72.576 L1540.16 72.576 L1540.16 45.4349 Q1540.16 38.994 1537.65 35.7938 Q1535.14 32.5936 1530.11 32.5936 Q1524.08 32.5936 1520.6 36.4419 Q1517.11 40.2903 1517.11 46.9338 L1517.11 72.576 L1509.62 72.576 L1509.62 27.2059 L1517.11 27.2059 L1517.11 34.2544 Q1519.78 30.163 1523.39 28.1376 Q1527.04 26.1121 1531.78 26.1121 Q1539.59 26.1121 1543.6 30.9732 Q1547.61 35.7938 1547.61 45.1919 Z" fill="#000000" fill-rule="nonzero" fill-opacity="1"></path><path clip-path="url(#clip630)" d="M1613.73 17.6457 Q1604.81 17.6457 1599.55 24.2892 Q1594.32 30.9327 1594.32 42.3968 Q1594.32 53.8203 1599.55 60.4638 Q1604.81 67.1073 1613.73 67.1073 Q1622.64 67.1073 1627.82 60.4638 Q1633.05 53.8203 1633.05 42.3968 Q1633.05 30.9327 1627.82 24.2892 Q1622.64 17.6457 1613.73 17.6457 M1613.73 11.0023 Q1626.45 11.0023 1634.06 19.5497 Q1641.68 28.0566 1641.68 42.3968 Q1641.68 56.6965 1634.06 65.2439 Q1626.45 73.7508 1613.73 73.7508 Q1600.97 73.7508 1593.31 65.2439 Q1585.69 56.737 1585.69 42.3968 Q1585.69 28.0566 1593.31 19.5497 Q1600.97 11.0023 1613.73 11.0023 Z" fill="#000000" fill-rule="nonzero" fill-opacity="1"></path><path clip-path="url(#clip630)" d="M1661.36 65.7705 L1661.36 89.8329 L1653.87 89.8329 L1653.87 27.2059 L1661.36 27.2059 L1661.36 34.0924 Q1663.71 30.0415 1667.28 28.0971 Q1670.88 26.1121 1675.87 26.1121 Q1684.13 26.1121 1689.27 32.6746 Q1694.46 39.2371 1694.46 49.9314 Q1694.46 60.6258 1689.27 67.1883 Q1684.13 73.7508 1675.87 73.7508 Q1670.88 73.7508 1667.28 71.8063 Q1663.71 69.8214 1661.36 65.7705 M1686.72 49.9314 Q1686.72 41.7081 1683.32 37.0496 Q1679.96 32.3505 1674.04 32.3505 Q1668.13 32.3505 1664.73 37.0496 Q1661.36 41.7081 1661.36 49.9314 Q1661.36 58.1548 1664.73 62.8538 Q1668.13 67.5124 1674.04 67.5124 Q1679.96 67.5124 1683.32 62.8538 Q1686.72 58.1548 1686.72 49.9314 Z" fill="#000000" fill-rule="nonzero" fill-opacity="1"></path><path clip-path="url(#clip630)" d="M1745.62 48.0275 L1745.62 51.6733 L1711.35 51.6733 Q1711.84 59.3701 1715.97 63.421 Q1720.14 67.4314 1727.56 67.4314 Q1731.85 67.4314 1735.86 66.3781 Q1739.91 65.3249 1743.88 63.2184 L1743.88 70.267 Q1739.87 71.9684 1735.66 72.8596 Q1731.44 73.7508 1727.11 73.7508 Q1716.25 73.7508 1709.89 67.4314 Q1703.57 61.1119 1703.57 50.3365 Q1703.57 39.1965 1709.57 32.6746 Q1715.61 26.1121 1725.81 26.1121 Q1734.97 26.1121 1740.28 32.0264 Q1745.62 37.9003 1745.62 48.0275 M1738.17 45.84 Q1738.09 39.7232 1734.73 36.0774 Q1731.4 32.4315 1725.89 32.4315 Q1719.66 32.4315 1715.89 35.9558 Q1712.16 39.4801 1711.6 45.8805 L1738.17 45.84 Z" fill="#000000" fill-rule="nonzero" fill-opacity="1"></path><path clip-path="url(#clip630)" d="M1784.15 34.1734 Q1782.89 33.4443 1781.39 33.1202 Q1779.93 32.7556 1778.15 32.7556 Q1771.83 32.7556 1768.43 36.8875 Q1765.07 40.9789 1765.07 48.6757 L1765.07 72.576 L1757.57 72.576 L1757.57 27.2059 L1765.07 27.2059 L1765.07 34.2544 Q1767.42 30.1225 1771.18 28.1376 Q1774.95 26.1121 1780.34 26.1121 Q1781.11 26.1121 1782.04 26.2337 Q1782.97 26.3147 1784.11 26.5172 L1784.15 34.1734 Z" fill="#000000" fill-rule="nonzero" fill-opacity="1"></path><path clip-path="url(#clip630)" d="M1812.58 49.7694 Q1803.55 49.7694 1800.07 51.8354 Q1796.58 53.9013 1796.58 58.8839 Q1796.58 62.8538 1799.18 65.2034 Q1801.81 67.5124 1806.31 67.5124 Q1812.5 67.5124 1816.23 63.1374 Q1820 58.7219 1820 51.4303 L1820 49.7694 L1812.58 49.7694 M1827.45 46.6907 L1827.45 72.576 L1820 72.576 L1820 65.6895 Q1817.45 69.8214 1813.64 71.8063 Q1809.83 73.7508 1804.32 73.7508 Q1797.35 73.7508 1793.22 69.8619 Q1789.13 65.9325 1789.13 59.3701 Q1789.13 51.7138 1794.23 47.825 Q1799.38 43.9361 1809.55 43.9361 L1820 43.9361 L1820 43.2069 Q1820 38.0623 1816.59 35.2672 Q1813.23 32.4315 1807.12 32.4315 Q1803.23 32.4315 1799.54 33.3632 Q1795.85 34.295 1792.45 36.1584 L1792.45 29.2718 Q1796.54 27.692 1800.39 26.9223 Q1804.24 26.1121 1807.89 26.1121 Q1817.73 26.1121 1822.59 31.2163 Q1827.45 36.3204 1827.45 46.6907 Z" fill="#000000" fill-rule="nonzero" fill-opacity="1"></path><path clip-path="url(#clip630)" d="M1850.18 14.324 L1850.18 27.2059 L1865.53 27.2059 L1865.53 32.9987 L1850.18 32.9987 L1850.18 57.6282 Q1850.18 63.1779 1851.68 64.7578 Q1853.21 66.3376 1857.87 66.3376 L1865.53 66.3376 L1865.53 72.576 L1857.87 72.576 Q1849.24 72.576 1845.96 69.3758 Q1842.68 66.1351 1842.68 57.6282 L1842.68 32.9987 L1837.21 32.9987 L1837.21 27.2059 L1842.68 27.2059 L1842.68 14.324 L1850.18 14.324 Z" fill="#000000" fill-rule="nonzero" fill-opacity="1"></path><path clip-path="url(#clip630)" d="M1892.91 32.4315 Q1886.92 32.4315 1883.43 37.1306 Q1879.95 41.7891 1879.95 49.9314 Q1879.95 58.0738 1883.39 62.7728 Q1886.88 67.4314 1892.91 67.4314 Q1898.87 67.4314 1902.35 62.7323 Q1905.84 58.0333 1905.84 49.9314 Q1905.84 41.8701 1902.35 37.1711 Q1898.87 32.4315 1892.91 32.4315 M1892.91 26.1121 Q1902.64 26.1121 1908.19 32.4315 Q1913.74 38.7509 1913.74 49.9314 Q1913.74 61.0714 1908.19 67.4314 Q1902.64 73.7508 1892.91 73.7508 Q1883.15 73.7508 1877.6 67.4314 Q1872.09 61.0714 1872.09 49.9314 Q1872.09 38.7509 1877.6 32.4315 Q1883.15 26.1121 1892.91 26.1121 Z" fill="#000000" fill-rule="nonzero" fill-opacity="1"></path><path clip-path="url(#clip630)" d="M1952.38 34.1734 Q1951.13 33.4443 1949.63 33.1202 Q1948.17 32.7556 1946.39 32.7556 Q1940.07 32.7556 1936.66 36.8875 Q1933.3 40.9789 1933.3 48.6757 L1933.3 72.576 L1925.81 72.576 L1925.81 27.2059 L1933.3 27.2059 L1933.3 34.2544 Q1935.65 30.1225 1939.42 28.1376 Q1943.19 26.1121 1948.57 26.1121 Q1949.34 26.1121 1950.27 26.2337 Q1951.21 26.3147 1952.34 26.5172 L1952.38 34.1734 Z" fill="#000000" fill-rule="nonzero" fill-opacity="1"></path><circle clip-path="url(#clip632)" cx="265.903" cy="1386.4" r="21.6" fill="#0000ff" fill-rule="evenodd" fill-opacity="1" stroke="#000000" stroke-opacity="1" stroke-width="3.2"></circle>
<circle clip-path="url(#clip632)" cx="331.26" cy="1364.72" r="21.6" fill="#0000ff" fill-rule="evenodd" fill-opacity="1" stroke="#000000" stroke-opacity="1" stroke-width="3.2"></circle>
<circle clip-path="url(#clip632)" cx="396.617" cy="1304.61" r="21.6" fill="#0000ff" fill-rule="evenodd" fill-opacity="1" stroke="#000000" stroke-opacity="1" stroke-width="3.2"></circle>
<circle clip-path="url(#clip632)" cx="461.974" cy="1282.94" r="21.6" fill="#0000ff" fill-rule="evenodd" fill-opacity="1" stroke="#000000" stroke-opacity="1" stroke-width="3.2"></circle>
<circle clip-path="url(#clip632)" cx="527.332" cy="1224.22" r="21.6" fill="#0000ff" fill-rule="evenodd" fill-opacity="1" stroke="#000000" stroke-opacity="1" stroke-width="3.2"></circle>
<circle clip-path="url(#clip632)" cx="592.689" cy="1202.55" r="21.6" fill="#0000ff" fill-rule="evenodd" fill-opacity="1" stroke="#000000" stroke-opacity="1" stroke-width="3.2"></circle>
<circle clip-path="url(#clip632)" cx="658.046" cy="1144.15" r="21.6" fill="#0000ff" fill-rule="evenodd" fill-opacity="1" stroke="#000000" stroke-opacity="1" stroke-width="3.2"></circle>
<circle clip-path="url(#clip632)" cx="723.403" cy="1122.48" r="21.6" fill="#0000ff" fill-rule="evenodd" fill-opacity="1" stroke="#000000" stroke-opacity="1" stroke-width="3.2"></circle>
<circle clip-path="url(#clip632)" cx="788.76" cy="1064.16" r="21.6" fill="#0000ff" fill-rule="evenodd" fill-opacity="1" stroke="#000000" stroke-opacity="1" stroke-width="3.2"></circle>
<circle clip-path="url(#clip632)" cx="854.117" cy="1042.49" r="21.6" fill="#0000ff" fill-rule="evenodd" fill-opacity="1" stroke="#000000" stroke-opacity="1" stroke-width="3.2"></circle>
<circle clip-path="url(#clip632)" cx="919.474" cy="984.172" r="21.6" fill="#0000ff" fill-rule="evenodd" fill-opacity="1" stroke="#000000" stroke-opacity="1" stroke-width="3.2"></circle>
<circle clip-path="url(#clip632)" cx="984.831" cy="962.5" r="21.6" fill="#0000ff" fill-rule="evenodd" fill-opacity="1" stroke="#000000" stroke-opacity="1" stroke-width="3.2"></circle>
<circle clip-path="url(#clip632)" cx="1050.19" cy="904.175" r="21.6" fill="#0000ff" fill-rule="evenodd" fill-opacity="1" stroke="#000000" stroke-opacity="1" stroke-width="3.2"></circle>
<circle clip-path="url(#clip632)" cx="1115.55" cy="882.503" r="21.6" fill="#0000ff" fill-rule="evenodd" fill-opacity="1" stroke="#000000" stroke-opacity="1" stroke-width="3.2"></circle>
<circle clip-path="url(#clip632)" cx="1180.9" cy="824.167" r="21.6" fill="#0000ff" fill-rule="evenodd" fill-opacity="1" stroke="#000000" stroke-opacity="1" stroke-width="3.2"></circle>
<circle clip-path="url(#clip632)" cx="1246.26" cy="802.496" r="21.6" fill="#0000ff" fill-rule="evenodd" fill-opacity="1" stroke="#000000" stroke-opacity="1" stroke-width="3.2"></circle>
<circle clip-path="url(#clip632)" cx="1311.62" cy="744.156" r="21.6" fill="#0000ff" fill-rule="evenodd" fill-opacity="1" stroke="#000000" stroke-opacity="1" stroke-width="3.2"></circle>
<circle clip-path="url(#clip632)" cx="1376.97" cy="722.485" r="21.6" fill="#0000ff" fill-rule="evenodd" fill-opacity="1" stroke="#000000" stroke-opacity="1" stroke-width="3.2"></circle>
<circle clip-path="url(#clip632)" cx="1442.33" cy="664.149" r="21.6" fill="#0000ff" fill-rule="evenodd" fill-opacity="1" stroke="#000000" stroke-opacity="1" stroke-width="3.2"></circle>
<circle clip-path="url(#clip632)" cx="1507.69" cy="642.477" r="21.6" fill="#0000ff" fill-rule="evenodd" fill-opacity="1" stroke="#000000" stroke-opacity="1" stroke-width="3.2"></circle>
<circle clip-path="url(#clip632)" cx="1573.05" cy="584.152" r="21.6" fill="#0000ff" fill-rule="evenodd" fill-opacity="1" stroke="#000000" stroke-opacity="1" stroke-width="3.2"></circle>
<circle clip-path="url(#clip632)" cx="1638.4" cy="562.48" r="21.6" fill="#0000ff" fill-rule="evenodd" fill-opacity="1" stroke="#000000" stroke-opacity="1" stroke-width="3.2"></circle>
<circle clip-path="url(#clip632)" cx="1703.76" cy="504.165" r="21.6" fill="#0000ff" fill-rule="evenodd" fill-opacity="1" stroke="#000000" stroke-opacity="1" stroke-width="3.2"></circle>
<circle clip-path="url(#clip632)" cx="1769.12" cy="482.494" r="21.6" fill="#0000ff" fill-rule="evenodd" fill-opacity="1" stroke="#000000" stroke-opacity="1" stroke-width="3.2"></circle>
<circle clip-path="url(#clip632)" cx="1834.47" cy="424.172" r="21.6" fill="#0000ff" fill-rule="evenodd" fill-opacity="1" stroke="#000000" stroke-opacity="1" stroke-width="3.2"></circle>
<circle clip-path="url(#clip632)" cx="1899.83" cy="402.5" r="21.6" fill="#0000ff" fill-rule="evenodd" fill-opacity="1" stroke="#000000" stroke-opacity="1" stroke-width="3.2"></circle>
<circle clip-path="url(#clip632)" cx="1965.19" cy="344.102" r="21.6" fill="#0000ff" fill-rule="evenodd" fill-opacity="1" stroke="#000000" stroke-opacity="1" stroke-width="3.2"></circle>
<circle clip-path="url(#clip632)" cx="2030.55" cy="322.431" r="21.6" fill="#0000ff" fill-rule="evenodd" fill-opacity="1" stroke="#000000" stroke-opacity="1" stroke-width="3.2"></circle>
<circle clip-path="url(#clip632)" cx="2095.9" cy="263.715" r="21.6" fill="#0000ff" fill-rule="evenodd" fill-opacity="1" stroke="#000000" stroke-opacity="1" stroke-width="3.2"></circle>
<circle clip-path="url(#clip632)" cx="2161.26" cy="242.044" r="21.6" fill="#0000ff" fill-rule="evenodd" fill-opacity="1" stroke="#000000" stroke-opacity="1" stroke-width="3.2"></circle>
<circle clip-path="url(#clip632)" cx="2226.62" cy="181.927" r="21.6" fill="#0000ff" fill-rule="evenodd" fill-opacity="1" stroke="#000000" stroke-opacity="1" stroke-width="3.2"></circle>
<circle clip-path="url(#clip632)" cx="2291.97" cy="160.256" r="21.6" fill="#0000ff" fill-rule="evenodd" fill-opacity="1" stroke="#000000" stroke-opacity="1" stroke-width="3.2"></circle>
<path clip-path="url(#clip630)" d="M276.709 270.476 L771.124 270.476 L771.124 166.796 L276.709 166.796  Z" fill="#ffffff" fill-rule="evenodd" fill-opacity="1"></path>
<polyline clip-path="url(#clip630)" style="stroke:#000000; stroke-linecap:round; stroke-linejoin:round; stroke-width:4; stroke-opacity:1; fill:none" points="276.709,270.476 771.124,270.476 771.124,166.796 276.709,166.796 276.709,270.476 "></polyline>
<circle clip-path="url(#clip630)" cx="372.159" cy="218.636" r="21.2677" fill="#0000ff" fill-rule="evenodd" fill-opacity="1" stroke="#000000" stroke-opacity="1" stroke-width="3.15077"></circle>
<path clip-path="url(#clip630)" d="M467.61 201.356 L489.461 201.356 L489.461 205.291 L472.286 205.291 L472.286 215.522 L488.744 215.522 L488.744 219.457 L472.286 219.457 L472.286 231.981 L489.878 231.981 L489.878 235.916 L467.61 235.916 L467.61 201.356 Z" fill="#000000" fill-rule="nonzero" fill-opacity="1"></path><path clip-path="url(#clip630)" d="M497.378 209.99 L501.637 209.99 L501.637 235.916 L497.378 235.916 L497.378 209.99 M497.378 199.897 L501.637 199.897 L501.637 205.291 L497.378 205.291 L497.378 199.897 Z" fill="#000000" fill-rule="nonzero" fill-opacity="1"></path><path clip-path="url(#clip630)" d="M527.609 222.652 Q527.609 218.022 525.688 215.476 Q523.79 212.93 520.341 212.93 Q516.915 212.93 514.994 215.476 Q513.096 218.022 513.096 222.652 Q513.096 227.258 514.994 229.805 Q516.915 232.351 520.341 232.351 Q523.79 232.351 525.688 229.805 Q527.609 227.258 527.609 222.652 M531.869 232.698 Q531.869 239.318 528.929 242.536 Q525.989 245.777 519.924 245.777 Q517.679 245.777 515.688 245.43 Q513.697 245.105 511.822 244.411 L511.822 240.268 Q513.697 241.286 515.526 241.772 Q517.355 242.258 519.253 242.258 Q523.443 242.258 525.526 240.059 Q527.609 237.883 527.609 233.462 L527.609 231.356 Q526.29 233.647 524.23 234.781 Q522.17 235.916 519.299 235.916 Q514.531 235.916 511.614 232.281 Q508.697 228.647 508.697 222.652 Q508.697 216.633 511.614 212.999 Q514.531 209.365 519.299 209.365 Q522.17 209.365 524.23 210.499 Q526.29 211.633 527.609 213.925 L527.609 209.99 L531.869 209.99 L531.869 232.698 Z" fill="#000000" fill-rule="nonzero" fill-opacity="1"></path><path clip-path="url(#clip630)" d="M562.818 221.888 L562.818 223.971 L543.234 223.971 Q543.512 228.369 545.873 230.684 Q548.257 232.976 552.493 232.976 Q554.947 232.976 557.239 232.374 Q559.554 231.772 561.822 230.569 L561.822 234.596 Q559.53 235.568 557.123 236.078 Q554.716 236.587 552.239 236.587 Q546.035 236.587 542.401 232.976 Q538.79 229.365 538.79 223.207 Q538.79 216.842 542.216 213.115 Q545.665 209.365 551.498 209.365 Q556.73 209.365 559.762 212.745 Q562.818 216.101 562.818 221.888 M558.558 220.638 Q558.512 217.143 556.591 215.059 Q554.693 212.976 551.544 212.976 Q547.98 212.976 545.827 214.99 Q543.697 217.004 543.373 220.661 L558.558 220.638 Z" fill="#000000" fill-rule="nonzero" fill-opacity="1"></path><path clip-path="url(#clip630)" d="M591.359 220.268 L591.359 235.916 L587.1 235.916 L587.1 220.407 Q587.1 216.726 585.665 214.897 Q584.229 213.069 581.359 213.069 Q577.91 213.069 575.919 215.268 Q573.929 217.467 573.929 221.263 L573.929 235.916 L569.646 235.916 L569.646 209.99 L573.929 209.99 L573.929 214.018 Q575.456 211.68 577.517 210.522 Q579.6 209.365 582.308 209.365 Q586.776 209.365 589.067 212.143 Q591.359 214.897 591.359 220.268 Z" fill="#000000" fill-rule="nonzero" fill-opacity="1"></path><path clip-path="url(#clip630)" d="M596.799 209.99 L601.313 209.99 L609.414 231.749 L617.516 209.99 L622.03 209.99 L612.308 235.916 L606.521 235.916 L596.799 209.99 Z" fill="#000000" fill-rule="nonzero" fill-opacity="1"></path><path clip-path="url(#clip630)" d="M639.692 222.883 Q634.53 222.883 632.539 224.064 Q630.549 225.244 630.549 228.092 Q630.549 230.36 632.03 231.703 Q633.535 233.022 636.104 233.022 Q639.646 233.022 641.775 230.522 Q643.928 227.999 643.928 223.832 L643.928 222.883 L639.692 222.883 M648.187 221.124 L648.187 235.916 L643.928 235.916 L643.928 231.981 Q642.47 234.342 640.294 235.476 Q638.118 236.587 634.97 236.587 Q630.988 236.587 628.627 234.365 Q626.289 232.119 626.289 228.369 Q626.289 223.994 629.206 221.772 Q632.146 219.55 637.956 219.55 L643.928 219.55 L643.928 219.133 Q643.928 216.194 641.984 214.596 Q640.062 212.976 636.567 212.976 Q634.345 212.976 632.238 213.508 Q630.132 214.041 628.188 215.106 L628.188 211.17 Q630.525 210.268 632.725 209.828 Q634.924 209.365 637.007 209.365 Q642.632 209.365 645.41 212.282 Q648.187 215.198 648.187 221.124 Z" fill="#000000" fill-rule="nonzero" fill-opacity="1"></path><path clip-path="url(#clip630)" d="M656.961 199.897 L661.22 199.897 L661.22 235.916 L656.961 235.916 L656.961 199.897 Z" fill="#000000" fill-rule="nonzero" fill-opacity="1"></path><path clip-path="url(#clip630)" d="M669.692 225.684 L669.692 209.99 L673.951 209.99 L673.951 225.522 Q673.951 229.203 675.386 231.055 Q676.822 232.883 679.692 232.883 Q683.141 232.883 685.132 230.684 Q687.146 228.485 687.146 224.689 L687.146 209.99 L691.405 209.99 L691.405 235.916 L687.146 235.916 L687.146 231.934 Q685.595 234.295 683.534 235.453 Q681.497 236.587 678.789 236.587 Q674.322 236.587 672.007 233.809 Q669.692 231.031 669.692 225.684 M680.409 209.365 L680.409 209.365 Z" fill="#000000" fill-rule="nonzero" fill-opacity="1"></path><path clip-path="url(#clip630)" d="M722.354 221.888 L722.354 223.971 L702.77 223.971 Q703.048 228.369 705.409 230.684 Q707.794 232.976 712.03 232.976 Q714.483 232.976 716.775 232.374 Q719.09 231.772 721.358 230.569 L721.358 234.596 Q719.067 235.568 716.659 236.078 Q714.252 236.587 711.775 236.587 Q705.571 236.587 701.937 232.976 Q698.326 229.365 698.326 223.207 Q698.326 216.842 701.752 213.115 Q705.201 209.365 711.034 209.365 Q716.266 209.365 719.298 212.745 Q722.354 216.101 722.354 221.888 M718.094 220.638 Q718.048 217.143 716.127 215.059 Q714.229 212.976 711.081 212.976 Q707.516 212.976 705.363 214.99 Q703.233 217.004 702.909 220.661 L718.094 220.638 Z" fill="#000000" fill-rule="nonzero" fill-opacity="1"></path><path clip-path="url(#clip630)" d="M745.872 210.754 L745.872 214.782 Q744.067 213.856 742.122 213.393 Q740.178 212.93 738.094 212.93 Q734.923 212.93 733.326 213.902 Q731.752 214.874 731.752 216.819 Q731.752 218.3 732.886 219.157 Q734.02 219.99 737.446 220.754 L738.905 221.078 Q743.442 222.05 745.34 223.832 Q747.261 225.592 747.261 228.763 Q747.261 232.374 744.391 234.481 Q741.543 236.587 736.543 236.587 Q734.46 236.587 732.192 236.17 Q729.946 235.777 727.446 234.967 L727.446 230.569 Q729.807 231.795 732.099 232.42 Q734.391 233.022 736.636 233.022 Q739.645 233.022 741.266 232.004 Q742.886 230.962 742.886 229.087 Q742.886 227.351 741.705 226.425 Q740.548 225.499 736.59 224.643 L735.108 224.295 Q731.15 223.462 729.391 221.749 Q727.631 220.013 727.631 217.004 Q727.631 213.346 730.224 211.356 Q732.817 209.365 737.585 209.365 Q739.946 209.365 742.03 209.712 Q744.113 210.059 745.872 210.754 Z" fill="#000000" fill-rule="nonzero" fill-opacity="1"></path></svg>