<svg xmlns="http://www.w3.org/2000/svg" xmlns:xlink="http://www.w3.org/1999/xlink" width="600" height="400" viewBox="0 0 2400 1600">
<defs>
  <clipPath id="clip590">
    <rect x="0" y="0" width="2400" height="1600"></rect>
  </clipPath>
</defs>
<path clip-path="url(#clip590)" d="M0 1600 L2400 1600 L2400 8.88178e-14 L0 8.88178e-14  Z" fill="#ffffff" fill-rule="evenodd" fill-opacity="1"></path>
<defs>
  <clipPath id="clip591">
    <rect x="480" y="0" width="1681" height="1600"></rect>
  </clipPath>
</defs>
<path clip-path="url(#clip590)" d="M203.964 1423.18 L2352.76 1423.18 L2352.76 123.472 L203.964 123.472  Z" fill="#ffffff" fill-rule="evenodd" fill-opacity="1"></path>
<defs>
  <clipPath id="clip592">
    <rect x="203" y="123" width="2150" height="1301"></rect>
  </clipPath>
</defs>
<polyline clip-path="url(#clip592)" style="stroke:#000000; stroke-linecap:round; stroke-linejoin:round; stroke-width:2; stroke-opacity:0.1; fill:none" points="501.667,1423.18 501.667,123.472 "></polyline>
<polyline clip-path="url(#clip592)" style="stroke:#000000; stroke-linecap:round; stroke-linejoin:round; stroke-width:2; stroke-opacity:0.1; fill:none" points="972.39,1423.18 972.39,123.472 "></polyline>
<polyline clip-path="url(#clip592)" style="stroke:#000000; stroke-linecap:round; stroke-linejoin:round; stroke-width:2; stroke-opacity:0.1; fill:none" points="1443.11,1423.18 1443.11,123.472 "></polyline>
<polyline clip-path="url(#clip592)" style="stroke:#000000; stroke-linecap:round; stroke-linejoin:round; stroke-width:2; stroke-opacity:0.1; fill:none" points="1913.84,1423.18 1913.84,123.472 "></polyline>
<polyline clip-path="url(#clip592)" style="stroke:#000000; stroke-linecap:round; stroke-linejoin:round; stroke-width:2; stroke-opacity:0.1; fill:none" points="501.667,1423.18 501.667,123.472 "></polyline>
<polyline clip-path="url(#clip592)" style="stroke:#000000; stroke-linecap:round; stroke-linejoin:round; stroke-width:2; stroke-opacity:0.1; fill:none" points="972.39,1423.18 972.39,123.472 "></polyline>
<polyline clip-path="url(#clip592)" style="stroke:#000000; stroke-linecap:round; stroke-linejoin:round; stroke-width:2; stroke-opacity:0.1; fill:none" points="1443.11,1423.18 1443.11,123.472 "></polyline>
<polyline clip-path="url(#clip592)" style="stroke:#000000; stroke-linecap:round; stroke-linejoin:round; stroke-width:2; stroke-opacity:0.1; fill:none" points="1913.84,1423.18 1913.84,123.472 "></polyline>
<polyline clip-path="url(#clip592)" style="stroke:#000000; stroke-linecap:round; stroke-linejoin:round; stroke-width:2; stroke-opacity:0.1; fill:none" points="203.964,1198.11 2352.76,1198.11 "></polyline>
<polyline clip-path="url(#clip592)" style="stroke:#000000; stroke-linecap:round; stroke-linejoin:round; stroke-width:2; stroke-opacity:0.1; fill:none" points="203.964,962.745 2352.76,962.745 "></polyline>
<polyline clip-path="url(#clip592)" style="stroke:#000000; stroke-linecap:round; stroke-linejoin:round; stroke-width:2; stroke-opacity:0.1; fill:none" points="203.964,727.384 2352.76,727.384 "></polyline>
<polyline clip-path="url(#clip592)" style="stroke:#000000; stroke-linecap:round; stroke-linejoin:round; stroke-width:2; stroke-opacity:0.1; fill:none" points="203.964,492.022 2352.76,492.022 "></polyline>
<polyline clip-path="url(#clip592)" style="stroke:#000000; stroke-linecap:round; stroke-linejoin:round; stroke-width:2; stroke-opacity:0.1; fill:none" points="203.964,256.661 2352.76,256.661 "></polyline>
<polyline clip-path="url(#clip592)" style="stroke:#000000; stroke-linecap:round; stroke-linejoin:round; stroke-width:2; stroke-opacity:0.1; fill:none" points="203.964,1198.11 2352.76,1198.11 "></polyline>
<polyline clip-path="url(#clip592)" style="stroke:#000000; stroke-linecap:round; stroke-linejoin:round; stroke-width:2; stroke-opacity:0.1; fill:none" points="203.964,962.745 2352.76,962.745 "></polyline>
<polyline clip-path="url(#clip592)" style="stroke:#000000; stroke-linecap:round; stroke-linejoin:round; stroke-width:2; stroke-opacity:0.1; fill:none" points="203.964,727.384 2352.76,727.384 "></polyline>
<polyline clip-path="url(#clip592)" style="stroke:#000000; stroke-linecap:round; stroke-linejoin:round; stroke-width:2; stroke-opacity:0.1; fill:none" points="203.964,492.022 2352.76,492.022 "></polyline>
<polyline clip-path="url(#clip592)" style="stroke:#000000; stroke-linecap:round; stroke-linejoin:round; stroke-width:2; stroke-opacity:0.1; fill:none" points="203.964,256.661 2352.76,256.661 "></polyline>
<polyline clip-path="url(#clip590)" style="stroke:#000000; stroke-linecap:round; stroke-linejoin:round; stroke-width:4; stroke-opacity:1; fill:none" points="203.964,1423.18 2352.76,1423.18 "></polyline>
<polyline clip-path="url(#clip590)" style="stroke:#000000; stroke-linecap:round; stroke-linejoin:round; stroke-width:4; stroke-opacity:1; fill:none" points="203.964,123.472 2352.76,123.472 "></polyline>
<polyline clip-path="url(#clip590)" style="stroke:#000000; stroke-linecap:round; stroke-linejoin:round; stroke-width:4; stroke-opacity:1; fill:none" points="501.667,1423.18 501.667,1404.28 "></polyline>
<polyline clip-path="url(#clip590)" style="stroke:#000000; stroke-linecap:round; stroke-linejoin:round; stroke-width:4; stroke-opacity:1; fill:none" points="972.39,1423.18 972.39,1404.28 "></polyline>
<polyline clip-path="url(#clip590)" style="stroke:#000000; stroke-linecap:round; stroke-linejoin:round; stroke-width:4; stroke-opacity:1; fill:none" points="1443.11,1423.18 1443.11,1404.28 "></polyline>
<polyline clip-path="url(#clip590)" style="stroke:#000000; stroke-linecap:round; stroke-linejoin:round; stroke-width:4; stroke-opacity:1; fill:none" points="1913.84,1423.18 1913.84,1404.28 "></polyline>
<polyline clip-path="url(#clip590)" style="stroke:#000000; stroke-linecap:round; stroke-linejoin:round; stroke-width:4; stroke-opacity:1; fill:none" points="501.667,123.472 501.667,142.37 "></polyline>
<polyline clip-path="url(#clip590)" style="stroke:#000000; stroke-linecap:round; stroke-linejoin:round; stroke-width:4; stroke-opacity:1; fill:none" points="972.39,123.472 972.39,142.37 "></polyline>
<polyline clip-path="url(#clip590)" style="stroke:#000000; stroke-linecap:round; stroke-linejoin:round; stroke-width:4; stroke-opacity:1; fill:none" points="1443.11,123.472 1443.11,142.37 "></polyline>
<polyline clip-path="url(#clip590)" style="stroke:#000000; stroke-linecap:round; stroke-linejoin:round; stroke-width:4; stroke-opacity:1; fill:none" points="1913.84,123.472 1913.84,142.37 "></polyline>
<path clip-path="url(#clip590)" d="M501.667 1454.1 Q498.056 1454.1 496.227 1457.66 Q494.422 1461.2 494.422 1468.33 Q494.422 1475.44 496.227 1479.01 Q498.056 1482.55 501.667 1482.55 Q505.301 1482.55 507.107 1479.01 Q508.936 1475.44 508.936 1468.33 Q508.936 1461.2 507.107 1457.66 Q505.301 1454.1 501.667 1454.1 M501.667 1450.39 Q507.477 1450.39 510.533 1455 Q513.611 1459.58 513.611 1468.33 Q513.611 1477.06 510.533 1481.67 Q507.477 1486.25 501.667 1486.25 Q495.857 1486.25 492.778 1481.67 Q489.723 1477.06 489.723 1468.33 Q489.723 1459.58 492.778 1455 Q495.857 1450.39 501.667 1450.39 Z" fill="#000000" fill-rule="nonzero" fill-opacity="1"></path><path clip-path="url(#clip590)" d="M947.078 1481.64 L954.716 1481.64 L954.716 1455.28 L946.406 1456.95 L946.406 1452.69 L954.67 1451.02 L959.346 1451.02 L959.346 1481.64 L966.985 1481.64 L966.985 1485.58 L947.078 1485.58 L947.078 1481.64 Z" fill="#000000" fill-rule="nonzero" fill-opacity="1"></path><path clip-path="url(#clip590)" d="M986.429 1454.1 Q982.818 1454.1 980.989 1457.66 Q979.184 1461.2 979.184 1468.33 Q979.184 1475.44 980.989 1479.01 Q982.818 1482.55 986.429 1482.55 Q990.063 1482.55 991.869 1479.01 Q993.698 1475.44 993.698 1468.33 Q993.698 1461.2 991.869 1457.66 Q990.063 1454.1 986.429 1454.1 M986.429 1450.39 Q992.239 1450.39 995.295 1455 Q998.374 1459.58 998.374 1468.33 Q998.374 1477.06 995.295 1481.67 Q992.239 1486.25 986.429 1486.25 Q980.619 1486.25 977.54 1481.67 Q974.485 1477.06 974.485 1468.33 Q974.485 1459.58 977.54 1455 Q980.619 1450.39 986.429 1450.39 Z" fill="#000000" fill-rule="nonzero" fill-opacity="1"></path><path clip-path="url(#clip590)" d="M1421.89 1481.64 L1438.21 1481.64 L1438.21 1485.58 L1416.26 1485.58 L1416.26 1481.64 Q1418.92 1478.89 1423.51 1474.26 Q1428.11 1469.61 1429.29 1468.27 Q1431.54 1465.74 1432.42 1464.01 Q1433.32 1462.25 1433.32 1460.56 Q1433.32 1457.8 1431.38 1456.07 Q1429.46 1454.33 1426.35 1454.33 Q1424.15 1454.33 1421.7 1455.09 Q1419.27 1455.86 1416.49 1457.41 L1416.49 1452.69 Q1419.32 1451.55 1421.77 1450.97 Q1424.22 1450.39 1426.26 1450.39 Q1431.63 1450.39 1434.83 1453.08 Q1438.02 1455.77 1438.02 1460.26 Q1438.02 1462.39 1437.21 1464.31 Q1436.42 1466.2 1434.32 1468.8 Q1433.74 1469.47 1430.64 1472.69 Q1427.53 1475.88 1421.89 1481.64 Z" fill="#000000" fill-rule="nonzero" fill-opacity="1"></path><path clip-path="url(#clip590)" d="M1458.02 1454.1 Q1454.41 1454.1 1452.58 1457.66 Q1450.77 1461.2 1450.77 1468.33 Q1450.77 1475.44 1452.58 1479.01 Q1454.41 1482.55 1458.02 1482.55 Q1461.65 1482.55 1463.46 1479.01 Q1465.29 1475.44 1465.29 1468.33 Q1465.29 1461.2 1463.46 1457.66 Q1461.65 1454.1 1458.02 1454.1 M1458.02 1450.39 Q1463.83 1450.39 1466.89 1455 Q1469.96 1459.58 1469.96 1468.33 Q1469.96 1477.06 1466.89 1481.67 Q1463.83 1486.25 1458.02 1486.25 Q1452.21 1486.25 1449.13 1481.67 Q1446.08 1477.06 1446.08 1468.33 Q1446.08 1459.58 1449.13 1455 Q1452.21 1450.39 1458.02 1450.39 Z" fill="#000000" fill-rule="nonzero" fill-opacity="1"></path><path clip-path="url(#clip590)" d="M1902.68 1466.95 Q1906.03 1467.66 1907.91 1469.93 Q1909.81 1472.2 1909.81 1475.53 Q1909.81 1480.65 1906.29 1483.45 Q1902.77 1486.25 1896.29 1486.25 Q1894.11 1486.25 1891.8 1485.81 Q1889.51 1485.39 1887.05 1484.54 L1887.05 1480.02 Q1889 1481.16 1891.31 1481.74 Q1893.63 1482.32 1896.15 1482.32 Q1900.55 1482.32 1902.84 1480.58 Q1905.16 1478.84 1905.16 1475.53 Q1905.16 1472.48 1903 1470.77 Q1900.87 1469.03 1897.05 1469.03 L1893.03 1469.03 L1893.03 1465.19 L1897.24 1465.19 Q1900.69 1465.19 1902.52 1463.82 Q1904.34 1462.43 1904.34 1459.84 Q1904.34 1457.18 1902.45 1455.77 Q1900.57 1454.33 1897.05 1454.33 Q1895.13 1454.33 1892.93 1454.75 Q1890.73 1455.16 1888.09 1456.04 L1888.09 1451.88 Q1890.76 1451.14 1893.07 1450.77 Q1895.41 1450.39 1897.47 1450.39 Q1902.79 1450.39 1905.9 1452.83 Q1909 1455.23 1909 1459.35 Q1909 1462.22 1907.35 1464.21 Q1905.71 1466.18 1902.68 1466.95 Z" fill="#000000" fill-rule="nonzero" fill-opacity="1"></path><path clip-path="url(#clip590)" d="M1928.67 1454.1 Q1925.06 1454.1 1923.23 1457.66 Q1921.43 1461.2 1921.43 1468.33 Q1921.43 1475.44 1923.23 1479.01 Q1925.06 1482.55 1928.67 1482.55 Q1932.31 1482.55 1934.11 1479.01 Q1935.94 1475.44 1935.94 1468.33 Q1935.94 1461.2 1934.11 1457.66 Q1932.31 1454.1 1928.67 1454.1 M1928.67 1450.39 Q1934.48 1450.39 1937.54 1455 Q1940.62 1459.58 1940.62 1468.33 Q1940.62 1477.06 1937.54 1481.67 Q1934.48 1486.25 1928.67 1486.25 Q1922.86 1486.25 1919.78 1481.67 Q1916.73 1477.06 1916.73 1468.33 Q1916.73 1459.58 1919.78 1455 Q1922.86 1450.39 1928.67 1450.39 Z" fill="#000000" fill-rule="nonzero" fill-opacity="1"></path><path clip-path="url(#clip590)" d="M1146.08 1520.52 L1152.51 1520.52 L1152.51 1568.04 L1146.08 1568.04 L1146.08 1520.52 Z" fill="#000000" fill-rule="nonzero" fill-opacity="1"></path><path clip-path="url(#clip590)" d="M1170.84 1522.27 L1170.84 1532.4 L1182.91 1532.4 L1182.91 1536.95 L1170.84 1536.95 L1170.84 1556.3 Q1170.84 1560.66 1172.02 1561.9 Q1173.23 1563.14 1176.89 1563.14 L1182.91 1563.14 L1182.91 1568.04 L1176.89 1568.04 Q1170.11 1568.04 1167.53 1565.53 Q1164.95 1562.98 1164.95 1556.3 L1164.95 1536.95 L1160.66 1536.95 L1160.66 1532.4 L1164.95 1532.4 L1164.95 1522.27 L1170.84 1522.27 Z" fill="#000000" fill-rule="nonzero" fill-opacity="1"></path><path clip-path="url(#clip590)" d="M1221.1 1548.76 L1221.1 1551.62 L1194.17 1551.62 Q1194.56 1557.67 1197.8 1560.85 Q1201.08 1564 1206.9 1564 Q1210.28 1564 1213.43 1563.17 Q1216.61 1562.35 1219.73 1560.69 L1219.73 1566.23 Q1216.58 1567.57 1213.27 1568.27 Q1209.96 1568.97 1206.55 1568.97 Q1198.02 1568.97 1193.03 1564 Q1188.06 1559.04 1188.06 1550.57 Q1188.06 1541.82 1192.77 1536.69 Q1197.52 1531.54 1205.54 1531.54 Q1212.73 1531.54 1216.9 1536.18 Q1221.1 1540.8 1221.1 1548.76 M1215.24 1547.04 Q1215.18 1542.23 1212.54 1539.37 Q1209.93 1536.5 1205.6 1536.5 Q1200.7 1536.5 1197.74 1539.27 Q1194.81 1542.04 1194.36 1547.07 L1215.24 1547.04 Z" fill="#000000" fill-rule="nonzero" fill-opacity="1"></path><path clip-path="url(#clip590)" d="M1251.37 1537.87 Q1250.38 1537.3 1249.2 1537.04 Q1248.06 1536.76 1246.66 1536.76 Q1241.69 1536.76 1239.02 1540 Q1236.38 1543.22 1236.38 1549.27 L1236.38 1568.04 L1230.49 1568.04 L1230.49 1532.4 L1236.38 1532.4 L1236.38 1537.93 Q1238.22 1534.69 1241.18 1533.13 Q1244.14 1531.54 1248.38 1531.54 Q1248.98 1531.54 1249.71 1531.63 Q1250.45 1531.7 1251.34 1531.85 L1251.37 1537.87 Z" fill="#000000" fill-rule="nonzero" fill-opacity="1"></path><path clip-path="url(#clip590)" d="M1273.71 1550.12 Q1266.62 1550.12 1263.88 1551.75 Q1261.14 1553.37 1261.14 1557.29 Q1261.14 1560.4 1263.18 1562.25 Q1265.25 1564.07 1268.78 1564.07 Q1273.65 1564.07 1276.58 1560.63 Q1279.54 1557.16 1279.54 1551.43 L1279.54 1550.12 L1273.71 1550.12 M1285.39 1547.71 L1285.39 1568.04 L1279.54 1568.04 L1279.54 1562.63 Q1277.53 1565.88 1274.54 1567.44 Q1271.55 1568.97 1267.22 1568.97 Q1261.75 1568.97 1258.5 1565.91 Q1255.28 1562.82 1255.28 1557.67 Q1255.28 1551.65 1259.29 1548.6 Q1263.34 1545.54 1271.33 1545.54 L1279.54 1545.54 L1279.54 1544.97 Q1279.54 1540.93 1276.86 1538.73 Q1274.22 1536.5 1269.42 1536.5 Q1266.36 1536.5 1263.46 1537.23 Q1260.57 1537.97 1257.89 1539.43 L1257.89 1534.02 Q1261.11 1532.78 1264.13 1532.17 Q1267.16 1531.54 1270.02 1531.54 Q1277.75 1531.54 1281.57 1535.55 Q1285.39 1539.56 1285.39 1547.71 Z" fill="#000000" fill-rule="nonzero" fill-opacity="1"></path><path clip-path="url(#clip590)" d="M1303.25 1522.27 L1303.25 1532.4 L1315.31 1532.4 L1315.31 1536.95 L1303.25 1536.95 L1303.25 1556.3 Q1303.25 1560.66 1304.43 1561.9 Q1305.64 1563.14 1309.3 1563.14 L1315.31 1563.14 L1315.31 1568.04 L1309.3 1568.04 Q1302.52 1568.04 1299.94 1565.53 Q1297.36 1562.98 1297.36 1556.3 L1297.36 1536.95 L1293.06 1536.95 L1293.06 1532.4 L1297.36 1532.4 L1297.36 1522.27 L1303.25 1522.27 Z" fill="#000000" fill-rule="nonzero" fill-opacity="1"></path><path clip-path="url(#clip590)" d="M1323.02 1532.4 L1328.87 1532.4 L1328.87 1568.04 L1323.02 1568.04 L1323.02 1532.4 M1323.02 1518.52 L1328.87 1518.52 L1328.87 1525.93 L1323.02 1525.93 L1323.02 1518.52 Z" fill="#000000" fill-rule="nonzero" fill-opacity="1"></path><path clip-path="url(#clip590)" d="M1354.94 1536.5 Q1350.23 1536.5 1347.49 1540.19 Q1344.75 1543.85 1344.75 1550.25 Q1344.75 1556.65 1347.46 1560.34 Q1350.2 1564 1354.94 1564 Q1359.62 1564 1362.36 1560.31 Q1365.09 1556.62 1365.09 1550.25 Q1365.09 1543.92 1362.36 1540.23 Q1359.62 1536.5 1354.94 1536.5 M1354.94 1531.54 Q1362.58 1531.54 1366.94 1536.5 Q1371.3 1541.47 1371.3 1550.25 Q1371.3 1559 1366.94 1564 Q1362.58 1568.97 1354.94 1568.97 Q1347.27 1568.97 1342.91 1564 Q1338.58 1559 1338.58 1550.25 Q1338.58 1541.47 1342.91 1536.5 Q1347.27 1531.54 1354.94 1531.54 Z" fill="#000000" fill-rule="nonzero" fill-opacity="1"></path><path clip-path="url(#clip590)" d="M1410.64 1546.53 L1410.64 1568.04 L1404.78 1568.04 L1404.78 1546.72 Q1404.78 1541.66 1402.81 1539.14 Q1400.84 1536.63 1396.89 1536.63 Q1392.15 1536.63 1389.41 1539.65 Q1386.67 1542.68 1386.67 1547.9 L1386.67 1568.04 L1380.78 1568.04 L1380.78 1532.4 L1386.67 1532.4 L1386.67 1537.93 Q1388.77 1534.72 1391.61 1533.13 Q1394.47 1531.54 1398.19 1531.54 Q1404.34 1531.54 1407.49 1535.36 Q1410.64 1539.14 1410.64 1546.53 Z" fill="#000000" fill-rule="nonzero" fill-opacity="1"></path><polyline clip-path="url(#clip590)" style="stroke:#000000; stroke-linecap:round; stroke-linejoin:round; stroke-width:4; stroke-opacity:1; fill:none" points="203.964,1423.18 203.964,123.472 "></polyline>
<polyline clip-path="url(#clip590)" style="stroke:#000000; stroke-linecap:round; stroke-linejoin:round; stroke-width:4; stroke-opacity:1; fill:none" points="2352.76,1423.18 2352.76,123.472 "></polyline>
<polyline clip-path="url(#clip590)" style="stroke:#000000; stroke-linecap:round; stroke-linejoin:round; stroke-width:4; stroke-opacity:1; fill:none" points="203.964,1198.11 222.861,1198.11 "></polyline>
<polyline clip-path="url(#clip590)" style="stroke:#000000; stroke-linecap:round; stroke-linejoin:round; stroke-width:4; stroke-opacity:1; fill:none" points="203.964,962.745 222.861,962.745 "></polyline>
<polyline clip-path="url(#clip590)" style="stroke:#000000; stroke-linecap:round; stroke-linejoin:round; stroke-width:4; stroke-opacity:1; fill:none" points="203.964,727.384 222.861,727.384 "></polyline>
<polyline clip-path="url(#clip590)" style="stroke:#000000; stroke-linecap:round; stroke-linejoin:round; stroke-width:4; stroke-opacity:1; fill:none" points="203.964,492.022 222.861,492.022 "></polyline>
<polyline clip-path="url(#clip590)" style="stroke:#000000; stroke-linecap:round; stroke-linejoin:round; stroke-width:4; stroke-opacity:1; fill:none" points="203.964,256.661 222.861,256.661 "></polyline>
<polyline clip-path="url(#clip590)" style="stroke:#000000; stroke-linecap:round; stroke-linejoin:round; stroke-width:4; stroke-opacity:1; fill:none" points="2352.76,1198.11 2333.86,1198.11 "></polyline>
<polyline clip-path="url(#clip590)" style="stroke:#000000; stroke-linecap:round; stroke-linejoin:round; stroke-width:4; stroke-opacity:1; fill:none" points="2352.76,962.745 2333.86,962.745 "></polyline>
<polyline clip-path="url(#clip590)" style="stroke:#000000; stroke-linecap:round; stroke-linejoin:round; stroke-width:4; stroke-opacity:1; fill:none" points="2352.76,727.384 2333.86,727.384 "></polyline>
<polyline clip-path="url(#clip590)" style="stroke:#000000; stroke-linecap:round; stroke-linejoin:round; stroke-width:4; stroke-opacity:1; fill:none" points="2352.76,492.022 2333.86,492.022 "></polyline>
<polyline clip-path="url(#clip590)" style="stroke:#000000; stroke-linecap:round; stroke-linejoin:round; stroke-width:4; stroke-opacity:1; fill:none" points="2352.76,256.661 2333.86,256.661 "></polyline>
<path clip-path="url(#clip590)" d="M147.061 1180.83 L165.417 1180.83 L165.417 1184.76 L151.343 1184.76 L151.343 1193.23 Q152.362 1192.89 153.38 1192.72 Q154.399 1192.54 155.417 1192.54 Q161.204 1192.54 164.584 1195.71 Q167.964 1198.88 167.964 1204.3 Q167.964 1209.88 164.491 1212.98 Q161.019 1216.06 154.7 1216.06 Q152.524 1216.06 150.255 1215.69 Q148.01 1215.32 145.603 1214.58 L145.603 1209.88 Q147.686 1211.01 149.908 1211.57 Q152.13 1212.12 154.607 1212.12 Q158.612 1212.12 160.95 1210.02 Q163.288 1207.91 163.288 1204.3 Q163.288 1200.69 160.95 1198.58 Q158.612 1196.47 154.607 1196.47 Q152.732 1196.47 150.857 1196.89 Q149.005 1197.31 147.061 1198.19 L147.061 1180.83 Z" fill="#000000" fill-rule="nonzero" fill-opacity="1"></path><path clip-path="url(#clip590)" d="M116.668 976.09 L124.306 976.09 L124.306 949.724 L115.996 951.391 L115.996 947.132 L124.26 945.465 L128.936 945.465 L128.936 976.09 L136.575 976.09 L136.575 980.025 L116.668 980.025 L116.668 976.09 Z" fill="#000000" fill-rule="nonzero" fill-opacity="1"></path><path clip-path="url(#clip590)" d="M156.019 948.544 Q152.408 948.544 150.579 952.109 Q148.774 955.65 148.774 962.78 Q148.774 969.886 150.579 973.451 Q152.408 976.993 156.019 976.993 Q159.653 976.993 161.459 973.451 Q163.288 969.886 163.288 962.78 Q163.288 955.65 161.459 952.109 Q159.653 948.544 156.019 948.544 M156.019 944.84 Q161.829 944.84 164.885 949.447 Q167.964 954.03 167.964 962.78 Q167.964 971.507 164.885 976.113 Q161.829 980.696 156.019 980.696 Q150.209 980.696 147.13 976.113 Q144.075 971.507 144.075 962.78 Q144.075 954.03 147.13 949.447 Q150.209 944.84 156.019 944.84 Z" fill="#000000" fill-rule="nonzero" fill-opacity="1"></path><path clip-path="url(#clip590)" d="M117.663 740.729 L125.302 740.729 L125.302 714.363 L116.992 716.03 L116.992 711.77 L125.255 710.104 L129.931 710.104 L129.931 740.729 L137.57 740.729 L137.57 744.664 L117.663 744.664 L117.663 740.729 Z" fill="#000000" fill-rule="nonzero" fill-opacity="1"></path><path clip-path="url(#clip590)" d="M147.061 710.104 L165.417 710.104 L165.417 714.039 L151.343 714.039 L151.343 722.511 Q152.362 722.164 153.38 722.002 Q154.399 721.817 155.417 721.817 Q161.204 721.817 164.584 724.988 Q167.964 728.159 167.964 733.576 Q167.964 739.154 164.491 742.256 Q161.019 745.335 154.7 745.335 Q152.524 745.335 150.255 744.965 Q148.01 744.594 145.603 743.853 L145.603 739.154 Q147.686 740.289 149.908 740.844 Q152.13 741.4 154.607 741.4 Q158.612 741.4 160.95 739.293 Q163.288 737.187 163.288 733.576 Q163.288 729.965 160.95 727.858 Q158.612 725.752 154.607 725.752 Q152.732 725.752 150.857 726.168 Q149.005 726.585 147.061 727.465 L147.061 710.104 Z" fill="#000000" fill-rule="nonzero" fill-opacity="1"></path><path clip-path="url(#clip590)" d="M119.885 505.367 L136.204 505.367 L136.204 509.302 L114.26 509.302 L114.26 505.367 Q116.922 502.612 121.505 497.983 Q126.112 493.33 127.292 491.988 Q129.538 489.464 130.417 487.728 Q131.32 485.969 131.32 484.279 Q131.32 481.525 129.376 479.789 Q127.455 478.052 124.353 478.052 Q122.154 478.052 119.7 478.816 Q117.269 479.58 114.492 481.131 L114.492 476.409 Q117.316 475.275 119.769 474.696 Q122.223 474.117 124.26 474.117 Q129.63 474.117 132.825 476.802 Q136.019 479.488 136.019 483.978 Q136.019 486.108 135.209 488.029 Q134.422 489.927 132.316 492.52 Q131.737 493.191 128.635 496.409 Q125.533 499.603 119.885 505.367 Z" fill="#000000" fill-rule="nonzero" fill-opacity="1"></path><path clip-path="url(#clip590)" d="M156.019 477.821 Q152.408 477.821 150.579 481.386 Q148.774 484.927 148.774 492.057 Q148.774 499.163 150.579 502.728 Q152.408 506.27 156.019 506.27 Q159.653 506.27 161.459 502.728 Q163.288 499.163 163.288 492.057 Q163.288 484.927 161.459 481.386 Q159.653 477.821 156.019 477.821 M156.019 474.117 Q161.829 474.117 164.885 478.724 Q167.964 483.307 167.964 492.057 Q167.964 500.784 164.885 505.39 Q161.829 509.974 156.019 509.974 Q150.209 509.974 147.13 505.39 Q144.075 500.784 144.075 492.057 Q144.075 483.307 147.13 478.724 Q150.209 474.117 156.019 474.117 Z" fill="#000000" fill-rule="nonzero" fill-opacity="1"></path><path clip-path="url(#clip590)" d="M120.88 270.006 L137.2 270.006 L137.2 273.941 L115.256 273.941 L115.256 270.006 Q117.918 267.251 122.501 262.621 Q127.107 257.969 128.288 256.626 Q130.533 254.103 131.413 252.367 Q132.316 250.608 132.316 248.918 Q132.316 246.163 130.371 244.427 Q128.45 242.691 125.348 242.691 Q123.149 242.691 120.695 243.455 Q118.265 244.219 115.487 245.77 L115.487 241.047 Q118.311 239.913 120.765 239.335 Q123.218 238.756 125.255 238.756 Q130.626 238.756 133.82 241.441 Q137.015 244.126 137.015 248.617 Q137.015 250.747 136.204 252.668 Q135.417 254.566 133.311 257.159 Q132.732 257.83 129.63 261.047 Q126.529 264.242 120.88 270.006 Z" fill="#000000" fill-rule="nonzero" fill-opacity="1"></path><path clip-path="url(#clip590)" d="M147.061 239.381 L165.417 239.381 L165.417 243.316 L151.343 243.316 L151.343 251.788 Q152.362 251.441 153.38 251.279 Q154.399 251.094 155.417 251.094 Q161.204 251.094 164.584 254.265 Q167.964 257.436 167.964 262.853 Q167.964 268.432 164.491 271.533 Q161.019 274.612 154.7 274.612 Q152.524 274.612 150.255 274.242 Q148.01 273.871 145.603 273.131 L145.603 268.432 Q147.686 269.566 149.908 270.121 Q152.13 270.677 154.607 270.677 Q158.612 270.677 160.95 268.57 Q163.288 266.464 163.288 262.853 Q163.288 259.242 160.95 257.135 Q158.612 255.029 154.607 255.029 Q152.732 255.029 150.857 255.446 Q149.005 255.862 147.061 256.742 L147.061 239.381 Z" fill="#000000" fill-rule="nonzero" fill-opacity="1"></path><path clip-path="url(#clip590)" d="M20.8447 1072.28 Q20.8447 1079.28 26.0645 1083.42 Q31.2844 1087.52 40.2919 1087.52 Q49.2675 1087.52 54.4874 1083.42 Q59.7073 1079.28 59.7073 1072.28 Q59.7073 1065.27 54.4874 1061.2 Q49.2675 1057.09 40.2919 1057.09 Q31.2844 1057.09 26.0645 1061.2 Q20.8447 1065.27 20.8447 1072.28 M15.6248 1072.28 Q15.6248 1062.28 22.3406 1056.3 Q29.0246 1050.31 40.2919 1050.31 Q51.5274 1050.31 58.2432 1056.3 Q64.9272 1062.28 64.9272 1072.28 Q64.9272 1082.3 58.2432 1088.32 Q51.5592 1094.3 40.2919 1094.3 Q29.0246 1094.3 22.3406 1088.32 Q15.6248 1082.3 15.6248 1072.28 Z" fill="#000000" fill-rule="nonzero" fill-opacity="1"></path><path clip-path="url(#clip590)" d="M29.7248 1014.86 L35.1993 1014.86 Q33.8307 1017.34 33.1623 1019.85 Q32.4621 1022.34 32.4621 1024.88 Q32.4621 1030.58 36.0905 1033.73 Q39.6872 1036.88 46.212 1036.88 Q52.7369 1036.88 56.3653 1033.73 Q59.9619 1030.58 59.9619 1024.88 Q59.9619 1022.34 59.2935 1019.85 Q58.5933 1017.34 57.2247 1014.86 L62.6355 1014.86 Q63.7814 1017.31 64.3543 1019.95 Q64.9272 1022.56 64.9272 1025.52 Q64.9272 1033.57 59.8664 1038.31 Q54.8057 1043.06 46.212 1043.06 Q37.491 1043.06 32.4939 1038.28 Q27.4968 1033.48 27.4968 1025.14 Q27.4968 1022.43 28.0697 1019.85 Q28.6108 1017.28 29.7248 1014.86 Z" fill="#000000" fill-rule="nonzero" fill-opacity="1"></path><path clip-path="url(#clip590)" d="M29.7248 979.018 L35.1993 979.018 Q33.8307 981.501 33.1623 984.015 Q32.4621 986.498 32.4621 989.044 Q32.4621 994.741 36.0905 997.892 Q39.6872 1001.04 46.212 1001.04 Q52.7369 1001.04 56.3653 997.892 Q59.9619 994.741 59.9619 989.044 Q59.9619 986.498 59.2935 984.015 Q58.5933 981.501 57.2247 979.018 L62.6355 979.018 Q63.7814 981.469 64.3543 984.11 Q64.9272 986.72 64.9272 989.68 Q64.9272 997.733 59.8664 1002.48 Q54.8057 1007.22 46.212 1007.22 Q37.491 1007.22 32.4939 1002.44 Q27.4968 997.638 27.4968 989.298 Q27.4968 986.593 28.0697 984.015 Q28.6108 981.437 29.7248 979.018 Z" fill="#000000" fill-rule="nonzero" fill-opacity="1"></path><path clip-path="url(#clip590)" d="M49.9359 969.437 L28.3562 969.437 L28.3562 963.581 L49.7131 963.581 Q54.7739 963.581 57.3202 961.608 Q59.8346 959.634 59.8346 955.688 Q59.8346 950.945 56.8109 948.208 Q53.7872 945.439 48.5673 945.439 L28.3562 945.439 L28.3562 939.582 L64.0042 939.582 L64.0042 945.439 L58.5296 945.439 Q61.7762 947.571 63.3676 950.404 Q64.9272 953.205 64.9272 956.929 Q64.9272 963.072 61.1078 966.255 Q57.2883 969.437 49.9359 969.437 M27.4968 954.701 L27.4968 954.701 Z" fill="#000000" fill-rule="nonzero" fill-opacity="1"></path><path clip-path="url(#clip590)" d="M58.657 921.854 L77.5631 921.854 L77.5631 927.742 L28.3562 927.742 L28.3562 921.854 L33.7671 921.854 Q30.5842 920.008 29.0564 917.207 Q27.4968 914.374 27.4968 910.459 Q27.4968 903.966 32.6531 899.924 Q37.8093 895.85 46.212 895.85 Q54.6147 895.85 59.771 899.924 Q64.9272 903.966 64.9272 910.459 Q64.9272 914.374 63.3994 917.207 Q61.8398 920.008 58.657 921.854 M46.212 901.929 Q39.7508 901.929 36.0905 904.603 Q32.3984 907.245 32.3984 911.892 Q32.3984 916.538 36.0905 919.212 Q39.7508 921.854 46.212 921.854 Q52.6732 921.854 56.3653 919.212 Q60.0256 916.538 60.0256 911.892 Q60.0256 907.245 56.3653 904.603 Q52.6732 901.929 46.212 901.929 Z" fill="#000000" fill-rule="nonzero" fill-opacity="1"></path><path clip-path="url(#clip590)" d="M46.0847 869.941 Q46.0847 877.039 47.7079 879.777 Q49.3312 882.514 53.2461 882.514 Q56.3653 882.514 58.2114 880.477 Q60.0256 878.408 60.0256 874.875 Q60.0256 870.005 56.5881 867.077 Q53.1188 864.117 47.3897 864.117 L46.0847 864.117 L46.0847 869.941 M43.6657 858.26 L64.0042 858.26 L64.0042 864.117 L58.5933 864.117 Q61.8398 866.122 63.3994 869.114 Q64.9272 872.106 64.9272 876.435 Q64.9272 881.909 61.8716 885.156 Q58.7843 888.37 53.6281 888.37 Q47.6125 888.37 44.5569 884.36 Q41.5014 880.318 41.5014 872.329 L41.5014 864.117 L40.9285 864.117 Q36.8862 864.117 34.6901 866.79 Q32.4621 869.432 32.4621 874.238 Q32.4621 877.294 33.1941 880.19 Q33.9262 883.087 35.3903 885.76 L29.9795 885.76 Q28.7381 882.546 28.1334 879.522 Q27.4968 876.498 27.4968 873.634 Q27.4968 865.899 31.5072 862.08 Q35.5176 858.26 43.6657 858.26 Z" fill="#000000" fill-rule="nonzero" fill-opacity="1"></path><path clip-path="url(#clip590)" d="M18.2347 840.405 L28.3562 840.405 L28.3562 828.342 L32.9077 828.342 L32.9077 840.405 L52.2594 840.405 Q56.6199 840.405 57.8613 839.227 Q59.1026 838.017 59.1026 834.357 L59.1026 828.342 L64.0042 828.342 L64.0042 834.357 Q64.0042 841.137 61.4897 843.715 Q58.9434 846.293 52.2594 846.293 L32.9077 846.293 L32.9077 850.59 L28.3562 850.59 L28.3562 846.293 L18.2347 846.293 L18.2347 840.405 Z" fill="#000000" fill-rule="nonzero" fill-opacity="1"></path><path clip-path="url(#clip590)" d="M28.3562 820.639 L28.3562 814.783 L64.0042 814.783 L64.0042 820.639 L28.3562 820.639 M14.479 820.639 L14.479 814.783 L21.895 814.783 L21.895 820.639 L14.479 820.639 Z" fill="#000000" fill-rule="nonzero" fill-opacity="1"></path><path clip-path="url(#clip590)" d="M32.4621 788.715 Q32.4621 793.426 36.1542 796.163 Q39.8145 798.9 46.212 798.9 Q52.6095 798.9 56.3017 796.195 Q59.9619 793.458 59.9619 788.715 Q59.9619 784.036 56.2698 781.299 Q52.5777 778.562 46.212 778.562 Q39.8781 778.562 36.186 781.299 Q32.4621 784.036 32.4621 788.715 M27.4968 788.715 Q27.4968 781.076 32.4621 776.716 Q37.4273 772.355 46.212 772.355 Q54.9649 772.355 59.9619 776.716 Q64.9272 781.076 64.9272 788.715 Q64.9272 796.386 59.9619 800.746 Q54.9649 805.075 46.212 805.075 Q37.4273 805.075 32.4621 800.746 Q27.4968 796.386 27.4968 788.715 Z" fill="#000000" fill-rule="nonzero" fill-opacity="1"></path><path clip-path="url(#clip590)" d="M42.4881 733.015 L64.0042 733.015 L64.0042 738.872 L42.679 738.872 Q37.6183 738.872 35.1038 740.845 Q32.5894 742.818 32.5894 746.765 Q32.5894 751.508 35.6131 754.245 Q38.6368 756.982 43.8567 756.982 L64.0042 756.982 L64.0042 762.87 L28.3562 762.87 L28.3562 756.982 L33.8944 756.982 Q30.6797 754.881 29.0883 752.049 Q27.4968 749.184 27.4968 745.46 Q27.4968 739.317 31.3163 736.166 Q35.1038 733.015 42.4881 733.015 Z" fill="#000000" fill-rule="nonzero" fill-opacity="1"></path><path clip-path="url(#clip590)" d="M42.4881 670.981 L64.0042 670.981 L64.0042 676.838 L42.679 676.838 Q37.6183 676.838 35.1038 678.811 Q32.5894 680.785 32.5894 684.731 Q32.5894 689.474 35.6131 692.211 Q38.6368 694.948 43.8567 694.948 L64.0042 694.948 L64.0042 700.836 L28.3562 700.836 L28.3562 694.948 L33.8944 694.948 Q30.6797 692.848 29.0883 690.015 Q27.4968 687.15 27.4968 683.426 Q27.4968 677.283 31.3163 674.132 Q35.1038 670.981 42.4881 670.981 Z" fill="#000000" fill-rule="nonzero" fill-opacity="1"></path><path clip-path="url(#clip590)" d="M49.9359 659.905 L28.3562 659.905 L28.3562 654.049 L49.7131 654.049 Q54.7739 654.049 57.3202 652.075 Q59.8346 650.102 59.8346 646.155 Q59.8346 641.413 56.8109 638.675 Q53.7872 635.906 48.5673 635.906 L28.3562 635.906 L28.3562 630.05 L64.0042 630.05 L64.0042 635.906 L58.5296 635.906 Q61.7762 638.039 63.3676 640.872 Q64.9272 643.672 64.9272 647.396 Q64.9272 653.539 61.1078 656.722 Q57.2883 659.905 49.9359 659.905 M27.4968 645.168 L27.4968 645.168 Z" fill="#000000" fill-rule="nonzero" fill-opacity="1"></path><path clip-path="url(#clip590)" d="M35.1993 590.232 Q31.2526 588.036 29.3747 584.981 Q27.4968 581.925 27.4968 577.787 Q27.4968 572.217 31.4117 569.194 Q35.2948 566.17 42.4881 566.17 L64.0042 566.17 L64.0042 572.058 L42.679 572.058 Q37.5546 572.058 35.072 573.872 Q32.5894 575.687 32.5894 579.411 Q32.5894 583.962 35.6131 586.604 Q38.6368 589.246 43.8567 589.246 L64.0042 589.246 L64.0042 595.134 L42.679 595.134 Q37.5228 595.134 35.072 596.948 Q32.5894 598.762 32.5894 602.55 Q32.5894 607.038 35.6449 609.68 Q38.6686 612.321 43.8567 612.321 L64.0042 612.321 L64.0042 618.21 L28.3562 618.21 L28.3562 612.321 L33.8944 612.321 Q30.616 610.316 29.0564 607.515 Q27.4968 604.714 27.4968 600.863 Q27.4968 596.98 29.4702 594.275 Q31.4436 591.537 35.1993 590.232 Z" fill="#000000" fill-rule="nonzero" fill-opacity="1"></path><path clip-path="url(#clip590)" d="M46.212 528.899 Q39.7508 528.899 36.0905 531.572 Q32.3984 534.214 32.3984 538.861 Q32.3984 543.508 36.0905 546.182 Q39.7508 548.823 46.212 548.823 Q52.6732 548.823 56.3653 546.182 Q60.0256 543.508 60.0256 538.861 Q60.0256 534.214 56.3653 531.572 Q52.6732 528.899 46.212 528.899 M33.7671 548.823 Q30.5842 546.977 29.0564 544.176 Q27.4968 541.344 27.4968 537.429 Q27.4968 530.936 32.6531 526.894 Q37.8093 522.82 46.212 522.82 Q54.6147 522.82 59.771 526.894 Q64.9272 530.936 64.9272 537.429 Q64.9272 541.344 63.3994 544.176 Q61.8398 546.977 58.657 548.823 L64.0042 548.823 L64.0042 554.712 L14.479 554.712 L14.479 548.823 L33.7671 548.823 Z" fill="#000000" fill-rule="nonzero" fill-opacity="1"></path><path clip-path="url(#clip590)" d="M44.7161 482.62 L47.5806 482.62 L47.5806 509.547 Q53.6281 509.165 56.8109 505.919 Q59.9619 502.64 59.9619 496.816 Q59.9619 493.442 59.1344 490.291 Q58.3069 487.108 56.6518 483.989 L62.1899 483.989 Q63.5267 487.14 64.227 490.45 Q64.9272 493.76 64.9272 497.166 Q64.9272 505.696 59.9619 510.693 Q54.9967 515.658 46.5303 515.658 Q37.7774 515.658 32.6531 510.947 Q27.4968 506.205 27.4968 498.184 Q27.4968 490.991 32.1438 486.821 Q36.7589 482.62 44.7161 482.62 M42.9973 488.477 Q38.1912 488.54 35.3266 491.182 Q32.4621 493.792 32.4621 498.121 Q32.4621 503.022 35.2312 505.982 Q38.0002 508.91 43.0292 509.356 L42.9973 488.477 Z" fill="#000000" fill-rule="nonzero" fill-opacity="1"></path><path clip-path="url(#clip590)" d="M33.8307 452.351 Q33.2578 453.338 33.0032 454.515 Q32.7167 455.661 32.7167 457.062 Q32.7167 462.027 35.9632 464.701 Q39.1779 467.342 45.2253 467.342 L64.0042 467.342 L64.0042 473.231 L28.3562 473.231 L28.3562 467.342 L33.8944 467.342 Q30.6479 465.496 29.0883 462.536 Q27.4968 459.576 27.4968 455.343 Q27.4968 454.738 27.5923 454.006 Q27.656 453.274 27.8151 452.383 L33.8307 452.351 Z" fill="#000000" fill-rule="nonzero" fill-opacity="1"></path><path clip-path="url(#clip590)" d="M635.117 17.6457 Q626.205 17.6457 620.938 24.2892 Q615.713 30.9327 615.713 42.3968 Q615.713 53.8203 620.938 60.4638 Q626.205 67.1073 635.117 67.1073 Q644.029 67.1073 649.214 60.4638 Q654.439 53.8203 654.439 42.3968 Q654.439 30.9327 649.214 24.2892 Q644.029 17.6457 635.117 17.6457 M635.117 11.0023 Q647.836 11.0023 655.452 19.5497 Q663.068 28.0566 663.068 42.3968 Q663.068 56.6965 655.452 65.2439 Q647.836 73.7508 635.117 73.7508 Q622.356 73.7508 614.7 65.2439 Q607.084 56.737 607.084 42.3968 Q607.084 28.0566 614.7 19.5497 Q622.356 11.0023 635.117 11.0023 Z" fill="#000000" fill-rule="nonzero" fill-opacity="1"></path><path clip-path="url(#clip590)" d="M708.195 28.9478 L708.195 35.9153 Q705.035 34.1734 701.835 33.3227 Q698.675 32.4315 695.435 32.4315 Q688.184 32.4315 684.173 37.0496 Q680.163 41.6271 680.163 49.9314 Q680.163 58.2358 684.173 62.8538 Q688.184 67.4314 695.435 67.4314 Q698.675 67.4314 701.835 66.5807 Q705.035 65.6895 708.195 63.9476 L708.195 70.8341 Q705.076 72.2924 701.714 73.0216 Q698.392 73.7508 694.624 73.7508 Q684.376 73.7508 678.34 67.3098 Q672.304 60.8689 672.304 49.9314 Q672.304 38.832 678.38 32.472 Q684.497 26.1121 695.111 26.1121 Q698.554 26.1121 701.835 26.8413 Q705.116 27.5299 708.195 28.9478 Z" fill="#000000" fill-rule="nonzero" fill-opacity="1"></path><path clip-path="url(#clip590)" d="M753.808 28.9478 L753.808 35.9153 Q750.648 34.1734 747.448 33.3227 Q744.289 32.4315 741.048 32.4315 Q733.797 32.4315 729.786 37.0496 Q725.776 41.6271 725.776 49.9314 Q725.776 58.2358 729.786 62.8538 Q733.797 67.4314 741.048 67.4314 Q744.289 67.4314 747.448 66.5807 Q750.648 65.6895 753.808 63.9476 L753.808 70.8341 Q750.689 72.2924 747.327 73.0216 Q744.005 73.7508 740.238 73.7508 Q729.989 73.7508 723.953 67.3098 Q717.917 60.8689 717.917 49.9314 Q717.917 38.832 723.993 32.472 Q730.11 26.1121 740.724 26.1121 Q744.167 26.1121 747.448 26.8413 Q750.729 27.5299 753.808 28.9478 Z" fill="#000000" fill-rule="nonzero" fill-opacity="1"></path><path clip-path="url(#clip590)" d="M766.001 54.671 L766.001 27.2059 L773.455 27.2059 L773.455 54.3874 Q773.455 60.8284 775.967 64.0691 Q778.478 67.2693 783.501 67.2693 Q789.537 67.2693 793.021 63.421 Q796.545 59.5726 796.545 52.9291 L796.545 27.2059 L803.999 27.2059 L803.999 72.576 L796.545 72.576 L796.545 65.6084 Q793.831 69.7404 790.226 71.7658 Q786.661 73.7508 781.921 73.7508 Q774.103 73.7508 770.052 68.8897 Q766.001 64.0286 766.001 54.671 M784.757 26.1121 L784.757 26.1121 Z" fill="#000000" fill-rule="nonzero" fill-opacity="1"></path><path clip-path="url(#clip590)" d="M826.562 65.7705 L826.562 89.8329 L819.068 89.8329 L819.068 27.2059 L826.562 27.2059 L826.562 34.0924 Q828.912 30.0415 832.477 28.0971 Q836.082 26.1121 841.065 26.1121 Q849.328 26.1121 854.473 32.6746 Q859.658 39.2371 859.658 49.9314 Q859.658 60.6258 854.473 67.1883 Q849.328 73.7508 841.065 73.7508 Q836.082 73.7508 832.477 71.8063 Q828.912 69.8214 826.562 65.7705 M851.921 49.9314 Q851.921 41.7081 848.518 37.0496 Q845.156 32.3505 839.242 32.3505 Q833.327 32.3505 829.925 37.0496 Q826.562 41.7081 826.562 49.9314 Q826.562 58.1548 829.925 62.8538 Q833.327 67.5124 839.242 67.5124 Q845.156 67.5124 848.518 62.8538 Q851.921 58.1548 851.921 49.9314 Z" fill="#000000" fill-rule="nonzero" fill-opacity="1"></path><path clip-path="url(#clip590)" d="M892.633 49.7694 Q883.599 49.7694 880.115 51.8354 Q876.632 53.9013 876.632 58.8839 Q876.632 62.8538 879.224 65.2034 Q881.857 67.5124 886.354 67.5124 Q892.552 67.5124 896.278 63.1374 Q900.046 58.7219 900.046 51.4303 L900.046 49.7694 L892.633 49.7694 M907.499 46.6907 L907.499 72.576 L900.046 72.576 L900.046 65.6895 Q897.494 69.8214 893.686 71.8063 Q889.878 73.7508 884.369 73.7508 Q877.401 73.7508 873.269 69.8619 Q869.178 65.9325 869.178 59.3701 Q869.178 51.7138 874.282 47.825 Q879.427 43.9361 889.594 43.9361 L900.046 43.9361 L900.046 43.2069 Q900.046 38.0623 896.643 35.2672 Q893.281 32.4315 887.164 32.4315 Q883.275 32.4315 879.589 33.3632 Q875.902 34.295 872.5 36.1584 L872.5 29.2718 Q876.591 27.692 880.439 26.9223 Q884.288 26.1121 887.934 26.1121 Q897.777 26.1121 902.638 31.2163 Q907.499 36.3204 907.499 46.6907 Z" fill="#000000" fill-rule="nonzero" fill-opacity="1"></path><path clip-path="url(#clip590)" d="M930.225 14.324 L930.225 27.2059 L945.578 27.2059 L945.578 32.9987 L930.225 32.9987 L930.225 57.6282 Q930.225 63.1779 931.724 64.7578 Q933.263 66.3376 937.922 66.3376 L945.578 66.3376 L945.578 72.576 L937.922 72.576 Q929.293 72.576 926.012 69.3758 Q922.731 66.1351 922.731 57.6282 L922.731 32.9987 L917.262 32.9987 L917.262 27.2059 L922.731 27.2059 L922.731 14.324 L930.225 14.324 Z" fill="#000000" fill-rule="nonzero" fill-opacity="1"></path><path clip-path="url(#clip590)" d="M955.381 27.2059 L962.835 27.2059 L962.835 72.576 L955.381 72.576 L955.381 27.2059 M955.381 9.54393 L962.835 9.54393 L962.835 18.9825 L955.381 18.9825 L955.381 9.54393 Z" fill="#000000" fill-rule="nonzero" fill-opacity="1"></path><path clip-path="url(#clip590)" d="M996.012 32.4315 Q990.016 32.4315 986.533 37.1306 Q983.049 41.7891 983.049 49.9314 Q983.049 58.0738 986.492 62.7728 Q989.976 67.4314 996.012 67.4314 Q1001.97 67.4314 1005.45 62.7323 Q1008.93 58.0333 1008.93 49.9314 Q1008.93 41.8701 1005.45 37.1711 Q1001.97 32.4315 996.012 32.4315 M996.012 26.1121 Q1005.73 26.1121 1011.28 32.4315 Q1016.83 38.7509 1016.83 49.9314 Q1016.83 61.0714 1011.28 67.4314 Q1005.73 73.7508 996.012 73.7508 Q986.249 73.7508 980.699 67.4314 Q975.19 61.0714 975.19 49.9314 Q975.19 38.7509 980.699 32.4315 Q986.249 26.1121 996.012 26.1121 Z" fill="#000000" fill-rule="nonzero" fill-opacity="1"></path><path clip-path="url(#clip590)" d="M1066.9 45.1919 L1066.9 72.576 L1059.45 72.576 L1059.45 45.4349 Q1059.45 38.994 1056.94 35.7938 Q1054.43 32.5936 1049.4 32.5936 Q1043.37 32.5936 1039.88 36.4419 Q1036.4 40.2903 1036.4 46.9338 L1036.4 72.576 L1028.91 72.576 L1028.91 27.2059 L1036.4 27.2059 L1036.4 34.2544 Q1039.07 30.163 1042.68 28.1376 Q1046.32 26.1121 1051.06 26.1121 Q1058.88 26.1121 1062.89 30.9732 Q1066.9 35.7938 1066.9 45.1919 Z" fill="#000000" fill-rule="nonzero" fill-opacity="1"></path><path clip-path="url(#clip590)" d="M1108.46 12.096 L1119.48 12.096 L1146.3 62.6918 L1146.3 12.096 L1154.24 12.096 L1154.24 72.576 L1143.22 72.576 L1116.4 21.9802 L1116.4 72.576 L1108.46 72.576 L1108.46 12.096 Z" fill="#000000" fill-rule="nonzero" fill-opacity="1"></path><path clip-path="url(#clip590)" d="M1169.43 54.671 L1169.43 27.2059 L1176.88 27.2059 L1176.88 54.3874 Q1176.88 60.8284 1179.4 64.0691 Q1181.91 67.2693 1186.93 67.2693 Q1192.97 67.2693 1196.45 63.421 Q1199.97 59.5726 1199.97 52.9291 L1199.97 27.2059 L1207.43 27.2059 L1207.43 72.576 L1199.97 72.576 L1199.97 65.6084 Q1197.26 69.7404 1193.66 71.7658 Q1190.09 73.7508 1185.35 73.7508 Q1177.53 73.7508 1173.48 68.8897 Q1169.43 64.0286 1169.43 54.671 M1188.19 26.1121 L1188.19 26.1121 Z" fill="#000000" fill-rule="nonzero" fill-opacity="1"></path><path clip-path="url(#clip590)" d="M1258.11 35.9153 Q1260.9 30.8922 1264.79 28.5022 Q1268.68 26.1121 1273.94 26.1121 Q1281.03 26.1121 1284.88 31.0947 Q1288.73 36.0368 1288.73 45.1919 L1288.73 72.576 L1281.24 72.576 L1281.24 45.4349 Q1281.24 38.913 1278.93 35.7533 Q1276.62 32.5936 1271.88 32.5936 Q1266.09 32.5936 1262.72 36.4419 Q1259.36 40.2903 1259.36 46.9338 L1259.36 72.576 L1251.87 72.576 L1251.87 45.4349 Q1251.87 38.8725 1249.56 35.7533 Q1247.25 32.5936 1242.43 32.5936 Q1236.72 32.5936 1233.35 36.4824 Q1229.99 40.3308 1229.99 46.9338 L1229.99 72.576 L1222.5 72.576 L1222.5 27.2059 L1229.99 27.2059 L1229.99 34.2544 Q1232.54 30.082 1236.11 28.0971 Q1239.67 26.1121 1244.58 26.1121 Q1249.52 26.1121 1252.96 28.6237 Q1256.44 31.1352 1258.11 35.9153 Z" fill="#000000" fill-rule="nonzero" fill-opacity="1"></path><path clip-path="url(#clip590)" d="M1336.17 49.9314 Q1336.17 41.7081 1332.76 37.0496 Q1329.4 32.3505 1323.49 32.3505 Q1317.57 32.3505 1314.17 37.0496 Q1310.81 41.7081 1310.81 49.9314 Q1310.81 58.1548 1314.17 62.8538 Q1317.57 67.5124 1323.49 67.5124 Q1329.4 67.5124 1332.76 62.8538 Q1336.17 58.1548 1336.17 49.9314 M1310.81 34.0924 Q1313.16 30.0415 1316.72 28.0971 Q1320.33 26.1121 1325.31 26.1121 Q1333.57 26.1121 1338.72 32.6746 Q1343.9 39.2371 1343.9 49.9314 Q1343.9 60.6258 1338.72 67.1883 Q1333.57 73.7508 1325.31 73.7508 Q1320.33 73.7508 1316.72 71.8063 Q1313.16 69.8214 1310.81 65.7705 L1310.81 72.576 L1303.31 72.576 L1303.31 9.54393 L1310.81 9.54393 L1310.81 34.0924 Z" fill="#000000" fill-rule="nonzero" fill-opacity="1"></path><path clip-path="url(#clip590)" d="M1395.07 48.0275 L1395.07 51.6733 L1360.8 51.6733 Q1361.28 59.3701 1365.41 63.421 Q1369.59 67.4314 1377 67.4314 Q1381.29 67.4314 1385.3 66.3781 Q1389.35 65.3249 1393.32 63.2184 L1393.32 70.267 Q1389.31 71.9684 1385.1 72.8596 Q1380.89 73.7508 1376.55 73.7508 Q1365.7 73.7508 1359.34 67.4314 Q1353.02 61.1119 1353.02 50.3365 Q1353.02 39.1965 1359.01 32.6746 Q1365.05 26.1121 1375.26 26.1121 Q1384.41 26.1121 1389.72 32.0264 Q1395.07 37.9003 1395.07 48.0275 M1387.61 45.84 Q1387.53 39.7232 1384.17 36.0774 Q1380.85 32.4315 1375.34 32.4315 Q1369.1 32.4315 1365.33 35.9558 Q1361.61 39.4801 1361.04 45.8805 L1387.61 45.84 Z" fill="#000000" fill-rule="nonzero" fill-opacity="1"></path><path clip-path="url(#clip590)" d="M1433.59 34.1734 Q1432.33 33.4443 1430.84 33.1202 Q1429.38 32.7556 1427.6 32.7556 Q1421.28 32.7556 1417.87 36.8875 Q1414.51 40.9789 1414.51 48.6757 L1414.51 72.576 L1407.02 72.576 L1407.02 27.2059 L1414.51 27.2059 L1414.51 34.2544 Q1416.86 30.1225 1420.63 28.1376 Q1424.39 26.1121 1429.78 26.1121 Q1430.55 26.1121 1431.48 26.2337 Q1432.42 26.3147 1433.55 26.5172 L1433.59 34.1734 Z" fill="#000000" fill-rule="nonzero" fill-opacity="1"></path><path clip-path="url(#clip590)" d="M1513.39 16.7545 L1513.39 25.383 Q1509.26 21.5346 1504.56 19.6307 Q1499.9 17.7268 1494.64 17.7268 Q1484.27 17.7268 1478.76 24.0867 Q1473.25 30.4061 1473.25 42.3968 Q1473.25 54.3469 1478.76 60.7069 Q1484.27 67.0263 1494.64 67.0263 Q1499.9 67.0263 1504.56 65.1223 Q1509.26 63.2184 1513.39 59.3701 L1513.39 67.9175 Q1509.1 70.8341 1504.28 72.2924 Q1499.5 73.7508 1494.15 73.7508 Q1480.42 73.7508 1472.52 65.3654 Q1464.62 56.9395 1464.62 42.3968 Q1464.62 27.8135 1472.52 19.4281 Q1480.42 11.0023 1494.15 11.0023 Q1499.58 11.0023 1504.36 12.4606 Q1509.18 13.8784 1513.39 16.7545 Z" fill="#000000" fill-rule="nonzero" fill-opacity="1"></path><path clip-path="url(#clip590)" d="M1543.29 32.4315 Q1537.29 32.4315 1533.81 37.1306 Q1530.33 41.7891 1530.33 49.9314 Q1530.33 58.0738 1533.77 62.7728 Q1537.25 67.4314 1543.29 67.4314 Q1549.24 67.4314 1552.73 62.7323 Q1556.21 58.0333 1556.21 49.9314 Q1556.21 41.8701 1552.73 37.1711 Q1549.24 32.4315 1543.29 32.4315 M1543.29 26.1121 Q1553.01 26.1121 1558.56 32.4315 Q1564.11 38.7509 1564.11 49.9314 Q1564.11 61.0714 1558.56 67.4314 Q1553.01 73.7508 1543.29 73.7508 Q1533.53 73.7508 1527.98 67.4314 Q1522.47 61.0714 1522.47 49.9314 Q1522.47 38.7509 1527.98 32.4315 Q1533.53 26.1121 1543.29 26.1121 Z" fill="#000000" fill-rule="nonzero" fill-opacity="1"></path><path clip-path="url(#clip590)" d="M1611.79 35.9153 Q1614.58 30.8922 1618.47 28.5022 Q1622.36 26.1121 1627.63 26.1121 Q1634.72 26.1121 1638.57 31.0947 Q1642.41 36.0368 1642.41 45.1919 L1642.41 72.576 L1634.92 72.576 L1634.92 45.4349 Q1634.92 38.913 1632.61 35.7533 Q1630.3 32.5936 1625.56 32.5936 Q1619.77 32.5936 1616.41 36.4419 Q1613.05 40.2903 1613.05 46.9338 L1613.05 72.576 L1605.55 72.576 L1605.55 45.4349 Q1605.55 38.8725 1603.24 35.7533 Q1600.93 32.5936 1596.11 32.5936 Q1590.4 32.5936 1587.04 36.4824 Q1583.68 40.3308 1583.68 46.9338 L1583.68 72.576 L1576.18 72.576 L1576.18 27.2059 L1583.68 27.2059 L1583.68 34.2544 Q1586.23 30.082 1589.79 28.0971 Q1593.36 26.1121 1598.26 26.1121 Q1603.2 26.1121 1606.65 28.6237 Q1610.13 31.1352 1611.79 35.9153 Z" fill="#000000" fill-rule="nonzero" fill-opacity="1"></path><path clip-path="url(#clip590)" d="M1664.49 65.7705 L1664.49 89.8329 L1657 89.8329 L1657 27.2059 L1664.49 27.2059 L1664.49 34.0924 Q1666.84 30.0415 1670.41 28.0971 Q1674.01 26.1121 1678.99 26.1121 Q1687.26 26.1121 1692.4 32.6746 Q1697.59 39.2371 1697.59 49.9314 Q1697.59 60.6258 1692.4 67.1883 Q1687.26 73.7508 1678.99 73.7508 Q1674.01 73.7508 1670.41 71.8063 Q1666.84 69.8214 1664.49 65.7705 M1689.85 49.9314 Q1689.85 41.7081 1686.45 37.0496 Q1683.09 32.3505 1677.17 32.3505 Q1671.26 32.3505 1667.85 37.0496 Q1664.49 41.7081 1664.49 49.9314 Q1664.49 58.1548 1667.85 62.8538 Q1671.26 67.5124 1677.17 67.5124 Q1683.09 67.5124 1686.45 62.8538 Q1689.85 58.1548 1689.85 49.9314 Z" fill="#000000" fill-rule="nonzero" fill-opacity="1"></path><path clip-path="url(#clip590)" d="M1730.56 49.7694 Q1721.53 49.7694 1718.04 51.8354 Q1714.56 53.9013 1714.56 58.8839 Q1714.56 62.8538 1717.15 65.2034 Q1719.79 67.5124 1724.28 67.5124 Q1730.48 67.5124 1734.21 63.1374 Q1737.98 58.7219 1737.98 51.4303 L1737.98 49.7694 L1730.56 49.7694 M1745.43 46.6907 L1745.43 72.576 L1737.98 72.576 L1737.98 65.6895 Q1735.42 69.8214 1731.62 71.8063 Q1727.81 73.7508 1722.3 73.7508 Q1715.33 73.7508 1711.2 69.8619 Q1707.11 65.9325 1707.11 59.3701 Q1707.11 51.7138 1712.21 47.825 Q1717.36 43.9361 1727.52 43.9361 L1737.98 43.9361 L1737.98 43.2069 Q1737.98 38.0623 1734.57 35.2672 Q1731.21 32.4315 1725.09 32.4315 Q1721.2 32.4315 1717.52 33.3632 Q1713.83 34.295 1710.43 36.1584 L1710.43 29.2718 Q1714.52 27.692 1718.37 26.9223 Q1722.22 26.1121 1725.86 26.1121 Q1735.71 26.1121 1740.57 31.2163 Q1745.43 36.3204 1745.43 46.6907 Z" fill="#000000" fill-rule="nonzero" fill-opacity="1"></path><path clip-path="url(#clip590)" d="M1787.07 34.1734 Q1785.82 33.4443 1784.32 33.1202 Q1782.86 32.7556 1781.08 32.7556 Q1774.76 32.7556 1771.35 36.8875 Q1767.99 40.9789 1767.99 48.6757 L1767.99 72.576 L1760.5 72.576 L1760.5 27.2059 L1767.99 27.2059 L1767.99 34.2544 Q1770.34 30.1225 1774.11 28.1376 Q1777.88 26.1121 1783.26 26.1121 Q1784.03 26.1121 1784.97 26.2337 Q1785.9 26.3147 1787.03 26.5172 L1787.07 34.1734 Z" fill="#000000" fill-rule="nonzero" fill-opacity="1"></path><path clip-path="url(#clip590)" d="M1794.89 27.2059 L1802.34 27.2059 L1802.34 72.576 L1794.89 72.576 L1794.89 27.2059 M1794.89 9.54393 L1802.34 9.54393 L1802.34 18.9825 L1794.89 18.9825 L1794.89 9.54393 Z" fill="#000000" fill-rule="nonzero" fill-opacity="1"></path><path clip-path="url(#clip590)" d="M1846.86 28.5427 L1846.86 35.5912 Q1843.7 33.9709 1840.3 33.1607 Q1836.9 32.3505 1833.25 32.3505 Q1827.7 32.3505 1824.91 34.0519 Q1822.15 35.7533 1822.15 39.156 Q1822.15 41.7486 1824.14 43.2475 Q1826.12 44.7058 1832.12 46.0426 L1834.67 46.6097 Q1842.61 48.3111 1845.93 51.4303 Q1849.29 54.509 1849.29 60.0587 Q1849.29 66.3781 1844.27 70.0644 Q1839.29 73.7508 1830.54 73.7508 Q1826.89 73.7508 1822.92 73.0216 Q1818.99 72.3329 1814.62 70.9151 L1814.62 63.2184 Q1818.75 65.3654 1822.76 66.4591 Q1826.77 67.5124 1830.7 67.5124 Q1835.97 67.5124 1838.8 65.73 Q1841.64 63.9071 1841.64 60.6258 Q1841.64 57.5877 1839.57 55.9673 Q1837.55 54.3469 1830.62 52.8481 L1828.03 52.2405 Q1821.1 50.7821 1818.02 47.7845 Q1814.94 44.7463 1814.94 39.4801 Q1814.94 33.0797 1819.48 29.5959 Q1824.02 26.1121 1832.36 26.1121 Q1836.49 26.1121 1840.14 26.7198 Q1843.78 27.3274 1846.86 28.5427 Z" fill="#000000" fill-rule="nonzero" fill-opacity="1"></path><path clip-path="url(#clip590)" d="M1878.74 32.4315 Q1872.75 32.4315 1869.27 37.1306 Q1865.78 41.7891 1865.78 49.9314 Q1865.78 58.0738 1869.22 62.7728 Q1872.71 67.4314 1878.74 67.4314 Q1884.7 67.4314 1888.18 62.7323 Q1891.67 58.0333 1891.67 49.9314 Q1891.67 41.8701 1888.18 37.1711 Q1884.7 32.4315 1878.74 32.4315 M1878.74 26.1121 Q1888.47 26.1121 1894.02 32.4315 Q1899.57 38.7509 1899.57 49.9314 Q1899.57 61.0714 1894.02 67.4314 Q1888.47 73.7508 1878.74 73.7508 Q1868.98 73.7508 1863.43 67.4314 Q1857.92 61.0714 1857.92 49.9314 Q1857.92 38.7509 1863.43 32.4315 Q1868.98 26.1121 1878.74 26.1121 Z" fill="#000000" fill-rule="nonzero" fill-opacity="1"></path><path clip-path="url(#clip590)" d="M1949.64 45.1919 L1949.64 72.576 L1942.18 72.576 L1942.18 45.4349 Q1942.18 38.994 1939.67 35.7938 Q1937.16 32.5936 1932.14 32.5936 Q1926.1 32.5936 1922.62 36.4419 Q1919.13 40.2903 1919.13 46.9338 L1919.13 72.576 L1911.64 72.576 L1911.64 27.2059 L1919.13 27.2059 L1919.13 34.2544 Q1921.81 30.163 1925.41 28.1376 Q1929.06 26.1121 1933.8 26.1121 Q1941.61 26.1121 1945.62 30.9732 Q1949.64 35.7938 1949.64 45.1919 Z" fill="#000000" fill-rule="nonzero" fill-opacity="1"></path><polyline clip-path="url(#clip592)" style="stroke:#009af9; stroke-linecap:round; stroke-linejoin:round; stroke-width:6; stroke-opacity:1; fill:none" points="548.739,1386.4 595.812,1339.32 642.884,1292.25 689.956,1245.18 737.028,1198.11 784.101,1151.03 831.173,1103.98 878.245,1057.33 925.318,1011.61 972.39,967.379 1019.46,925.192 1066.53,885.224 1113.61,848.145 1160.68,813.403 1207.75,781.958 1254.82,753.041 1301.9,727.671 1348.97,704.228 1396.04,684.085 1443.11,665.701 1490.19,650.566 1537.26,636.974 1584.33,626.162 1631.4,616.354 1678.47,608.598 1725.55,601.498 1772.62,596.032 1819.69,590.958 1866.76,587.066 1913.84,583.17 1960.91,580.127 2007.98,577.277 "></polyline>
<polyline clip-path="url(#clip592)" style="stroke:#e26f46; stroke-linecap:round; stroke-linejoin:round; stroke-width:6; stroke-opacity:1; fill:none" points="548.739,1386.4 595.812,1339.32 642.884,1292.25 689.956,1245.18 737.028,1198.11 784.101,1151.03 831.173,1103.96 878.245,1056.9 925.318,1009.85 972.39,962.899 1019.46,915.983 1066.53,869.323 1113.61,822.742 1160.68,776.657 1207.75,730.734 1254.82,685.687 1301.9,640.952 1348.97,597.517 1396.04,554.673 1443.11,513.763 1490.19,473.709 1537.26,435.917 1584.33,399.455 1631.4,366.076 1678.47,334.77 1725.55,307.567 1772.62,282.685 1819.69,263.372 1866.76,249.223 1913.84,240.381 1960.91,253.504 2007.98,272.997 "></polyline>
<polyline clip-path="url(#clip592)" style="stroke:#3da44d; stroke-linecap:round; stroke-linejoin:round; stroke-width:6; stroke-opacity:1; fill:none" points="548.739,1386.4 595.812,1339.32 642.884,1292.25 689.956,1245.18 737.028,1198.11 784.101,1151.03 831.173,1103.96 878.245,1056.94 925.318,1010.05 972.39,963.176 1019.46,917.689 1066.53,871.428 1113.61,826.049 1160.68,780.41 1207.75,738.486 1254.82,694.453 1301.9,652.095 1348.97,609.167 1396.04,572.215 1443.11,532.159 1490.19,493.729 1537.26,455.043 1584.33,423.443 1631.4,388.51 1678.47,354.759 1725.55,320.852 1772.62,293.904 1819.69,264.821 1866.76,235.143 1913.84,209.036 1960.91,183.907 2007.98,160.256 "></polyline>
<path clip-path="url(#clip590)" d="M275.59 374.156 L882.041 374.156 L882.041 166.796 L275.59 166.796  Z" fill="#ffffff" fill-rule="evenodd" fill-opacity="1"></path>
<polyline clip-path="url(#clip590)" style="stroke:#000000; stroke-linecap:round; stroke-linejoin:round; stroke-width:4; stroke-opacity:1; fill:none" points="275.59,374.156 882.041,374.156 882.041,166.796 275.59,166.796 275.59,374.156 "></polyline>
<polyline clip-path="url(#clip590)" style="stroke:#009af9; stroke-linecap:round; stroke-linejoin:round; stroke-width:6; stroke-opacity:1; fill:none" points="299.465,218.636 442.718,218.636 "></polyline>
<path clip-path="url(#clip590)" d="M488.839 202.49 L488.839 207.05 Q486.177 205.777 483.816 205.152 Q481.455 204.527 479.256 204.527 Q475.436 204.527 473.353 206.008 Q471.293 207.49 471.293 210.221 Q471.293 212.513 472.659 213.694 Q474.047 214.851 477.89 215.569 L480.714 216.147 Q485.945 217.143 488.422 219.666 Q490.922 222.166 490.922 226.379 Q490.922 231.402 487.543 233.994 Q484.186 236.587 477.682 236.587 Q475.228 236.587 472.45 236.031 Q469.696 235.476 466.733 234.388 L466.733 229.573 Q469.58 231.17 472.311 231.981 Q475.043 232.791 477.682 232.791 Q481.686 232.791 483.862 231.217 Q486.038 229.643 486.038 226.726 Q486.038 224.18 484.464 222.744 Q482.913 221.309 479.348 220.592 L476.501 220.036 Q471.27 218.995 468.932 216.772 Q466.594 214.55 466.594 210.592 Q466.594 206.008 469.811 203.37 Q473.052 200.731 478.723 200.731 Q481.154 200.731 483.677 201.171 Q486.2 201.61 488.839 202.49 Z" fill="#000000" fill-rule="nonzero" fill-opacity="1"></path><path clip-path="url(#clip590)" d="M502.242 202.629 L502.242 209.99 L511.015 209.99 L511.015 213.3 L502.242 213.3 L502.242 227.374 Q502.242 230.545 503.098 231.448 Q503.978 232.351 506.64 232.351 L511.015 232.351 L511.015 235.916 L506.64 235.916 Q501.709 235.916 499.834 234.087 Q497.959 232.235 497.959 227.374 L497.959 213.3 L494.834 213.3 L494.834 209.99 L497.959 209.99 L497.959 202.629 L502.242 202.629 Z" fill="#000000" fill-rule="nonzero" fill-opacity="1"></path><path clip-path="url(#clip590)" d="M528.399 222.883 Q523.237 222.883 521.246 224.064 Q519.256 225.244 519.256 228.092 Q519.256 230.36 520.737 231.703 Q522.242 233.022 524.811 233.022 Q528.353 233.022 530.482 230.522 Q532.635 227.999 532.635 223.832 L532.635 222.883 L528.399 222.883 M536.894 221.124 L536.894 235.916 L532.635 235.916 L532.635 231.981 Q531.177 234.342 529.001 235.476 Q526.825 236.587 523.677 236.587 Q519.695 236.587 517.334 234.365 Q514.996 232.119 514.996 228.369 Q514.996 223.994 517.913 221.772 Q520.853 219.55 526.663 219.55 L532.635 219.55 L532.635 219.133 Q532.635 216.194 530.691 214.596 Q528.769 212.976 525.274 212.976 Q523.052 212.976 520.945 213.508 Q518.839 214.041 516.894 215.106 L516.894 211.17 Q519.232 210.268 521.431 209.828 Q523.63 209.365 525.714 209.365 Q531.339 209.365 534.117 212.282 Q536.894 215.198 536.894 221.124 Z" fill="#000000" fill-rule="nonzero" fill-opacity="1"></path><path clip-path="url(#clip590)" d="M567.218 220.268 L567.218 235.916 L562.959 235.916 L562.959 220.407 Q562.959 216.726 561.524 214.897 Q560.089 213.069 557.218 213.069 Q553.769 213.069 551.778 215.268 Q549.788 217.467 549.788 221.263 L549.788 235.916 L545.505 235.916 L545.505 209.99 L549.788 209.99 L549.788 214.018 Q551.316 211.68 553.376 210.522 Q555.459 209.365 558.167 209.365 Q562.635 209.365 564.927 212.143 Q567.218 214.897 567.218 220.268 Z" fill="#000000" fill-rule="nonzero" fill-opacity="1"></path><path clip-path="url(#clip590)" d="M592.774 213.925 L592.774 199.897 L597.033 199.897 L597.033 235.916 L592.774 235.916 L592.774 232.027 Q591.431 234.342 589.371 235.476 Q587.334 236.587 584.463 236.587 Q579.764 236.587 576.801 232.837 Q573.862 229.087 573.862 222.976 Q573.862 216.865 576.801 213.115 Q579.764 209.365 584.463 209.365 Q587.334 209.365 589.371 210.499 Q591.431 211.61 592.774 213.925 M578.26 222.976 Q578.26 227.675 580.181 230.36 Q582.126 233.022 585.505 233.022 Q588.885 233.022 590.829 230.36 Q592.774 227.675 592.774 222.976 Q592.774 218.277 590.829 215.615 Q588.885 212.93 585.505 212.93 Q582.126 212.93 580.181 215.615 Q578.26 218.277 578.26 222.976 Z" fill="#000000" fill-rule="nonzero" fill-opacity="1"></path><path clip-path="url(#clip590)" d="M617.588 222.883 Q612.426 222.883 610.436 224.064 Q608.445 225.244 608.445 228.092 Q608.445 230.36 609.926 231.703 Q611.431 233.022 614 233.022 Q617.542 233.022 619.672 230.522 Q621.824 227.999 621.824 223.832 L621.824 222.883 L617.588 222.883 M626.084 221.124 L626.084 235.916 L621.824 235.916 L621.824 231.981 Q620.366 234.342 618.19 235.476 Q616.014 236.587 612.866 236.587 Q608.885 236.587 606.524 234.365 Q604.186 232.119 604.186 228.369 Q604.186 223.994 607.102 221.772 Q610.042 219.55 615.852 219.55 L621.824 219.55 L621.824 219.133 Q621.824 216.194 619.88 214.596 Q617.959 212.976 614.463 212.976 Q612.241 212.976 610.135 213.508 Q608.028 214.041 606.084 215.106 L606.084 211.17 Q608.422 210.268 610.621 209.828 Q612.82 209.365 614.903 209.365 Q620.528 209.365 623.306 212.282 Q626.084 215.198 626.084 221.124 Z" fill="#000000" fill-rule="nonzero" fill-opacity="1"></path><path clip-path="url(#clip590)" d="M649.88 213.971 Q649.162 213.555 648.306 213.37 Q647.472 213.161 646.454 213.161 Q642.843 213.161 640.898 215.522 Q638.977 217.86 638.977 222.258 L638.977 235.916 L634.695 235.916 L634.695 209.99 L638.977 209.99 L638.977 214.018 Q640.32 211.657 642.472 210.522 Q644.625 209.365 647.704 209.365 Q648.144 209.365 648.676 209.434 Q649.209 209.481 649.857 209.596 L649.88 213.971 Z" fill="#000000" fill-rule="nonzero" fill-opacity="1"></path><path clip-path="url(#clip590)" d="M670.574 213.925 L670.574 199.897 L674.833 199.897 L674.833 235.916 L670.574 235.916 L670.574 232.027 Q669.232 234.342 667.171 235.476 Q665.134 236.587 662.264 236.587 Q657.565 236.587 654.602 232.837 Q651.662 229.087 651.662 222.976 Q651.662 216.865 654.602 213.115 Q657.565 209.365 662.264 209.365 Q665.134 209.365 667.171 210.499 Q669.232 211.61 670.574 213.925 M656.06 222.976 Q656.06 227.675 657.982 230.36 Q659.926 233.022 663.306 233.022 Q666.685 233.022 668.63 230.36 Q670.574 227.675 670.574 222.976 Q670.574 218.277 668.63 215.615 Q666.685 212.93 663.306 212.93 Q659.926 212.93 657.982 215.615 Q656.06 218.277 656.06 222.976 Z" fill="#000000" fill-rule="nonzero" fill-opacity="1"></path><polyline clip-path="url(#clip590)" style="stroke:#e26f46; stroke-linecap:round; stroke-linejoin:round; stroke-width:6; stroke-opacity:1; fill:none" points="299.465,270.476 442.718,270.476 "></polyline>
<path clip-path="url(#clip590)" d="M466.594 253.196 L471.316 253.196 L478.584 282.409 L485.83 253.196 L491.084 253.196 L498.353 282.409 L505.598 253.196 L510.344 253.196 L501.663 287.756 L495.783 287.756 L488.492 257.756 L481.131 287.756 L475.251 287.756 L466.594 253.196 Z" fill="#000000" fill-rule="nonzero" fill-opacity="1"></path><path clip-path="url(#clip590)" d="M525.112 274.723 Q519.95 274.723 517.959 275.904 Q515.968 277.084 515.968 279.932 Q515.968 282.2 517.45 283.543 Q518.955 284.862 521.524 284.862 Q525.066 284.862 527.195 282.362 Q529.348 279.839 529.348 275.672 L529.348 274.723 L525.112 274.723 M533.607 272.964 L533.607 287.756 L529.348 287.756 L529.348 283.821 Q527.89 286.182 525.714 287.316 Q523.538 288.427 520.39 288.427 Q516.408 288.427 514.047 286.205 Q511.709 283.959 511.709 280.209 Q511.709 275.834 514.626 273.612 Q517.566 271.39 523.376 271.39 L529.348 271.39 L529.348 270.973 Q529.348 268.034 527.404 266.436 Q525.482 264.816 521.987 264.816 Q519.765 264.816 517.658 265.348 Q515.552 265.881 513.607 266.946 L513.607 263.01 Q515.945 262.108 518.144 261.668 Q520.343 261.205 522.427 261.205 Q528.052 261.205 530.83 264.122 Q533.607 267.038 533.607 272.964 Z" fill="#000000" fill-rule="nonzero" fill-opacity="1"></path><path clip-path="url(#clip590)" d="M563.931 272.108 L563.931 287.756 L559.672 287.756 L559.672 272.247 Q559.672 268.566 558.237 266.737 Q556.802 264.909 553.931 264.909 Q550.482 264.909 548.491 267.108 Q546.501 269.307 546.501 273.103 L546.501 287.756 L542.218 287.756 L542.218 261.83 L546.501 261.83 L546.501 265.858 Q548.028 263.52 550.089 262.362 Q552.172 261.205 554.88 261.205 Q559.348 261.205 561.64 263.983 Q563.931 266.737 563.931 272.108 Z" fill="#000000" fill-rule="nonzero" fill-opacity="1"></path><path clip-path="url(#clip590)" d="M593.977 272.108 L593.977 287.756 L589.718 287.756 L589.718 272.247 Q589.718 268.566 588.283 266.737 Q586.848 264.909 583.977 264.909 Q580.528 264.909 578.538 267.108 Q576.547 269.307 576.547 273.103 L576.547 287.756 L572.264 287.756 L572.264 261.83 L576.547 261.83 L576.547 265.858 Q578.075 263.52 580.135 262.362 Q582.218 261.205 584.926 261.205 Q589.394 261.205 591.686 263.983 Q593.977 266.737 593.977 272.108 Z" fill="#000000" fill-rule="nonzero" fill-opacity="1"></path><path clip-path="url(#clip590)" d="M602.473 261.83 L606.732 261.83 L606.732 287.756 L602.473 287.756 L602.473 261.83 M602.473 251.737 L606.732 251.737 L606.732 257.131 L602.473 257.131 L602.473 251.737 Z" fill="#000000" fill-rule="nonzero" fill-opacity="1"></path><path clip-path="url(#clip590)" d="M637.82 273.728 L637.82 275.811 L618.236 275.811 Q618.514 280.209 620.875 282.524 Q623.26 284.816 627.496 284.816 Q629.949 284.816 632.241 284.214 Q634.556 283.612 636.824 282.409 L636.824 286.436 Q634.533 287.408 632.125 287.918 Q629.718 288.427 627.241 288.427 Q621.037 288.427 617.403 284.816 Q613.792 281.205 613.792 275.047 Q613.792 268.682 617.218 264.955 Q620.667 261.205 626.5 261.205 Q631.732 261.205 634.764 264.585 Q637.82 267.941 637.82 273.728 M633.56 272.478 Q633.514 268.983 631.593 266.899 Q629.695 264.816 626.547 264.816 Q622.982 264.816 620.829 266.83 Q618.699 268.844 618.375 272.501 L633.56 272.478 Z" fill="#000000" fill-rule="nonzero" fill-opacity="1"></path><path clip-path="url(#clip590)" d="M659.833 265.811 Q659.116 265.395 658.259 265.21 Q657.426 265.001 656.408 265.001 Q652.796 265.001 650.852 267.362 Q648.931 269.7 648.931 274.098 L648.931 287.756 L644.648 287.756 L644.648 261.83 L648.931 261.83 L648.931 265.858 Q650.273 263.497 652.426 262.362 Q654.579 261.205 657.658 261.205 Q658.097 261.205 658.63 261.274 Q659.162 261.321 659.81 261.436 L659.833 265.811 Z" fill="#000000" fill-rule="nonzero" fill-opacity="1"></path><path clip-path="url(#clip590)" d="M693.583 256.367 Q688.491 256.367 685.481 260.163 Q682.495 263.96 682.495 270.51 Q682.495 277.038 685.481 280.834 Q688.491 284.631 693.583 284.631 Q698.676 284.631 701.639 280.834 Q704.625 277.038 704.625 270.51 Q704.625 263.96 701.639 260.163 Q698.676 256.367 693.583 256.367 M693.583 252.571 Q700.852 252.571 705.204 257.455 Q709.555 262.316 709.555 270.51 Q709.555 278.682 705.204 283.566 Q700.852 288.427 693.583 288.427 Q686.292 288.427 681.917 283.566 Q677.565 278.705 677.565 270.51 Q677.565 262.316 681.917 257.455 Q686.292 252.571 693.583 252.571 Z" fill="#000000" fill-rule="nonzero" fill-opacity="1"></path><path clip-path="url(#clip590)" d="M731.708 265.811 Q730.99 265.395 730.134 265.21 Q729.301 265.001 728.282 265.001 Q724.671 265.001 722.727 267.362 Q720.805 269.7 720.805 274.098 L720.805 287.756 L716.523 287.756 L716.523 261.83 L720.805 261.83 L720.805 265.858 Q722.148 263.497 724.301 262.362 Q726.453 261.205 729.532 261.205 Q729.972 261.205 730.504 261.274 Q731.037 261.321 731.685 261.436 L731.708 265.811 Z" fill="#000000" fill-rule="nonzero" fill-opacity="1"></path><path clip-path="url(#clip590)" d="M754.787 274.816 Q754.787 270.117 752.842 267.455 Q750.921 264.77 747.541 264.77 Q744.162 264.77 742.217 267.455 Q740.296 270.117 740.296 274.816 Q740.296 279.515 742.217 282.2 Q744.162 284.862 747.541 284.862 Q750.921 284.862 752.842 282.2 Q754.787 279.515 754.787 274.816 M740.296 265.765 Q741.639 263.45 743.676 262.339 Q745.736 261.205 748.583 261.205 Q753.305 261.205 756.245 264.955 Q759.208 268.705 759.208 274.816 Q759.208 280.927 756.245 284.677 Q753.305 288.427 748.583 288.427 Q745.736 288.427 743.676 287.316 Q741.639 286.182 740.296 283.867 L740.296 287.756 L736.014 287.756 L736.014 251.737 L740.296 251.737 L740.296 265.765 Z" fill="#000000" fill-rule="nonzero" fill-opacity="1"></path><path clip-path="url(#clip590)" d="M766.268 261.83 L770.527 261.83 L770.527 287.756 L766.268 287.756 L766.268 261.83 M766.268 251.737 L770.527 251.737 L770.527 257.131 L766.268 257.131 L766.268 251.737 Z" fill="#000000" fill-rule="nonzero" fill-opacity="1"></path><path clip-path="url(#clip590)" d="M783.652 254.469 L783.652 261.83 L792.425 261.83 L792.425 265.14 L783.652 265.14 L783.652 279.214 Q783.652 282.385 784.509 283.288 Q785.388 284.191 788.05 284.191 L792.425 284.191 L792.425 287.756 L788.05 287.756 Q783.12 287.756 781.245 285.927 Q779.37 284.075 779.37 279.214 L779.37 265.14 L776.245 265.14 L776.245 261.83 L779.37 261.83 L779.37 254.469 L783.652 254.469 Z" fill="#000000" fill-rule="nonzero" fill-opacity="1"></path><path clip-path="url(#clip590)" d="M809.81 274.723 Q804.647 274.723 802.657 275.904 Q800.666 277.084 800.666 279.932 Q800.666 282.2 802.148 283.543 Q803.652 284.862 806.222 284.862 Q809.763 284.862 811.893 282.362 Q814.046 279.839 814.046 275.672 L814.046 274.723 L809.81 274.723 M818.305 272.964 L818.305 287.756 L814.046 287.756 L814.046 283.821 Q812.587 286.182 810.411 287.316 Q808.235 288.427 805.087 288.427 Q801.106 288.427 798.745 286.205 Q796.407 283.959 796.407 280.209 Q796.407 275.834 799.323 273.612 Q802.263 271.39 808.073 271.39 L814.046 271.39 L814.046 270.973 Q814.046 268.034 812.101 266.436 Q810.18 264.816 806.685 264.816 Q804.462 264.816 802.356 265.348 Q800.249 265.881 798.305 266.946 L798.305 263.01 Q800.643 262.108 802.842 261.668 Q805.041 261.205 807.124 261.205 Q812.749 261.205 815.527 264.122 Q818.305 267.038 818.305 272.964 Z" fill="#000000" fill-rule="nonzero" fill-opacity="1"></path><path clip-path="url(#clip590)" d="M827.078 251.737 L831.337 251.737 L831.337 287.756 L827.078 287.756 L827.078 251.737 Z" fill="#000000" fill-rule="nonzero" fill-opacity="1"></path><path clip-path="url(#clip590)" d="M856.777 262.594 L856.777 266.622 Q854.971 265.696 853.027 265.233 Q851.082 264.77 848.999 264.77 Q845.828 264.77 844.231 265.742 Q842.657 266.714 842.657 268.659 Q842.657 270.14 843.791 270.997 Q844.925 271.83 848.351 272.594 L849.809 272.918 Q854.346 273.89 856.244 275.672 Q858.166 277.432 858.166 280.603 Q858.166 284.214 855.295 286.321 Q852.448 288.427 847.448 288.427 Q845.365 288.427 843.096 288.01 Q840.851 287.617 838.351 286.807 L838.351 282.409 Q840.712 283.635 843.004 284.26 Q845.295 284.862 847.541 284.862 Q850.55 284.862 852.17 283.844 Q853.791 282.802 853.791 280.927 Q853.791 279.191 852.61 278.265 Q851.453 277.339 847.494 276.483 L846.013 276.135 Q842.055 275.302 840.295 273.589 Q838.536 271.853 838.536 268.844 Q838.536 265.186 841.129 263.196 Q843.721 261.205 848.49 261.205 Q850.851 261.205 852.934 261.552 Q855.018 261.899 856.777 262.594 Z" fill="#000000" fill-rule="nonzero" fill-opacity="1"></path><polyline clip-path="url(#clip590)" style="stroke:#3da44d; stroke-linecap:round; stroke-linejoin:round; stroke-width:6; stroke-opacity:1; fill:none" points="299.465,322.316 442.718,322.316 "></polyline>
<path clip-path="url(#clip590)" d="M466.594 305.036 L471.27 305.036 L471.27 335.661 L488.098 335.661 L488.098 339.596 L466.594 339.596 L466.594 305.036 Z" fill="#000000" fill-rule="nonzero" fill-opacity="1"></path><path clip-path="url(#clip590)" d="M514.163 325.568 L514.163 327.651 L494.58 327.651 Q494.857 332.049 497.219 334.364 Q499.603 336.656 503.839 336.656 Q506.293 336.656 508.584 336.054 Q510.899 335.452 513.168 334.249 L513.168 338.276 Q510.876 339.248 508.469 339.758 Q506.061 340.267 503.584 340.267 Q497.381 340.267 493.746 336.656 Q490.135 333.045 490.135 326.887 Q490.135 320.522 493.561 316.795 Q497.01 313.045 502.844 313.045 Q508.075 313.045 511.107 316.425 Q514.163 319.781 514.163 325.568 M509.904 324.318 Q509.857 320.823 507.936 318.739 Q506.038 316.656 502.89 316.656 Q499.325 316.656 497.172 318.67 Q495.043 320.684 494.719 324.341 L509.904 324.318 Z" fill="#000000" fill-rule="nonzero" fill-opacity="1"></path><path clip-path="url(#clip590)" d="M534.279 303.577 L534.279 307.119 L530.205 307.119 Q527.913 307.119 527.01 308.045 Q526.13 308.971 526.13 311.378 L526.13 313.67 L533.144 313.67 L533.144 316.98 L526.13 316.98 L526.13 339.596 L521.848 339.596 L521.848 316.98 L517.774 316.98 L517.774 313.67 L521.848 313.67 L521.848 311.864 Q521.848 307.536 523.862 305.568 Q525.876 303.577 530.251 303.577 L534.279 303.577 Z" fill="#000000" fill-rule="nonzero" fill-opacity="1"></path><path clip-path="url(#clip590)" d="M541.223 306.309 L541.223 313.67 L549.996 313.67 L549.996 316.98 L541.223 316.98 L541.223 331.054 Q541.223 334.225 542.079 335.128 Q542.959 336.031 545.621 336.031 L549.996 336.031 L549.996 339.596 L545.621 339.596 Q540.691 339.596 538.816 337.767 Q536.941 335.915 536.941 331.054 L536.941 316.98 L533.816 316.98 L533.816 313.67 L536.941 313.67 L536.941 306.309 L541.223 306.309 Z" fill="#000000" fill-rule="nonzero" fill-opacity="1"></path><path clip-path="url(#clip590)" d="M590.852 318.647 Q592.45 315.776 594.672 314.411 Q596.894 313.045 599.903 313.045 Q603.954 313.045 606.153 315.892 Q608.352 318.716 608.352 323.948 L608.352 339.596 L604.07 339.596 L604.07 324.087 Q604.07 320.36 602.75 318.554 Q601.431 316.749 598.723 316.749 Q595.413 316.749 593.491 318.948 Q591.57 321.147 591.57 324.943 L591.57 339.596 L587.288 339.596 L587.288 324.087 Q587.288 320.337 585.968 318.554 Q584.649 316.749 581.894 316.749 Q578.63 316.749 576.709 318.971 Q574.788 321.17 574.788 324.943 L574.788 339.596 L570.505 339.596 L570.505 313.67 L574.788 313.67 L574.788 317.698 Q576.246 315.313 578.283 314.179 Q580.32 313.045 583.121 313.045 Q585.945 313.045 587.913 314.48 Q589.903 315.915 590.852 318.647 Z" fill="#000000" fill-rule="nonzero" fill-opacity="1"></path><path clip-path="url(#clip590)" d="M639.023 325.568 L639.023 327.651 L619.44 327.651 Q619.718 332.049 622.079 334.364 Q624.463 336.656 628.699 336.656 Q631.153 336.656 633.445 336.054 Q635.76 335.452 638.028 334.249 L638.028 338.276 Q635.736 339.248 633.329 339.758 Q630.922 340.267 628.445 340.267 Q622.241 340.267 618.607 336.656 Q614.996 333.045 614.996 326.887 Q614.996 320.522 618.422 316.795 Q621.871 313.045 627.704 313.045 Q632.935 313.045 635.968 316.425 Q639.023 319.781 639.023 325.568 M634.764 324.318 Q634.718 320.823 632.797 318.739 Q630.898 316.656 627.75 316.656 Q624.185 316.656 622.033 318.67 Q619.903 320.684 619.579 324.341 L634.764 324.318 Z" fill="#000000" fill-rule="nonzero" fill-opacity="1"></path><path clip-path="url(#clip590)" d="M668.19 325.568 L668.19 327.651 L648.607 327.651 Q648.884 332.049 651.246 334.364 Q653.63 336.656 657.866 336.656 Q660.32 336.656 662.611 336.054 Q664.926 335.452 667.195 334.249 L667.195 338.276 Q664.903 339.248 662.495 339.758 Q660.088 340.267 657.611 340.267 Q651.408 340.267 647.773 336.656 Q644.162 333.045 644.162 326.887 Q644.162 320.522 647.588 316.795 Q651.037 313.045 656.871 313.045 Q662.102 313.045 665.134 316.425 Q668.19 319.781 668.19 325.568 M663.931 324.318 Q663.884 320.823 661.963 318.739 Q660.065 316.656 656.917 316.656 Q653.352 316.656 651.199 318.67 Q649.07 320.684 648.746 324.341 L663.931 324.318 Z" fill="#000000" fill-rule="nonzero" fill-opacity="1"></path><path clip-path="url(#clip590)" d="M679.394 306.309 L679.394 313.67 L688.167 313.67 L688.167 316.98 L679.394 316.98 L679.394 331.054 Q679.394 334.225 680.25 335.128 Q681.13 336.031 683.792 336.031 L688.167 336.031 L688.167 339.596 L683.792 339.596 Q678.861 339.596 676.986 337.767 Q675.111 335.915 675.111 331.054 L675.111 316.98 L671.986 316.98 L671.986 313.67 L675.111 313.67 L675.111 306.309 L679.394 306.309 Z" fill="#000000" fill-rule="nonzero" fill-opacity="1"></path><path clip-path="url(#clip590)" d="M710.296 314.434 L710.296 318.462 Q708.491 317.536 706.546 317.073 Q704.602 316.61 702.518 316.61 Q699.347 316.61 697.75 317.582 Q696.176 318.554 696.176 320.499 Q696.176 321.98 697.31 322.837 Q698.444 323.67 701.87 324.434 L703.329 324.758 Q707.866 325.73 709.764 327.512 Q711.685 329.272 711.685 332.443 Q711.685 336.054 708.815 338.161 Q705.967 340.267 700.967 340.267 Q698.884 340.267 696.616 339.85 Q694.37 339.457 691.87 338.647 L691.87 334.249 Q694.231 335.475 696.523 336.1 Q698.815 336.702 701.06 336.702 Q704.069 336.702 705.69 335.684 Q707.31 334.642 707.31 332.767 Q707.31 331.031 706.13 330.105 Q704.972 329.179 701.014 328.323 L699.532 327.975 Q695.574 327.142 693.815 325.429 Q692.056 323.693 692.056 320.684 Q692.056 317.026 694.648 315.036 Q697.241 313.045 702.009 313.045 Q704.37 313.045 706.454 313.392 Q708.537 313.739 710.296 314.434 Z" fill="#000000" fill-rule="nonzero" fill-opacity="1"></path><path clip-path="url(#clip590)" d="M748.56 317.651 Q747.842 317.235 746.986 317.05 Q746.152 316.841 745.134 316.841 Q741.523 316.841 739.578 319.202 Q737.657 321.54 737.657 325.938 L737.657 339.596 L733.375 339.596 L733.375 313.67 L737.657 313.67 L737.657 317.698 Q739 315.337 741.152 314.202 Q743.305 313.045 746.384 313.045 Q746.824 313.045 747.356 313.114 Q747.889 313.161 748.537 313.276 L748.56 317.651 Z" fill="#000000" fill-rule="nonzero" fill-opacity="1"></path><path clip-path="url(#clip590)" d="M753.027 313.67 L757.287 313.67 L757.287 339.596 L753.027 339.596 L753.027 313.67 M753.027 303.577 L757.287 303.577 L757.287 308.971 L753.027 308.971 L753.027 303.577 Z" fill="#000000" fill-rule="nonzero" fill-opacity="1"></path><path clip-path="url(#clip590)" d="M783.259 326.332 Q783.259 321.702 781.337 319.156 Q779.439 316.61 775.99 316.61 Q772.564 316.61 770.643 319.156 Q768.745 321.702 768.745 326.332 Q768.745 330.938 770.643 333.485 Q772.564 336.031 775.99 336.031 Q779.439 336.031 781.337 333.485 Q783.259 330.938 783.259 326.332 M787.518 336.378 Q787.518 342.998 784.578 346.216 Q781.638 349.457 775.574 349.457 Q773.328 349.457 771.337 349.11 Q769.347 348.785 767.472 348.091 L767.472 343.948 Q769.347 344.966 771.175 345.452 Q773.004 345.938 774.902 345.938 Q779.092 345.938 781.175 343.739 Q783.259 341.563 783.259 337.142 L783.259 335.036 Q781.939 337.327 779.879 338.461 Q777.819 339.596 774.949 339.596 Q770.18 339.596 767.263 335.961 Q764.347 332.327 764.347 326.332 Q764.347 320.313 767.263 316.679 Q770.18 313.045 774.949 313.045 Q777.819 313.045 779.879 314.179 Q781.939 315.313 783.259 317.605 L783.259 313.67 L787.518 313.67 L787.518 336.378 Z" fill="#000000" fill-rule="nonzero" fill-opacity="1"></path><path clip-path="url(#clip590)" d="M817.842 323.948 L817.842 339.596 L813.583 339.596 L813.583 324.087 Q813.583 320.406 812.147 318.577 Q810.712 316.749 807.842 316.749 Q804.393 316.749 802.402 318.948 Q800.411 321.147 800.411 324.943 L800.411 339.596 L796.129 339.596 L796.129 303.577 L800.411 303.577 L800.411 317.698 Q801.939 315.36 803.999 314.202 Q806.083 313.045 808.791 313.045 Q813.259 313.045 815.55 315.823 Q817.842 318.577 817.842 323.948 Z" fill="#000000" fill-rule="nonzero" fill-opacity="1"></path><path clip-path="url(#clip590)" d="M830.55 306.309 L830.55 313.67 L839.323 313.67 L839.323 316.98 L830.55 316.98 L830.55 331.054 Q830.55 334.225 831.407 335.128 Q832.286 336.031 834.948 336.031 L839.323 336.031 L839.323 339.596 L834.948 339.596 Q830.018 339.596 828.143 337.767 Q826.268 335.915 826.268 331.054 L826.268 316.98 L823.143 316.98 L823.143 313.67 L826.268 313.67 L826.268 306.309 L830.55 306.309 Z" fill="#000000" fill-rule="nonzero" fill-opacity="1"></path></svg>