<svg xmlns="http://www.w3.org/2000/svg" xmlns:xlink="http://www.w3.org/1999/xlink" width="600" height="350" viewBox="0 0 2400 1400">
<defs>
  <clipPath id="clip470">
    <rect x="0" y="0" width="2400" height="1400"></rect>
  </clipPath>
</defs>
<path clip-path="url(#clip470)" d="M0 1400 L2400 1400 L2400 -8.88178e-14 L0 -8.88178e-14  Z" fill="#ffffff" fill-rule="evenodd" fill-opacity="1"></path>
<defs>
  <clipPath id="clip471">
    <rect x="480" y="0" width="1681" height="1400"></rect>
  </clipPath>
</defs>
<path clip-path="url(#clip470)" d="M260.069 1208.98 L2352.76 1208.98 L2352.76 115.912 L260.069 115.912  Z" fill="#ffffff" fill-rule="evenodd" fill-opacity="1"></path>
<defs>
  <clipPath id="clip472">
    <rect x="260" y="115" width="2094" height="1094"></rect>
  </clipPath>
</defs>
<polyline clip-path="url(#clip470)" style="stroke:#000000; stroke-linecap:round; stroke-linejoin:round; stroke-width:4; stroke-opacity:1; fill:none" points="260.069,1208.98 2352.76,1208.98 "></polyline>
<polyline clip-path="url(#clip470)" style="stroke:#000000; stroke-linecap:round; stroke-linejoin:round; stroke-width:4; stroke-opacity:1; fill:none" points="260.069,115.912 2352.76,115.912 "></polyline>
<polyline clip-path="url(#clip470)" style="stroke:#000000; stroke-linecap:round; stroke-linejoin:round; stroke-width:4; stroke-opacity:1; fill:none" points="287.959,1208.98 287.959,1190.08 "></polyline>
<polyline clip-path="url(#clip470)" style="stroke:#000000; stroke-linecap:round; stroke-linejoin:round; stroke-width:4; stroke-opacity:1; fill:none" points="601.33,1208.98 601.33,1190.08 "></polyline>
<polyline clip-path="url(#clip470)" style="stroke:#000000; stroke-linecap:round; stroke-linejoin:round; stroke-width:4; stroke-opacity:1; fill:none" points="914.7,1208.98 914.7,1190.08 "></polyline>
<polyline clip-path="url(#clip470)" style="stroke:#000000; stroke-linecap:round; stroke-linejoin:round; stroke-width:4; stroke-opacity:1; fill:none" points="1228.07,1208.98 1228.07,1190.08 "></polyline>
<polyline clip-path="url(#clip470)" style="stroke:#000000; stroke-linecap:round; stroke-linejoin:round; stroke-width:4; stroke-opacity:1; fill:none" points="1541.44,1208.98 1541.44,1190.08 "></polyline>
<polyline clip-path="url(#clip470)" style="stroke:#000000; stroke-linecap:round; stroke-linejoin:round; stroke-width:4; stroke-opacity:1; fill:none" points="1854.81,1208.98 1854.81,1190.08 "></polyline>
<polyline clip-path="url(#clip470)" style="stroke:#000000; stroke-linecap:round; stroke-linejoin:round; stroke-width:4; stroke-opacity:1; fill:none" points="2168.18,1208.98 2168.18,1190.08 "></polyline>
<polyline clip-path="url(#clip470)" style="stroke:#000000; stroke-linecap:round; stroke-linejoin:round; stroke-width:4; stroke-opacity:1; fill:none" points="287.959,115.912 287.959,134.81 "></polyline>
<polyline clip-path="url(#clip470)" style="stroke:#000000; stroke-linecap:round; stroke-linejoin:round; stroke-width:4; stroke-opacity:1; fill:none" points="601.33,115.912 601.33,134.81 "></polyline>
<polyline clip-path="url(#clip470)" style="stroke:#000000; stroke-linecap:round; stroke-linejoin:round; stroke-width:4; stroke-opacity:1; fill:none" points="914.7,115.912 914.7,134.81 "></polyline>
<polyline clip-path="url(#clip470)" style="stroke:#000000; stroke-linecap:round; stroke-linejoin:round; stroke-width:4; stroke-opacity:1; fill:none" points="1228.07,115.912 1228.07,134.81 "></polyline>
<polyline clip-path="url(#clip470)" style="stroke:#000000; stroke-linecap:round; stroke-linejoin:round; stroke-width:4; stroke-opacity:1; fill:none" points="1541.44,115.912 1541.44,134.81 "></polyline>
<polyline clip-path="url(#clip470)" style="stroke:#000000; stroke-linecap:round; stroke-linejoin:round; stroke-width:4; stroke-opacity:1; fill:none" points="1854.81,115.912 1854.81,134.81 "></polyline>
<polyline clip-path="url(#clip470)" style="stroke:#000000; stroke-linecap:round; stroke-linejoin:round; stroke-width:4; stroke-opacity:1; fill:none" points="2168.18,115.912 2168.18,134.81 "></polyline>
<path clip-path="url(#clip470)" d="M287.959 1245.76 Q282.543 1245.76 279.8 1251.11 Q277.091 1256.42 277.091 1267.11 Q277.091 1277.77 279.8 1283.12 Q282.543 1288.43 287.959 1288.43 Q293.411 1288.43 296.119 1283.12 Q298.862 1277.77 298.862 1267.11 Q298.862 1256.42 296.119 1251.11 Q293.411 1245.76 287.959 1245.76 M287.959 1240.2 Q296.675 1240.2 301.258 1247.11 Q305.876 1253.99 305.876 1267.11 Q305.876 1280.2 301.258 1287.11 Q296.675 1293.99 287.959 1293.99 Q279.244 1293.99 274.626 1287.11 Q270.043 1280.2 270.043 1267.11 Q270.043 1253.99 274.626 1247.11 Q279.244 1240.2 287.959 1240.2 Z" fill="#000000" fill-rule="nonzero" fill-opacity="1"></path><path clip-path="url(#clip470)" d="M563.361 1287.08 L574.819 1287.08 L574.819 1247.53 L562.354 1250.03 L562.354 1243.64 L574.75 1241.14 L581.764 1241.14 L581.764 1287.08 L593.222 1287.08 L593.222 1292.98 L563.361 1292.98 L563.361 1287.08 Z" fill="#000000" fill-rule="nonzero" fill-opacity="1"></path><path clip-path="url(#clip470)" d="M622.388 1245.76 Q616.972 1245.76 614.229 1251.11 Q611.52 1256.42 611.52 1267.11 Q611.52 1277.77 614.229 1283.12 Q616.972 1288.43 622.388 1288.43 Q627.84 1288.43 630.548 1283.12 Q633.291 1277.77 633.291 1267.11 Q633.291 1256.42 630.548 1251.11 Q627.84 1245.76 622.388 1245.76 M622.388 1240.2 Q631.104 1240.2 635.687 1247.11 Q640.305 1253.99 640.305 1267.11 Q640.305 1280.2 635.687 1287.11 Q631.104 1293.99 622.388 1293.99 Q613.673 1293.99 609.055 1287.11 Q604.472 1280.2 604.472 1267.11 Q604.472 1253.99 609.055 1247.11 Q613.673 1240.2 622.388 1240.2 Z" fill="#000000" fill-rule="nonzero" fill-opacity="1"></path><path clip-path="url(#clip470)" d="M882.86 1287.08 L907.339 1287.08 L907.339 1292.98 L874.422 1292.98 L874.422 1287.08 Q878.415 1282.95 885.29 1276 Q892.2 1269.02 893.971 1267.01 Q897.339 1263.22 898.658 1260.62 Q900.012 1257.98 900.012 1255.45 Q900.012 1251.31 897.096 1248.71 Q894.214 1246.11 889.561 1246.11 Q886.262 1246.11 882.582 1247.25 Q878.936 1248.4 874.769 1250.72 L874.769 1243.64 Q879.006 1241.94 882.686 1241.07 Q886.367 1240.2 889.422 1240.2 Q897.478 1240.2 902.269 1244.23 Q907.061 1248.26 907.061 1254.99 Q907.061 1258.19 905.846 1261.07 Q904.665 1263.92 901.505 1267.81 Q900.637 1268.81 895.985 1273.64 Q891.332 1278.43 882.86 1287.08 Z" fill="#000000" fill-rule="nonzero" fill-opacity="1"></path><path clip-path="url(#clip470)" d="M937.061 1245.76 Q931.644 1245.76 928.901 1251.11 Q926.193 1256.42 926.193 1267.11 Q926.193 1277.77 928.901 1283.12 Q931.644 1288.43 937.061 1288.43 Q942.512 1288.43 945.22 1283.12 Q947.964 1277.77 947.964 1267.11 Q947.964 1256.42 945.22 1251.11 Q942.512 1245.76 937.061 1245.76 M937.061 1240.2 Q945.776 1240.2 950.359 1247.11 Q954.977 1253.99 954.977 1267.11 Q954.977 1280.2 950.359 1287.11 Q945.776 1293.99 937.061 1293.99 Q928.346 1293.99 923.728 1287.11 Q919.144 1280.2 919.144 1267.11 Q919.144 1253.99 923.728 1247.11 Q928.346 1240.2 937.061 1240.2 Z" fill="#000000" fill-rule="nonzero" fill-opacity="1"></path><path clip-path="url(#clip470)" d="M1211.33 1265.03 Q1216.37 1266.1 1219.18 1269.51 Q1222.03 1272.91 1222.03 1277.91 Q1222.03 1285.58 1216.75 1289.79 Q1211.47 1293.99 1201.75 1293.99 Q1198.49 1293.99 1195.01 1293.33 Q1191.58 1292.7 1187.9 1291.42 L1187.9 1284.65 Q1190.81 1286.35 1194.29 1287.22 Q1197.76 1288.08 1201.54 1288.08 Q1208.14 1288.08 1211.58 1285.48 Q1215.05 1282.88 1215.05 1277.91 Q1215.05 1273.33 1211.82 1270.76 Q1208.63 1268.15 1202.9 1268.15 L1196.85 1268.15 L1196.85 1262.39 L1203.17 1262.39 Q1208.35 1262.39 1211.09 1260.34 Q1213.83 1258.26 1213.83 1254.37 Q1213.83 1250.38 1210.99 1248.26 Q1208.17 1246.11 1202.9 1246.11 Q1200.01 1246.11 1196.72 1246.73 Q1193.42 1247.36 1189.46 1248.67 L1189.46 1242.42 Q1193.45 1241.31 1196.92 1240.76 Q1200.43 1240.2 1203.52 1240.2 Q1211.51 1240.2 1216.16 1243.85 Q1220.81 1247.46 1220.81 1253.64 Q1220.81 1257.95 1218.35 1260.93 Q1215.88 1263.88 1211.33 1265.03 Z" fill="#000000" fill-rule="nonzero" fill-opacity="1"></path><path clip-path="url(#clip470)" d="M1250.33 1245.76 Q1244.91 1245.76 1242.17 1251.11 Q1239.46 1256.42 1239.46 1267.11 Q1239.46 1277.77 1242.17 1283.12 Q1244.91 1288.43 1250.33 1288.43 Q1255.78 1288.43 1258.49 1283.12 Q1261.23 1277.77 1261.23 1267.11 Q1261.23 1256.42 1258.49 1251.11 Q1255.78 1245.76 1250.33 1245.76 M1250.33 1240.2 Q1259.04 1240.2 1263.63 1247.11 Q1268.24 1253.99 1268.24 1267.11 Q1268.24 1280.2 1263.63 1287.11 Q1259.04 1293.99 1250.33 1293.99 Q1241.61 1293.99 1236.99 1287.11 Q1232.41 1280.2 1232.41 1267.11 Q1232.41 1253.99 1236.99 1247.11 Q1241.61 1240.2 1250.33 1240.2 Z" fill="#000000" fill-rule="nonzero" fill-opacity="1"></path><path clip-path="url(#clip470)" d="M1523.7 1247.25 L1505.99 1274.92 L1523.7 1274.92 L1523.7 1247.25 M1521.86 1241.14 L1530.68 1241.14 L1530.68 1274.92 L1538.07 1274.92 L1538.07 1280.76 L1530.68 1280.76 L1530.68 1292.98 L1523.7 1292.98 L1523.7 1280.76 L1500.29 1280.76 L1500.29 1273.99 L1521.86 1241.14 Z" fill="#000000" fill-rule="nonzero" fill-opacity="1"></path><path clip-path="url(#clip470)" d="M1564.67 1245.76 Q1559.25 1245.76 1556.51 1251.11 Q1553.8 1256.42 1553.8 1267.11 Q1553.8 1277.77 1556.51 1283.12 Q1559.25 1288.43 1564.67 1288.43 Q1570.12 1288.43 1572.83 1283.12 Q1575.57 1277.77 1575.57 1267.11 Q1575.57 1256.42 1572.83 1251.11 Q1570.12 1245.76 1564.67 1245.76 M1564.67 1240.2 Q1573.38 1240.2 1577.97 1247.11 Q1582.59 1253.99 1582.59 1267.11 Q1582.59 1280.2 1577.97 1287.11 Q1573.38 1293.99 1564.67 1293.99 Q1555.95 1293.99 1551.34 1287.11 Q1546.75 1280.2 1546.75 1267.11 Q1546.75 1253.99 1551.34 1247.11 Q1555.95 1240.2 1564.67 1240.2 Z" fill="#000000" fill-rule="nonzero" fill-opacity="1"></path><path clip-path="url(#clip470)" d="M1816.86 1241.14 L1844.39 1241.14 L1844.39 1247.04 L1823.28 1247.04 L1823.28 1259.75 Q1824.81 1259.23 1826.34 1258.99 Q1827.87 1258.71 1829.39 1258.71 Q1838.07 1258.71 1843.14 1263.47 Q1848.21 1268.22 1848.21 1276.35 Q1848.21 1284.72 1843.01 1289.37 Q1837.8 1293.99 1828.32 1293.99 Q1825.05 1293.99 1821.65 1293.43 Q1818.28 1292.88 1814.67 1291.76 L1814.67 1284.72 Q1817.8 1286.42 1821.13 1287.25 Q1824.46 1288.08 1828.18 1288.08 Q1834.19 1288.08 1837.69 1284.92 Q1841.2 1281.76 1841.2 1276.35 Q1841.2 1270.93 1837.69 1267.77 Q1834.19 1264.61 1828.18 1264.61 Q1825.37 1264.61 1822.55 1265.24 Q1819.78 1265.86 1816.86 1267.18 L1816.86 1241.14 Z" fill="#000000" fill-rule="nonzero" fill-opacity="1"></path><path clip-path="url(#clip470)" d="M1877.03 1245.76 Q1871.62 1245.76 1868.87 1251.11 Q1866.16 1256.42 1866.16 1267.11 Q1866.16 1277.77 1868.87 1283.12 Q1871.62 1288.43 1877.03 1288.43 Q1882.48 1288.43 1885.19 1283.12 Q1887.94 1277.77 1887.94 1267.11 Q1887.94 1256.42 1885.19 1251.11 Q1882.48 1245.76 1877.03 1245.76 M1877.03 1240.2 Q1885.75 1240.2 1890.33 1247.11 Q1894.95 1253.99 1894.95 1267.11 Q1894.95 1280.2 1890.33 1287.11 Q1885.75 1293.99 1877.03 1293.99 Q1868.32 1293.99 1863.7 1287.11 Q1859.12 1280.2 1859.12 1267.11 Q1859.12 1253.99 1863.7 1247.11 Q1868.32 1240.2 1877.03 1240.2 Z" fill="#000000" fill-rule="nonzero" fill-opacity="1"></path><path clip-path="url(#clip470)" d="M2146.29 1264.26 Q2141.57 1264.26 2138.79 1267.49 Q2136.05 1270.72 2136.05 1276.35 Q2136.05 1281.94 2138.79 1285.2 Q2141.57 1288.43 2146.29 1288.43 Q2151.01 1288.43 2153.75 1285.2 Q2156.53 1281.94 2156.53 1276.35 Q2156.53 1270.72 2153.75 1267.49 Q2151.01 1264.26 2146.29 1264.26 M2160.21 1242.29 L2160.21 1248.67 Q2157.57 1247.42 2154.86 1246.76 Q2152.19 1246.11 2149.55 1246.11 Q2142.61 1246.11 2138.93 1250.79 Q2135.28 1255.48 2134.76 1264.96 Q2136.81 1261.94 2139.9 1260.34 Q2142.99 1258.71 2146.71 1258.71 Q2154.52 1258.71 2159.03 1263.47 Q2163.58 1268.19 2163.58 1276.35 Q2163.58 1284.33 2158.86 1289.16 Q2154.14 1293.99 2146.29 1293.99 Q2137.3 1293.99 2132.54 1287.11 Q2127.78 1280.2 2127.78 1267.11 Q2127.78 1254.82 2133.62 1247.53 Q2139.45 1240.2 2149.27 1240.2 Q2151.91 1240.2 2154.59 1240.72 Q2157.3 1241.24 2160.21 1242.29 Z" fill="#000000" fill-rule="nonzero" fill-opacity="1"></path><path clip-path="url(#clip470)" d="M2190.66 1245.76 Q2185.25 1245.76 2182.5 1251.11 Q2179.8 1256.42 2179.8 1267.11 Q2179.8 1277.77 2182.5 1283.12 Q2185.25 1288.43 2190.66 1288.43 Q2196.11 1288.43 2198.82 1283.12 Q2201.57 1277.77 2201.57 1267.11 Q2201.57 1256.42 2198.82 1251.11 Q2196.11 1245.76 2190.66 1245.76 M2190.66 1240.2 Q2199.38 1240.2 2203.96 1247.11 Q2208.58 1253.99 2208.58 1267.11 Q2208.58 1280.2 2203.96 1287.11 Q2199.38 1293.99 2190.66 1293.99 Q2181.95 1293.99 2177.33 1287.11 Q2172.75 1280.2 2172.75 1267.11 Q2172.75 1253.99 2177.33 1247.11 Q2181.95 1240.2 2190.66 1240.2 Z" fill="#000000" fill-rule="nonzero" fill-opacity="1"></path><path clip-path="url(#clip470)" d="M1240.63 1336.82 L1240.63 1344.8 Q1235.97 1342.57 1231.84 1341.48 Q1227.7 1340.39 1223.86 1340.39 Q1217.17 1340.39 1213.53 1342.98 Q1209.92 1345.57 1209.92 1350.35 Q1209.92 1354.36 1212.31 1356.43 Q1214.74 1358.45 1221.47 1359.71 L1226.41 1360.72 Q1235.56 1362.46 1239.9 1366.88 Q1244.27 1371.25 1244.27 1378.63 Q1244.27 1387.42 1238.36 1391.95 Q1232.48 1396.49 1221.1 1396.49 Q1216.81 1396.49 1211.95 1395.52 Q1207.12 1394.55 1201.94 1392.64 L1201.94 1384.22 Q1206.92 1387.01 1211.7 1388.43 Q1216.48 1389.85 1221.1 1389.85 Q1228.11 1389.85 1231.92 1387.09 Q1235.72 1384.34 1235.72 1379.23 Q1235.72 1374.78 1232.97 1372.27 Q1230.26 1369.75 1224.02 1368.5 L1219.03 1367.53 Q1209.88 1365.7 1205.79 1361.81 Q1201.7 1357.93 1201.7 1351 Q1201.7 1342.98 1207.33 1338.36 Q1213 1333.74 1222.92 1333.74 Q1227.18 1333.74 1231.59 1334.51 Q1236.01 1335.28 1240.63 1336.82 Z" fill="#000000" fill-rule="nonzero" fill-opacity="1"></path><path clip-path="url(#clip470)" d="M1256.71 1349.95 L1264.16 1349.95 L1264.16 1395.32 L1256.71 1395.32 L1256.71 1349.95 M1256.71 1332.28 L1264.16 1332.28 L1264.16 1341.72 L1256.71 1341.72 L1256.71 1332.28 Z" fill="#000000" fill-rule="nonzero" fill-opacity="1"></path><path clip-path="url(#clip470)" d="M1287.13 1337.06 L1287.13 1349.95 L1302.48 1349.95 L1302.48 1355.74 L1287.13 1355.74 L1287.13 1380.37 Q1287.13 1385.92 1288.63 1387.5 Q1290.17 1389.08 1294.83 1389.08 L1302.48 1389.08 L1302.48 1395.32 L1294.83 1395.32 Q1286.2 1395.32 1282.92 1392.12 Q1279.64 1388.87 1279.64 1380.37 L1279.64 1355.74 L1274.17 1355.74 L1274.17 1349.95 L1279.64 1349.95 L1279.64 1337.06 L1287.13 1337.06 Z" fill="#000000" fill-rule="nonzero" fill-opacity="1"></path><path clip-path="url(#clip470)" d="M1351.09 1370.77 L1351.09 1374.41 L1316.82 1374.41 Q1317.31 1382.11 1321.44 1386.16 Q1325.61 1390.17 1333.03 1390.17 Q1337.32 1390.17 1341.33 1389.12 Q1345.38 1388.06 1349.35 1385.96 L1349.35 1393.01 Q1345.34 1394.71 1341.13 1395.6 Q1336.92 1396.49 1332.58 1396.49 Q1321.73 1396.49 1315.37 1390.17 Q1309.05 1383.85 1309.05 1373.08 Q1309.05 1361.94 1315.04 1355.41 Q1321.08 1348.85 1331.29 1348.85 Q1340.44 1348.85 1345.75 1354.77 Q1351.09 1360.64 1351.09 1370.77 M1343.64 1368.58 Q1343.56 1362.46 1340.2 1358.82 Q1336.88 1355.17 1331.37 1355.17 Q1325.13 1355.17 1321.36 1358.7 Q1317.63 1362.22 1317.07 1368.62 L1343.64 1368.58 Z" fill="#000000" fill-rule="nonzero" fill-opacity="1"></path><path clip-path="url(#clip470)" d="M1394.2 1384.46 Q1395.86 1392.56 1399.38 1392.56 Q1401.73 1392.56 1404.77 1387.9 L1410.16 1387.9 Q1407.73 1392.03 1404.89 1394.18 Q1401.81 1396.49 1398.98 1396.49 Q1392.66 1396.49 1390.1 1390.86 L1387.07 1395.32 L1380.75 1395.32 Q1385.12 1389.36 1388.36 1383.81 Q1387.96 1380.65 1387.96 1377.21 Q1387.96 1371.05 1389.21 1364.89 Q1393.95 1341.76 1398.17 1337.02 Q1401.08 1333.74 1406.06 1333.74 Q1411.13 1333.74 1411.13 1340.75 Q1411.09 1343.91 1410.36 1347.68 Q1407.44 1363.11 1394.2 1384.46 M1394.16 1373.85 Q1401.73 1359.75 1404.04 1348.49 Q1405.25 1342.53 1405.25 1340.99 Q1405.25 1338.2 1404.24 1338.2 Q1399.83 1341.72 1395.9 1362.71 Q1394.8 1368.58 1394.16 1373.85 Z" fill="#000000" fill-rule="nonzero" fill-opacity="1"></path><polyline clip-path="url(#clip470)" style="stroke:#000000; stroke-linecap:round; stroke-linejoin:round; stroke-width:4; stroke-opacity:1; fill:none" points="260.069,1208.98 260.069,115.912 "></polyline>
<polyline clip-path="url(#clip470)" style="stroke:#000000; stroke-linecap:round; stroke-linejoin:round; stroke-width:4; stroke-opacity:1; fill:none" points="2352.76,1208.98 2352.76,115.912 "></polyline>
<polyline clip-path="url(#clip470)" style="stroke:#000000; stroke-linecap:round; stroke-linejoin:round; stroke-width:4; stroke-opacity:1; fill:none" points="260.069,1178.04 278.967,1178.04 "></polyline>
<polyline clip-path="url(#clip470)" style="stroke:#000000; stroke-linecap:round; stroke-linejoin:round; stroke-width:4; stroke-opacity:1; fill:none" points="260.069,927.976 278.967,927.976 "></polyline>
<polyline clip-path="url(#clip470)" style="stroke:#000000; stroke-linecap:round; stroke-linejoin:round; stroke-width:4; stroke-opacity:1; fill:none" points="260.069,677.908 278.967,677.908 "></polyline>
<polyline clip-path="url(#clip470)" style="stroke:#000000; stroke-linecap:round; stroke-linejoin:round; stroke-width:4; stroke-opacity:1; fill:none" points="260.069,427.839 278.967,427.839 "></polyline>
<polyline clip-path="url(#clip470)" style="stroke:#000000; stroke-linecap:round; stroke-linejoin:round; stroke-width:4; stroke-opacity:1; fill:none" points="260.069,177.771 278.967,177.771 "></polyline>
<polyline clip-path="url(#clip470)" style="stroke:#000000; stroke-linecap:round; stroke-linejoin:round; stroke-width:4; stroke-opacity:1; fill:none" points="2352.76,1178.04 2333.86,1178.04 "></polyline>
<polyline clip-path="url(#clip470)" style="stroke:#000000; stroke-linecap:round; stroke-linejoin:round; stroke-width:4; stroke-opacity:1; fill:none" points="2352.76,927.976 2333.86,927.976 "></polyline>
<polyline clip-path="url(#clip470)" style="stroke:#000000; stroke-linecap:round; stroke-linejoin:round; stroke-width:4; stroke-opacity:1; fill:none" points="2352.76,677.908 2333.86,677.908 "></polyline>
<polyline clip-path="url(#clip470)" style="stroke:#000000; stroke-linecap:round; stroke-linejoin:round; stroke-width:4; stroke-opacity:1; fill:none" points="2352.76,427.839 2333.86,427.839 "></polyline>
<polyline clip-path="url(#clip470)" style="stroke:#000000; stroke-linecap:round; stroke-linejoin:round; stroke-width:4; stroke-opacity:1; fill:none" points="2352.76,177.771 2333.86,177.771 "></polyline>
<path clip-path="url(#clip470)" d="M138.306 1156.74 Q132.889 1156.74 130.146 1162.09 Q127.438 1167.4 127.438 1178.1 Q127.438 1188.76 130.146 1194.1 Q132.889 1199.42 138.306 1199.42 Q143.757 1199.42 146.466 1194.1 Q149.209 1188.76 149.209 1178.1 Q149.209 1167.4 146.466 1162.09 Q143.757 1156.74 138.306 1156.74 M138.306 1151.19 Q147.021 1151.19 151.604 1158.1 Q156.222 1164.97 156.222 1178.1 Q156.222 1191.19 151.604 1198.1 Q147.021 1204.97 138.306 1204.97 Q129.591 1204.97 124.973 1198.1 Q120.389 1191.19 120.389 1178.1 Q120.389 1164.97 124.973 1158.1 Q129.591 1151.19 138.306 1151.19 Z" fill="#000000" fill-rule="nonzero" fill-opacity="1"></path><path clip-path="url(#clip470)" d="M168.549 1195.14 L175.875 1195.14 L175.875 1203.96 L168.549 1203.96 L168.549 1195.14 Z" fill="#000000" fill-rule="nonzero" fill-opacity="1"></path><path clip-path="url(#clip470)" d="M206.153 1156.74 Q200.736 1156.74 197.993 1162.09 Q195.285 1167.4 195.285 1178.1 Q195.285 1188.76 197.993 1194.1 Q200.736 1199.42 206.153 1199.42 Q211.604 1199.42 214.312 1194.1 Q217.055 1188.76 217.055 1178.1 Q217.055 1167.4 214.312 1162.09 Q211.604 1156.74 206.153 1156.74 M206.153 1151.19 Q214.868 1151.19 219.451 1158.1 Q224.069 1164.97 224.069 1178.1 Q224.069 1191.19 219.451 1198.1 Q214.868 1204.97 206.153 1204.97 Q197.438 1204.97 192.819 1198.1 Q188.236 1191.19 188.236 1178.1 Q188.236 1164.97 192.819 1158.1 Q197.438 1151.19 206.153 1151.19 Z" fill="#000000" fill-rule="nonzero" fill-opacity="1"></path><path clip-path="url(#clip470)" d="M140.146 906.674 Q134.73 906.674 131.986 912.021 Q129.278 917.333 129.278 928.028 Q129.278 938.688 131.986 944.035 Q134.73 949.347 140.146 949.347 Q145.598 949.347 148.306 944.035 Q151.049 938.688 151.049 928.028 Q151.049 917.333 148.306 912.021 Q145.598 906.674 140.146 906.674 M140.146 901.118 Q148.861 901.118 153.445 908.028 Q158.063 914.903 158.063 928.028 Q158.063 941.118 153.445 948.028 Q148.861 954.903 140.146 954.903 Q131.431 954.903 126.813 948.028 Q122.23 941.118 122.23 928.028 Q122.23 914.903 126.813 908.028 Q131.431 901.118 140.146 901.118 Z" fill="#000000" fill-rule="nonzero" fill-opacity="1"></path><path clip-path="url(#clip470)" d="M170.389 945.076 L177.715 945.076 L177.715 953.896 L170.389 953.896 L170.389 945.076 Z" fill="#000000" fill-rule="nonzero" fill-opacity="1"></path><path clip-path="url(#clip470)" d="M194.208 947.993 L205.667 947.993 L205.667 908.445 L193.201 910.945 L193.201 904.556 L205.597 902.056 L212.611 902.056 L212.611 947.993 L224.069 947.993 L224.069 953.896 L194.208 953.896 L194.208 947.993 Z" fill="#000000" fill-rule="nonzero" fill-opacity="1"></path><path clip-path="url(#clip470)" d="M140.702 656.606 Q135.285 656.606 132.542 661.953 Q129.834 667.265 129.834 677.96 Q129.834 688.619 132.542 693.967 Q135.285 699.279 140.702 699.279 Q146.153 699.279 148.861 693.967 Q151.604 688.619 151.604 677.96 Q151.604 667.265 148.861 661.953 Q146.153 656.606 140.702 656.606 M140.702 651.05 Q149.417 651.05 154 657.96 Q158.618 664.835 158.618 677.96 Q158.618 691.05 154 697.96 Q149.417 704.835 140.702 704.835 Q131.986 704.835 127.368 697.96 Q122.785 691.05 122.785 677.96 Q122.785 664.835 127.368 657.96 Q131.986 651.05 140.702 651.05 Z" fill="#000000" fill-rule="nonzero" fill-opacity="1"></path><path clip-path="url(#clip470)" d="M170.945 695.008 L178.271 695.008 L178.271 703.828 L170.945 703.828 L170.945 695.008 Z" fill="#000000" fill-rule="nonzero" fill-opacity="1"></path><path clip-path="url(#clip470)" d="M199.59 697.925 L224.069 697.925 L224.069 703.828 L191.153 703.828 L191.153 697.925 Q195.146 693.793 202.021 686.848 Q208.931 679.869 210.701 677.855 Q214.069 674.071 215.389 671.467 Q216.743 668.828 216.743 666.293 Q216.743 662.161 213.826 659.557 Q210.944 656.953 206.292 656.953 Q202.993 656.953 199.313 658.099 Q195.667 659.244 191.5 661.571 L191.5 654.488 Q195.736 652.786 199.417 651.918 Q203.097 651.05 206.153 651.05 Q214.208 651.05 219 655.078 Q223.792 659.106 223.792 665.842 Q223.792 669.036 222.576 671.918 Q221.396 674.765 218.236 678.654 Q217.368 679.661 212.715 684.487 Q208.062 689.279 199.59 697.925 Z" fill="#000000" fill-rule="nonzero" fill-opacity="1"></path><path clip-path="url(#clip470)" d="M139.278 406.537 Q133.861 406.537 131.118 411.885 Q128.41 417.197 128.41 427.891 Q128.41 438.551 131.118 443.898 Q133.861 449.211 139.278 449.211 Q144.729 449.211 147.438 443.898 Q150.181 438.551 150.181 427.891 Q150.181 417.197 147.438 411.885 Q144.729 406.537 139.278 406.537 M139.278 400.982 Q147.993 400.982 152.577 407.892 Q157.195 414.767 157.195 427.891 Q157.195 440.982 152.577 447.891 Q147.993 454.766 139.278 454.766 Q130.563 454.766 125.945 447.891 Q121.362 440.982 121.362 427.891 Q121.362 414.767 125.945 407.892 Q130.563 400.982 139.278 400.982 Z" fill="#000000" fill-rule="nonzero" fill-opacity="1"></path><path clip-path="url(#clip470)" d="M169.521 444.94 L176.847 444.94 L176.847 453.759 L169.521 453.759 L169.521 444.94 Z" fill="#000000" fill-rule="nonzero" fill-opacity="1"></path><path clip-path="url(#clip470)" d="M213.375 425.808 Q218.41 426.885 221.222 430.287 Q224.069 433.69 224.069 438.69 Q224.069 446.364 218.792 450.565 Q213.514 454.766 203.792 454.766 Q200.528 454.766 197.056 454.107 Q193.618 453.482 189.938 452.197 L189.938 445.426 Q192.854 447.127 196.326 447.996 Q199.799 448.864 203.583 448.864 Q210.181 448.864 213.618 446.259 Q217.09 443.655 217.09 438.69 Q217.09 434.107 213.861 431.537 Q210.667 428.933 204.937 428.933 L198.896 428.933 L198.896 423.169 L205.215 423.169 Q210.389 423.169 213.132 421.121 Q215.875 419.037 215.875 415.148 Q215.875 411.155 213.028 409.037 Q210.215 406.885 204.937 406.885 Q202.056 406.885 198.757 407.51 Q195.458 408.135 191.5 409.454 L191.5 403.204 Q195.493 402.093 198.965 401.537 Q202.472 400.982 205.562 400.982 Q213.549 400.982 218.201 404.628 Q222.854 408.239 222.854 414.419 Q222.854 418.725 220.389 421.711 Q217.924 424.662 213.375 425.808 Z" fill="#000000" fill-rule="nonzero" fill-opacity="1"></path><path clip-path="url(#clip470)" d="M137.577 156.469 Q132.16 156.469 129.417 161.816 Q126.709 167.129 126.709 177.823 Q126.709 188.483 129.417 193.83 Q132.16 199.143 137.577 199.143 Q143.028 199.143 145.736 193.83 Q148.479 188.483 148.479 177.823 Q148.479 167.129 145.736 161.816 Q143.028 156.469 137.577 156.469 M137.577 150.914 Q146.292 150.914 150.875 157.823 Q155.493 164.698 155.493 177.823 Q155.493 190.913 150.875 197.823 Q146.292 204.698 137.577 204.698 Q128.861 204.698 124.243 197.823 Q119.66 190.913 119.66 177.823 Q119.66 164.698 124.243 157.823 Q128.861 150.914 137.577 150.914 Z" fill="#000000" fill-rule="nonzero" fill-opacity="1"></path><path clip-path="url(#clip470)" d="M167.82 194.872 L175.146 194.872 L175.146 203.691 L167.82 203.691 L167.82 194.872 Z" fill="#000000" fill-rule="nonzero" fill-opacity="1"></path><path clip-path="url(#clip470)" d="M209.694 157.962 L191.986 185.636 L209.694 185.636 L209.694 157.962 M207.854 151.851 L216.674 151.851 L216.674 185.636 L224.069 185.636 L224.069 191.469 L216.674 191.469 L216.674 203.691 L209.694 203.691 L209.694 191.469 L186.292 191.469 L186.292 184.698 L207.854 151.851 Z" fill="#000000" fill-rule="nonzero" fill-opacity="1"></path><path clip-path="url(#clip470)" d="M38.132 682.336 L65.5162 682.336 L65.5162 689.79 L38.3751 689.79 Q31.9342 689.79 28.7339 692.301 Q25.5337 694.813 25.5337 699.836 Q25.5337 705.872 29.3821 709.355 Q33.2305 712.839 39.8739 712.839 L65.5162 712.839 L65.5162 720.333 L20.146 720.333 L20.146 712.839 L27.1946 712.839 Q23.1032 710.166 21.0777 706.56 Q19.0523 702.915 19.0523 698.175 Q19.0523 690.357 23.9134 686.346 Q28.7339 682.336 38.132 682.336 Z" fill="#000000" fill-rule="nonzero" fill-opacity="1"></path><path clip-path="url(#clip470)" d="M79.2892 632.996 L85.082 632.996 L85.082 676.098 L79.2892 676.098 L79.2892 632.996 Z" fill="#000000" fill-rule="nonzero" fill-opacity="1"></path><path clip-path="url(#clip470)" d="M54.6597 621.491 Q62.7615 619.83 62.7615 616.306 Q62.7615 613.957 58.103 610.918 L58.103 605.531 Q62.2349 607.961 64.3819 610.797 Q66.6909 613.876 66.6909 616.711 Q66.6909 623.031 61.0602 625.583 L65.5162 628.621 L65.5162 634.94 Q59.5613 630.565 54.0116 627.325 Q50.8519 627.73 47.4086 627.73 Q41.2512 627.73 35.0939 626.474 Q11.9632 621.734 7.22365 617.521 Q3.94241 614.605 3.94241 609.622 Q3.94241 604.559 10.9505 604.559 Q14.1102 604.599 17.8775 605.328 Q33.3115 608.245 54.6597 621.491 M44.0464 621.532 Q29.9492 613.957 18.6877 611.648 Q12.7329 610.432 11.1935 610.432 Q8.39841 610.432 8.39841 611.445 Q11.9227 615.861 32.9064 619.79 Q38.7802 620.884 44.0464 621.532 Z" fill="#000000" fill-rule="nonzero" fill-opacity="1"></path><path clip-path="url(#clip470)" d="M468.443 12.096 L476.625 12.096 L476.625 65.6895 L506.075 65.6895 L506.075 72.576 L468.443 72.576 L468.443 12.096 Z" fill="#000000" fill-rule="nonzero" fill-opacity="1"></path><path clip-path="url(#clip470)" d="M530.462 32.4315 Q524.467 32.4315 520.983 37.1306 Q517.499 41.7891 517.499 49.9314 Q517.499 58.0738 520.942 62.7728 Q524.426 67.4314 530.462 67.4314 Q536.417 67.4314 539.901 62.7323 Q543.384 58.0333 543.384 49.9314 Q543.384 41.8701 539.901 37.1711 Q536.417 32.4315 530.462 32.4315 M530.462 26.1121 Q540.184 26.1121 545.734 32.4315 Q551.284 38.7509 551.284 49.9314 Q551.284 61.0714 545.734 67.4314 Q540.184 73.7508 530.462 73.7508 Q520.699 73.7508 515.149 67.4314 Q509.64 61.0714 509.64 49.9314 Q509.64 38.7509 515.149 32.4315 Q520.699 26.1121 530.462 26.1121 Z" fill="#000000" fill-rule="nonzero" fill-opacity="1"></path><path clip-path="url(#clip470)" d="M596.289 28.9478 L596.289 35.9153 Q593.129 34.1734 589.929 33.3227 Q586.769 32.4315 583.529 32.4315 Q576.278 32.4315 572.267 37.0496 Q568.257 41.6271 568.257 49.9314 Q568.257 58.2358 572.267 62.8538 Q576.278 67.4314 583.529 67.4314 Q586.769 67.4314 589.929 66.5807 Q593.129 65.6895 596.289 63.9476 L596.289 70.8341 Q593.17 72.2924 589.808 73.0216 Q586.486 73.7508 582.719 73.7508 Q572.47 73.7508 566.434 67.3098 Q560.398 60.8689 560.398 49.9314 Q560.398 38.832 566.474 32.472 Q572.591 26.1121 583.205 26.1121 Q586.648 26.1121 589.929 26.8413 Q593.21 27.5299 596.289 28.9478 Z" fill="#000000" fill-rule="nonzero" fill-opacity="1"></path><path clip-path="url(#clip470)" d="M629.871 49.7694 Q620.838 49.7694 617.354 51.8354 Q613.87 53.9013 613.87 58.8839 Q613.87 62.8538 616.463 65.2034 Q619.096 67.5124 623.592 67.5124 Q629.79 67.5124 633.517 63.1374 Q637.284 58.7219 637.284 51.4303 L637.284 49.7694 L629.871 49.7694 M644.738 46.6907 L644.738 72.576 L637.284 72.576 L637.284 65.6895 Q634.732 69.8214 630.924 71.8063 Q627.116 73.7508 621.607 73.7508 Q614.64 73.7508 610.508 69.8619 Q606.416 65.9325 606.416 59.3701 Q606.416 51.7138 611.521 47.825 Q616.665 43.9361 626.833 43.9361 L637.284 43.9361 L637.284 43.2069 Q637.284 38.0623 633.881 35.2672 Q630.519 32.4315 624.402 32.4315 Q620.514 32.4315 616.827 33.3632 Q613.141 34.295 609.738 36.1584 L609.738 29.2718 Q613.83 27.692 617.678 26.9223 Q621.526 26.1121 625.172 26.1121 Q635.016 26.1121 639.877 31.2163 Q644.738 36.3204 644.738 46.6907 Z" fill="#000000" fill-rule="nonzero" fill-opacity="1"></path><path clip-path="url(#clip470)" d="M660.091 9.54393 L667.545 9.54393 L667.545 72.576 L660.091 72.576 L660.091 9.54393 Z" fill="#000000" fill-rule="nonzero" fill-opacity="1"></path><path clip-path="url(#clip470)" d="M727.093 32.4315 Q721.097 32.4315 717.614 37.1306 Q714.13 41.7891 714.13 49.9314 Q714.13 58.0738 717.573 62.7728 Q721.057 67.4314 727.093 67.4314 Q733.048 67.4314 736.531 62.7323 Q740.015 58.0333 740.015 49.9314 Q740.015 41.8701 736.531 37.1711 Q733.048 32.4315 727.093 32.4315 M727.093 26.1121 Q736.815 26.1121 742.365 32.4315 Q747.914 38.7509 747.914 49.9314 Q747.914 61.0714 742.365 67.4314 Q736.815 73.7508 727.093 73.7508 Q717.33 73.7508 711.78 67.4314 Q706.271 61.0714 706.271 49.9314 Q706.271 38.7509 711.78 32.4315 Q717.33 26.1121 727.093 26.1121 Z" fill="#000000" fill-rule="nonzero" fill-opacity="1"></path><path clip-path="url(#clip470)" d="M792.92 28.9478 L792.92 35.9153 Q789.76 34.1734 786.56 33.3227 Q783.4 32.4315 780.16 32.4315 Q772.909 32.4315 768.898 37.0496 Q764.888 41.6271 764.888 49.9314 Q764.888 58.2358 768.898 62.8538 Q772.909 67.4314 780.16 67.4314 Q783.4 67.4314 786.56 66.5807 Q789.76 65.6895 792.92 63.9476 L792.92 70.8341 Q789.801 72.2924 786.439 73.0216 Q783.117 73.7508 779.349 73.7508 Q769.101 73.7508 763.065 67.3098 Q757.029 60.8689 757.029 49.9314 Q757.029 38.832 763.105 32.472 Q769.222 26.1121 779.836 26.1121 Q783.279 26.1121 786.56 26.8413 Q789.841 27.5299 792.92 28.9478 Z" fill="#000000" fill-rule="nonzero" fill-opacity="1"></path><path clip-path="url(#clip470)" d="M838.533 28.9478 L838.533 35.9153 Q835.373 34.1734 832.173 33.3227 Q829.014 32.4315 825.773 32.4315 Q818.522 32.4315 814.511 37.0496 Q810.501 41.6271 810.501 49.9314 Q810.501 58.2358 814.511 62.8538 Q818.522 67.4314 825.773 67.4314 Q829.014 67.4314 832.173 66.5807 Q835.373 65.6895 838.533 63.9476 L838.533 70.8341 Q835.414 72.2924 832.052 73.0216 Q828.73 73.7508 824.963 73.7508 Q814.714 73.7508 808.678 67.3098 Q802.642 60.8689 802.642 49.9314 Q802.642 38.832 808.719 32.472 Q814.835 26.1121 825.449 26.1121 Q828.892 26.1121 832.173 26.8413 Q835.454 27.5299 838.533 28.9478 Z" fill="#000000" fill-rule="nonzero" fill-opacity="1"></path><path clip-path="url(#clip470)" d="M852.549 62.2867 L861.097 62.2867 L861.097 72.576 L852.549 72.576 L852.549 62.2867 Z" fill="#000000" fill-rule="nonzero" fill-opacity="1"></path><path clip-path="url(#clip470)" d="M941.953 45.1919 L941.953 72.576 L934.499 72.576 L934.499 45.4349 Q934.499 38.994 931.988 35.7938 Q929.476 32.5936 924.453 32.5936 Q918.417 32.5936 914.933 36.4419 Q911.449 40.2903 911.449 46.9338 L911.449 72.576 L903.955 72.576 L903.955 27.2059 L911.449 27.2059 L911.449 34.2544 Q914.123 30.163 917.728 28.1376 Q921.374 26.1121 926.114 26.1121 Q933.932 26.1121 937.942 30.9732 Q941.953 35.7938 941.953 45.1919 Z" fill="#000000" fill-rule="nonzero" fill-opacity="1"></path><path clip-path="url(#clip470)" d="M991.293 86.3491 L991.293 92.1419 L948.191 92.1419 L948.191 86.3491 L991.293 86.3491 Z" fill="#000000" fill-rule="nonzero" fill-opacity="1"></path><path clip-path="url(#clip470)" d="M1002.8 61.7196 Q1004.46 69.8214 1007.98 69.8214 Q1010.33 69.8214 1013.37 65.1628 L1018.76 65.1628 Q1016.33 69.2948 1013.49 71.4417 Q1010.41 73.7508 1007.58 73.7508 Q1001.26 73.7508 998.706 68.12 L995.668 72.576 L989.348 72.576 Q993.723 66.6212 996.964 61.0714 Q996.559 57.9117 996.559 54.4685 Q996.559 48.3111 997.815 42.1537 Q1002.55 19.023 1006.77 14.2835 Q1009.68 11.0023 1014.67 11.0023 Q1019.73 11.0023 1019.73 18.0103 Q1019.69 21.17 1018.96 24.9374 Q1016.04 40.3713 1002.8 61.7196 M1002.76 51.1062 Q1010.33 37.0091 1012.64 25.7475 Q1013.86 19.7927 1013.86 18.2534 Q1013.86 15.4583 1012.84 15.4583 Q1008.43 18.9825 1004.5 39.9662 Q1003.4 45.84 1002.76 51.1062 Z" fill="#000000" fill-rule="nonzero" fill-opacity="1"></path><path clip-path="url(#clip470)" d="M1034.48 29.6769 L1043.02 29.6769 L1043.02 39.9662 L1034.48 39.9662 L1034.48 29.6769 M1034.48 62.2867 L1043.02 62.2867 L1043.02 69.2543 L1036.38 82.2172 L1031.15 82.2172 L1034.48 69.2543 L1034.48 62.2867 Z" fill="#000000" fill-rule="nonzero" fill-opacity="1"></path><path clip-path="url(#clip470)" d="M1081.83 12.096 L1090.09 12.096 L1102.81 63.2184 L1115.49 12.096 L1124.69 12.096 L1137.41 63.2184 L1150.09 12.096 L1158.39 12.096 L1143.2 72.576 L1132.91 72.576 L1120.15 20.0763 L1107.27 72.576 L1096.98 72.576 L1081.83 12.096 Z" fill="#000000" fill-rule="nonzero" fill-opacity="1"></path><path clip-path="url(#clip470)" d="M1184.24 49.7694 Q1175.2 49.7694 1171.72 51.8354 Q1168.24 53.9013 1168.24 58.8839 Q1168.24 62.8538 1170.83 65.2034 Q1173.46 67.5124 1177.96 67.5124 Q1184.16 67.5124 1187.88 63.1374 Q1191.65 58.7219 1191.65 51.4303 L1191.65 49.7694 L1184.24 49.7694 M1199.1 46.6907 L1199.1 72.576 L1191.65 72.576 L1191.65 65.6895 Q1189.1 69.8214 1185.29 71.8063 Q1181.48 73.7508 1175.97 73.7508 Q1169.01 73.7508 1164.87 69.8619 Q1160.78 65.9325 1160.78 59.3701 Q1160.78 51.7138 1165.89 47.825 Q1171.03 43.9361 1181.2 43.9361 L1191.65 43.9361 L1191.65 43.2069 Q1191.65 38.0623 1188.25 35.2672 Q1184.89 32.4315 1178.77 32.4315 Q1174.88 32.4315 1171.19 33.3632 Q1167.51 34.295 1164.1 36.1584 L1164.1 29.2718 Q1168.2 27.692 1172.04 26.9223 Q1175.89 26.1121 1179.54 26.1121 Q1189.38 26.1121 1194.24 31.2163 Q1199.1 36.3204 1199.1 46.6907 Z" fill="#000000" fill-rule="nonzero" fill-opacity="1"></path><path clip-path="url(#clip470)" d="M1252.17 45.1919 L1252.17 72.576 L1244.72 72.576 L1244.72 45.4349 Q1244.72 38.994 1242.21 35.7938 Q1239.69 32.5936 1234.67 32.5936 Q1228.64 32.5936 1225.15 36.4419 Q1221.67 40.2903 1221.67 46.9338 L1221.67 72.576 L1214.17 72.576 L1214.17 27.2059 L1221.67 27.2059 L1221.67 34.2544 Q1224.34 30.163 1227.95 28.1376 Q1231.59 26.1121 1236.33 26.1121 Q1244.15 26.1121 1248.16 30.9732 Q1252.17 35.7938 1252.17 45.1919 Z" fill="#000000" fill-rule="nonzero" fill-opacity="1"></path><path clip-path="url(#clip470)" d="M1304.75 45.1919 L1304.75 72.576 L1297.3 72.576 L1297.3 45.4349 Q1297.3 38.994 1294.79 35.7938 Q1292.27 32.5936 1287.25 32.5936 Q1281.22 32.5936 1277.73 36.4419 Q1274.25 40.2903 1274.25 46.9338 L1274.25 72.576 L1266.75 72.576 L1266.75 27.2059 L1274.25 27.2059 L1274.25 34.2544 Q1276.92 30.163 1280.53 28.1376 Q1284.17 26.1121 1288.91 26.1121 Q1296.73 26.1121 1300.74 30.9732 Q1304.75 35.7938 1304.75 45.1919 Z" fill="#000000" fill-rule="nonzero" fill-opacity="1"></path><path clip-path="url(#clip470)" d="M1319.62 27.2059 L1327.07 27.2059 L1327.07 72.576 L1319.62 72.576 L1319.62 27.2059 M1319.62 9.54393 L1327.07 9.54393 L1327.07 18.9825 L1319.62 18.9825 L1319.62 9.54393 Z" fill="#000000" fill-rule="nonzero" fill-opacity="1"></path><path clip-path="url(#clip470)" d="M1381.48 48.0275 L1381.48 51.6733 L1347.21 51.6733 Q1347.69 59.3701 1351.82 63.421 Q1356 67.4314 1363.41 67.4314 Q1367.7 67.4314 1371.71 66.3781 Q1375.76 65.3249 1379.73 63.2184 L1379.73 70.267 Q1375.72 71.9684 1371.51 72.8596 Q1367.3 73.7508 1362.96 73.7508 Q1352.11 73.7508 1345.75 67.4314 Q1339.43 61.1119 1339.43 50.3365 Q1339.43 39.1965 1345.42 32.6746 Q1351.46 26.1121 1361.67 26.1121 Q1370.82 26.1121 1376.13 32.0264 Q1381.48 37.9003 1381.48 48.0275 M1374.02 45.84 Q1373.94 39.7232 1370.58 36.0774 Q1367.26 32.4315 1361.75 32.4315 Q1355.51 32.4315 1351.74 35.9558 Q1348.02 39.4801 1347.45 45.8805 L1374.02 45.84 Z" fill="#000000" fill-rule="nonzero" fill-opacity="1"></path><path clip-path="url(#clip470)" d="M1420 34.1734 Q1418.74 33.4443 1417.25 33.1202 Q1415.79 32.7556 1414 32.7556 Q1407.69 32.7556 1404.28 36.8875 Q1400.92 40.9789 1400.92 48.6757 L1400.92 72.576 L1393.43 72.576 L1393.43 27.2059 L1400.92 27.2059 L1400.92 34.2544 Q1403.27 30.1225 1407.04 28.1376 Q1410.8 26.1121 1416.19 26.1121 Q1416.96 26.1121 1417.89 26.2337 Q1418.83 26.3147 1419.96 26.5172 L1420 34.1734 Z" fill="#000000" fill-rule="nonzero" fill-opacity="1"></path><path clip-path="url(#clip470)" d="M1483.11 28.5427 L1483.11 35.5912 Q1479.95 33.9709 1476.55 33.1607 Q1473.15 32.3505 1469.5 32.3505 Q1463.95 32.3505 1461.16 34.0519 Q1458.4 35.7533 1458.4 39.156 Q1458.4 41.7486 1460.39 43.2475 Q1462.37 44.7058 1468.37 46.0426 L1470.92 46.6097 Q1478.86 48.3111 1482.18 51.4303 Q1485.54 54.509 1485.54 60.0587 Q1485.54 66.3781 1480.52 70.0644 Q1475.54 73.7508 1466.79 73.7508 Q1463.14 73.7508 1459.17 73.0216 Q1455.24 72.3329 1450.87 70.9151 L1450.87 63.2184 Q1455 65.3654 1459.01 66.4591 Q1463.02 67.5124 1466.95 67.5124 Q1472.22 67.5124 1475.05 65.73 Q1477.89 63.9071 1477.89 60.6258 Q1477.89 57.5877 1475.82 55.9673 Q1473.8 54.3469 1466.87 52.8481 L1464.28 52.2405 Q1457.35 50.7821 1454.27 47.7845 Q1451.19 44.7463 1451.19 39.4801 Q1451.19 33.0797 1455.73 29.5959 Q1460.27 26.1121 1468.61 26.1121 Q1472.74 26.1121 1476.39 26.7198 Q1480.03 27.3274 1483.11 28.5427 Z" fill="#000000" fill-rule="nonzero" fill-opacity="1"></path><path clip-path="url(#clip470)" d="M1504.79 14.324 L1504.79 27.2059 L1520.14 27.2059 L1520.14 32.9987 L1504.79 32.9987 L1504.79 57.6282 Q1504.79 63.1779 1506.28 64.7578 Q1507.82 66.3376 1512.48 66.3376 L1520.14 66.3376 L1520.14 72.576 L1512.48 72.576 Q1503.85 72.576 1500.57 69.3758 Q1497.29 66.1351 1497.29 57.6282 L1497.29 32.9987 L1491.82 32.9987 L1491.82 27.2059 L1497.29 27.2059 L1497.29 14.324 L1504.79 14.324 Z" fill="#000000" fill-rule="nonzero" fill-opacity="1"></path><path clip-path="url(#clip470)" d="M1550.56 49.7694 Q1541.53 49.7694 1538.04 51.8354 Q1534.56 53.9013 1534.56 58.8839 Q1534.56 62.8538 1537.15 65.2034 Q1539.79 67.5124 1544.28 67.5124 Q1550.48 67.5124 1554.21 63.1374 Q1557.97 58.7219 1557.97 51.4303 L1557.97 49.7694 L1550.56 49.7694 M1565.43 46.6907 L1565.43 72.576 L1557.97 72.576 L1557.97 65.6895 Q1555.42 69.8214 1551.61 71.8063 Q1547.81 73.7508 1542.3 73.7508 Q1535.33 73.7508 1531.2 69.8619 Q1527.11 65.9325 1527.11 59.3701 Q1527.11 51.7138 1532.21 47.825 Q1537.35 43.9361 1547.52 43.9361 L1557.97 43.9361 L1557.97 43.2069 Q1557.97 38.0623 1554.57 35.2672 Q1551.21 32.4315 1545.09 32.4315 Q1541.2 32.4315 1537.52 33.3632 Q1533.83 34.295 1530.43 36.1584 L1530.43 29.2718 Q1534.52 27.692 1538.37 26.9223 Q1542.22 26.1121 1545.86 26.1121 Q1555.71 26.1121 1560.57 31.2163 Q1565.43 36.3204 1565.43 46.6907 Z" fill="#000000" fill-rule="nonzero" fill-opacity="1"></path><path clip-path="url(#clip470)" d="M1588.15 14.324 L1588.15 27.2059 L1603.51 27.2059 L1603.51 32.9987 L1588.15 32.9987 L1588.15 57.6282 Q1588.15 63.1779 1589.65 64.7578 Q1591.19 66.3376 1595.85 66.3376 L1603.51 66.3376 L1603.51 72.576 L1595.85 72.576 Q1587.22 72.576 1583.94 69.3758 Q1580.66 66.1351 1580.66 57.6282 L1580.66 32.9987 L1575.19 32.9987 L1575.19 27.2059 L1580.66 27.2059 L1580.66 14.324 L1588.15 14.324 Z" fill="#000000" fill-rule="nonzero" fill-opacity="1"></path><path clip-path="url(#clip470)" d="M1652.12 48.0275 L1652.12 51.6733 L1617.85 51.6733 Q1618.33 59.3701 1622.46 63.421 Q1626.64 67.4314 1634.05 67.4314 Q1638.34 67.4314 1642.35 66.3781 Q1646.41 65.3249 1650.37 63.2184 L1650.37 70.267 Q1646.36 71.9684 1642.15 72.8596 Q1637.94 73.7508 1633.6 73.7508 Q1622.75 73.7508 1616.39 67.4314 Q1610.07 61.1119 1610.07 50.3365 Q1610.07 39.1965 1616.06 32.6746 Q1622.1 26.1121 1632.31 26.1121 Q1641.46 26.1121 1646.77 32.0264 Q1652.12 37.9003 1652.12 48.0275 M1644.66 45.84 Q1644.58 39.7232 1641.22 36.0774 Q1637.9 32.4315 1632.39 32.4315 Q1626.15 32.4315 1622.38 35.9558 Q1618.66 39.4801 1618.09 45.8805 L1644.66 45.84 Z" fill="#000000" fill-rule="nonzero" fill-opacity="1"></path><path clip-path="url(#clip470)" d="M1711.83 67.4314 Q1717.17 67.4719 1720.37 70.51 Q1723.78 73.7103 1723.78 78.5713 Q1723.78 83.2299 1720.78 86.4706 Q1717.54 89.9949 1710.94 89.9949 Q1710.94 86.9567 1710.94 83.878 Q1713.73 84.0806 1715.43 82.2982 Q1716.73 80.8804 1716.73 79.3815 Q1716.73 77.2345 1715.43 75.4521 Q1714.18 73.7508 1711.83 73.7508 Q1687.28 73.7508 1687.24 50.9442 Q1687.24 31.0137 1710.37 17.0381 L1688.82 17.0381 L1688.82 9.54393 L1724.06 9.54393 L1724.06 17.0381 Q1694.73 31.7834 1694.73 50.9442 Q1694.73 67.4314 1711.83 67.4314 Z" fill="#000000" fill-rule="nonzero" fill-opacity="1"></path><path clip-path="url(#clip470)" d="M1742.9 12.096 L1742.9 34.5785 L1736.01 34.5785 L1736.01 12.096 L1742.9 12.096 Z" fill="#000000" fill-rule="nonzero" fill-opacity="1"></path><path clip-path="url(#clip470)" d="M1776.56 9.62495 Q1771.13 18.942 1768.5 28.0566 Q1765.87 37.1711 1765.87 46.5287 Q1765.87 55.8863 1768.5 65.0818 Q1771.17 74.2369 1776.56 83.5134 L1770.08 83.5134 Q1764 73.9938 1760.96 64.7983 Q1757.97 55.6027 1757.97 46.5287 Q1757.97 37.4952 1760.96 28.3401 Q1763.96 19.1851 1770.08 9.62495 L1776.56 9.62495 Z" fill="#000000" fill-rule="nonzero" fill-opacity="1"></path><path clip-path="url(#clip470)" d="M1790.74 9.54393 L1798.23 9.54393 L1798.23 46.7717 L1820.47 27.2059 L1829.99 27.2059 L1805.93 48.4326 L1831 72.576 L1821.28 72.576 L1798.23 50.4176 L1798.23 72.576 L1790.74 72.576 L1790.74 9.54393 Z" fill="#000000" fill-rule="nonzero" fill-opacity="1"></path><path clip-path="url(#clip470)" d="M1840.04 34.9026 L1891.97 34.9026 L1891.97 41.7081 L1840.04 41.7081 L1840.04 34.9026 M1840.04 51.4303 L1891.97 51.4303 L1891.97 58.3168 L1840.04 58.3168 L1840.04 51.4303 Z" fill="#000000" fill-rule="nonzero" fill-opacity="1"></path><path clip-path="url(#clip470)" d="M1911.05 65.6895 L1924.42 65.6895 L1924.42 19.5497 L1909.88 22.4663 L1909.88 15.0127 L1924.34 12.096 L1932.52 12.096 L1932.52 65.6895 L1945.89 65.6895 L1945.89 72.576 L1911.05 72.576 L1911.05 65.6895 Z" fill="#000000" fill-rule="nonzero" fill-opacity="1"></path><path clip-path="url(#clip470)" d="M1962.5 12.096 L1994.62 12.096 L1994.62 18.9825 L1969.99 18.9825 L1969.99 33.8088 Q1971.77 33.2012 1973.56 32.9176 Q1975.34 32.5936 1977.12 32.5936 Q1987.25 32.5936 1993.16 38.1433 Q1999.08 43.6931 1999.08 53.1722 Q1999.08 62.9348 1993 68.3631 Q1986.92 73.7508 1975.87 73.7508 Q1972.06 73.7508 1968.09 73.1026 Q1964.16 72.4545 1959.94 71.1582 L1959.94 62.9348 Q1963.59 64.9198 1967.48 65.892 Q1971.37 66.8642 1975.7 66.8642 Q1982.71 66.8642 1986.8 63.1779 Q1990.89 59.4916 1990.89 53.1722 Q1990.89 46.8528 1986.8 43.1664 Q1982.71 39.4801 1975.7 39.4801 Q1972.42 39.4801 1969.14 40.2093 Q1965.9 40.9384 1962.5 42.4778 L1962.5 12.096 Z" fill="#000000" fill-rule="nonzero" fill-opacity="1"></path><path clip-path="url(#clip470)" d="M2012.97 9.62495 L2019.45 9.62495 Q2025.53 19.1851 2028.53 28.3401 Q2031.56 37.4952 2031.56 46.5287 Q2031.56 55.6027 2028.53 64.7983 Q2025.53 73.9938 2019.45 83.5134 L2012.97 83.5134 Q2018.36 74.2369 2020.99 65.0818 Q2023.67 55.8863 2023.67 46.5287 Q2023.67 37.1711 2020.99 28.0566 Q2018.36 18.942 2012.97 9.62495 Z" fill="#000000" fill-rule="nonzero" fill-opacity="1"></path><path clip-path="url(#clip470)" d="M2056.11 9.17935 L2056.11 92.1419 L2049.23 92.1419 L2049.23 9.17935 L2056.11 9.17935 Z" fill="#000000" fill-rule="nonzero" fill-opacity="1"></path><path clip-path="url(#clip470)" d="M2093.02 17.4837 Q2086.7 17.4837 2083.5 23.7221 Q2080.34 29.92 2080.34 42.3968 Q2080.34 54.833 2083.5 61.0714 Q2086.7 67.2693 2093.02 67.2693 Q2099.38 67.2693 2102.54 61.0714 Q2105.74 54.833 2105.74 42.3968 Q2105.74 29.92 2102.54 23.7221 Q2099.38 17.4837 2093.02 17.4837 M2093.02 11.0023 Q2103.18 11.0023 2108.53 19.0636 Q2113.92 27.0843 2113.92 42.3968 Q2113.92 57.6687 2108.53 65.73 Q2103.18 73.7508 2093.02 73.7508 Q2082.85 73.7508 2077.46 65.73 Q2072.11 57.6687 2072.11 42.3968 Q2072.11 27.0843 2077.46 19.0636 Q2082.85 11.0023 2093.02 11.0023 Z" fill="#000000" fill-rule="nonzero" fill-opacity="1"></path><path clip-path="url(#clip470)" d="M2144.38 46.5692 L2132.96 83.5134 L2126.07 83.5134 L2137.5 46.5692 L2126.07 9.62495 L2132.96 9.62495 L2144.38 46.5692 Z" fill="#000000" fill-rule="nonzero" fill-opacity="1"></path><polyline clip-path="url(#clip472)" style="stroke:#0000ff; stroke-linecap:round; stroke-linejoin:round; stroke-width:8; stroke-opacity:1; fill:none" points="319.296,1177.27 350.633,1178.04 381.97,1165.99 413.307,1178.04 444.644,1176.93 475.981,1178.04 507.318,1170.23 538.655,1178.04 569.993,1176.47 601.33,1178.04 632.667,1171.34 664.004,1178.04 695.341,1175.69 726.678,1178.04 758.015,1171.07 789.352,1178.04 820.689,1174.15 852.026,1178.04 883.363,1169.28 914.7,1178.04 946.037,1170.39 977.374,1178.04 1008.71,1163.82 1040.05,1178.04 1071.38,1157.45 1102.72,1178.04 1134.06,1140.04 1165.4,1178.04 1196.73,1046.83 1228.07,1178.04 1259.41,146.848 1290.74,1178.04 1322.08,271.707 1353.42,1178.04 1384.76,1115.17 1416.09,1178.04 1447.43,1124.58 1478.77,1178.04 1510.1,1167.51 1541.44,1178.04 1572.78,1157.23 1604.11,1178.04 1635.45,1174.28 1666.79,1178.04 1698.13,1164.99 1729.46,1178.04 1760.8,1176.28 1792.14,1178.04 1823.47,1167.34 1854.81,1178.04 1886.15,1177.13 1917.48,1178.04 1948.82,1167.04 1980.16,1178.04 2011.5,1177.57 2042.83,1178.04 2074.17,1162.79 2105.51,1178.04 2136.84,1177.87 2168.18,1178.04 2199.52,1127.5 2230.85,1178.04 2262.19,1133.91 2293.53,1178.04 "></polyline>
</svg>